<?xml version="1.0" encoding="utf-8"?>
<!-- Generator: Adobe Illustrator 18.1.1, SVG Export Plug-In . SVG Version: 6.00 Build 0)  -->
<svg version="1.1" xmlns="http://www.w3.org/2000/svg" xmlns:xlink="http://www.w3.org/1999/xlink" x="0px" y="0px"
	 viewBox="0 0 25.3 24.9" enable-background="new 0 0 25.3 24.9" xml:space="preserve">
<g id="Layer_1">
</g>
<g id="Layer_3">
</g>
<g id="Layer_16">
</g>
<g id="working_layer" display="none">
</g>
<g id="Video_Options" display="none">
	<g id="Video_Examples">
	</g>
	<g id="Video_Examples_copy">
	</g>
</g>
<g id="Video_Btn" display="none">
</g>
<g id="Text" display="none">
</g>
<g id="Menu" display="none">
</g>
<g id="Menu_Button" display="none">
</g>
<g id="Contact">
	<g id="Close" display="none">
	</g>
	<g id="Open">
	</g>
</g>
<g id="Logos" display="none">
</g>
<g id="Layer_17">
</g>
<g id="Footer">
	<g>
		<g>
			<path fill="#FFFFFF" d="M17.6,15.2c-2.3,2.9-4.2,4.4-5.8,4.4c-1,0-1.8-0.9-2.5-2.7C8.9,15.3,8.5,13.7,8,12
				c-0.5-1.8-1-2.7-1.6-2.7c-0.1,0-0.6,0.3-1.3,0.8l-0.8-1C5.2,8.4,6,7.7,6.8,6.9C7.9,6,8.7,5.5,9.2,5.5c1.3-0.1,2.1,0.8,2.4,2.7
				c0.3,2,0.5,3.3,0.7,3.8c0.4,1.7,0.8,2.5,1.2,2.5c0.3,0,0.9-0.5,1.6-1.6c0.7-1.1,1.1-1.9,1.1-2.5c0.1-0.9-0.3-1.4-1.1-1.4
				c-0.4,0-0.8,0.1-1.2,0.3c0.8-2.7,2.4-4,4.7-3.9c1.7,0,2.5,1.2,2.4,3.3C20.9,10.2,19.8,12.4,17.6,15.2z"/>
		</g>
	</g>
</g>
</svg>
