<?xml version="1.0" encoding="utf-8"?>
<!-- Generator: Adobe Illustrator 18.1.1, SVG Export Plug-In . SVG Version: 6.00 Build 0)  -->
<svg version="1.1" xmlns="http://www.w3.org/2000/svg" xmlns:xlink="http://www.w3.org/1999/xlink" x="0px" y="0px"
	 viewBox="0 0 70 96.8" enable-background="new 0 0 70 96.8" xml:space="preserve">
<g id="Layer_1">
</g>
<g id="Layer_3">
</g>
<g id="Layer_16">
</g>
<g id="working_layer" display="none">
</g>
<g id="Video_Options" display="none">
	<g id="Video_Examples">
	</g>
	<g id="Video_Examples_copy">
	</g>
</g>
<g id="Video_Btn" display="none">
</g>
<g id="Text" display="none">
</g>
<g id="Menu" display="none">
</g>
<g id="Menu_Button" display="none">
</g>
<g id="Contact">
	<g id="Close" display="none">
	</g>
	<g id="Open">
	</g>
</g>
<g id="Logos" display="none">
</g>
<g id="Layer_17">
	<g>
		<g>
			<g>
				<g>
					<g>
						<path fill="#FFFFFF" d="M23,87.6v-6.4l-2.3,5.1l-0.8,0l-2.3-5v6.4h-0.9v-8.4h0.9l2.7,6l2.7-6h0.9v8.4H23z"/>
					</g>
				</g>
				<g>
					<g>
						<path fill="#FFFFFF" d="M31.5,87.7c-0.9,0-1.6-0.3-2.1-0.8s-0.8-1.2-0.8-2v-5.6h0.9v5.6c0,0.6,0.2,1.1,0.6,1.5
							c0.4,0.4,0.9,0.6,1.5,0.6c0.6,0,1.1-0.2,1.5-0.6c0.4-0.4,0.6-0.9,0.6-1.5v-5.6h0.9v5.6c0,0.8-0.3,1.5-0.8,2.1
							C33.1,87.4,32.4,87.7,31.5,87.7z"/>
					</g>
				</g>
				<g>
					<g>
						<path fill="#FFFFFF" d="M41.6,80v7.6h-0.9V80h-2.4v-0.8H44V80H41.6z"/>
					</g>
				</g>
				<g>
					<g>
						<path fill="#FFFFFF" d="M47.9,87.6v-8.4h5.2V80h-4.3v3h3.7v0.8h-3.7v3h4.3v0.8H47.9z"/>
					</g>
				</g>
			</g>
		</g>
		<g>
			<g>
				<g>
					<g>
						<g>
							<g>
								<path fill="#FFFFFF" d="M35,66.6C18.1,66.6,4.3,52.9,4.3,36C4.3,19,18.1,5.3,35,5.3C51.9,5.3,65.7,19,65.7,36
									C65.7,52.9,51.9,66.6,35,66.6z M35,7.8C19.5,7.8,6.8,20.4,6.8,36c0,15.5,12.6,28.2,28.2,28.2c15.5,0,28.2-12.6,28.2-28.2
									C63.2,20.4,50.5,7.8,35,7.8z"/>
							</g>
						</g>
					</g>
				</g>
			</g>
			<g>
				<g>
					<g>
						<path fill="#FFFFFF" d="M44,55.2c-0.3,0-0.6-0.1-0.8-0.3l-11.4-9.2h-4.7c-0.7,0-1.3-0.6-1.3-1.3V30.3c0-0.7,0.6-1.3,1.3-1.3
							h4.6l11.5-9.2c0.4-0.3,0.9-0.4,1.3-0.1c0.4,0.2,0.7,0.6,0.7,1.1V54c0,0.5-0.3,0.9-0.7,1.1C44.4,55.2,44.2,55.2,44,55.2z
							 M28.4,43.3h3.9c0.3,0,0.6,0.1,0.8,0.3l9.8,7.8V23.5l-9.8,7.8c-0.2,0.2-0.5,0.3-0.8,0.3h-3.8V43.3z M21.9,45.8
							c-0.7,0-1.3-0.6-1.3-1.3V30.3c0-0.7,0.6-1.3,1.3-1.3s1.3,0.6,1.3,1.3v14.2C23.2,45.2,22.6,45.8,21.9,45.8z"/>
					</g>
				</g>
			</g>
		</g>
	</g>
</g>
<g id="Footer">
</g>
</svg>
