<?xml version="1.0" encoding="utf-8"?>
<!-- Generator: Adobe Illustrator 18.1.1, SVG Export Plug-In . SVG Version: 6.00 Build 0)  -->
<svg version="1.1" xmlns="http://www.w3.org/2000/svg" xmlns:xlink="http://www.w3.org/1999/xlink" x="0px" y="0px"
	 viewBox="0 0 25.3 24.9" enable-background="new 0 0 25.3 24.9" xml:space="preserve">
<g id="Layer_1">
</g>
<g id="Layer_3">
</g>
<g id="Layer_16">
</g>
<g id="working_layer" display="none">
</g>
<g id="Video_Options" display="none">
	<g id="Video_Examples">
	</g>
	<g id="Video_Examples_copy">
	</g>
</g>
<g id="Video_Btn" display="none">
</g>
<g id="Text" display="none">
</g>
<g id="Menu" display="none">
</g>
<g id="Menu_Button" display="none">
</g>
<g id="Contact">
	<g id="Close" display="none">
	</g>
	<g id="Open">
	</g>
</g>
<g id="Logos" display="none">
</g>
<g id="Layer_17">
</g>
<g id="Footer">
	<g>
		<g>
			<path fill="#FFFFFF" d="M6.2,13.9c0.2,0,0.4,0.1,0.6,0.1c0.3,0,0.6,0,0.9-0.1C6.2,13.5,5,12.1,5,10.5v0c0.5,0.3,1,0.4,1.6,0.4
				C5.6,10.3,5,9.2,5,8c0-0.6,0.2-1.2,0.5-1.7c1.7,2.1,4.2,3.4,7.1,3.6c-0.1-0.3-0.1-0.5-0.1-0.8c0-1.9,1.5-3.4,3.4-3.4
				c1,0,1.9,0.4,2.5,1.1c0.8-0.2,1.5-0.4,2.2-0.8c-0.3,0.8-0.8,1.5-1.5,1.9c0.7-0.1,1.4-0.3,2-0.5c-0.5,0.7-1,1.3-1.7,1.8
				c0,0.1,0,0.3,0,0.4c0,4.5-3.4,9.8-9.7,9.8c-1.9,0-3.7-0.6-5.3-1.5c0.3,0,0.5,0.1,0.8,0.1c1.6,0,3.1-0.5,4.3-1.5
				C7.9,16.3,6.6,15.3,6.2,13.9z"/>
		</g>
	</g>
</g>
</svg>
