<?xml version="1.0" encoding="utf-8"?>
<!-- Generator: Adobe Illustrator 18.1.1, SVG Export Plug-In . SVG Version: 6.00 Build 0)  -->
<svg version="1.1" xmlns="http://www.w3.org/2000/svg" xmlns:xlink="http://www.w3.org/1999/xlink" x="0px" y="0px"
	 viewBox="0 0 1052.5 37" enable-background="new 0 0 1052.5 37" xml:space="preserve">
<g id="Layer_1">
</g>
<g id="Layer_3">
</g>
<g id="Layer_16">
</g>
<g id="working_layer" display="none">
	<g display="inline">
		<g>
			<rect x="896.6" y="23.4" fill="none" stroke="#FEBC11" stroke-width="2.5" stroke-miterlimit="10" width="115" height="115"/>
		</g>
	</g>
	<rect x="815.4" y="-21.8" display="inline" fill="#CDCCCC" width="32" height="149.3"/>
</g>
<g id="Video_Options" display="none">
	<g id="Video_Examples">
	</g>
	<g id="Video_Examples_copy">
	</g>
</g>
<g id="Video_Btn" display="none">
</g>
<g id="Text" display="none">
</g>
<g id="Menu" display="none">
</g>
<g id="Menu_Button" display="none">
</g>
<g id="Contact">
	<g id="Close" display="none">
	</g>
	<g id="Open">
	</g>
</g>
<g id="Logos" display="none">
</g>
<g id="Layer_17">
	<g>
		<g>
			<g>
				<path fill="#FFFFFF" d="M18.1,24.7l-1.4,0l-3.1-11.3l-3.1,11.3l-1.4,0L5.5,10.7l1.6,0L9.8,22l3.1-11.4h1.3L17.4,22l2.8-11.4
					l1.6,0L18.1,24.7z"/>
			</g>
			<g>
				<path fill="#FFFFFF" d="M18.4,25l-1.9,0l-2.9-10.5L10.7,25l-1.9,0L5.1,10.4l2.2,0l2.5,10.5l2.9-10.5h1.8l2.9,10.5l2.5-10.5
					l2.2,0L18.4,25z M17,24.4l0.9,0L21.3,11l-1,0l-3,12.3L14,11h-0.9L9.8,23.2L6.8,11l-1,0l3.4,13.5l0.9,0l3.4-12.1L17,24.4z"/>
			</g>
		</g>
		<g>
			<g>
				<path fill="#FFFFFF" d="M28,24.7V10.7h8.7V12h-7.2v5h6.2v1.3h-6.2v5.1h7.2v1.3H28z"/>
			</g>
			<g>
				<path fill="#FFFFFF" d="M37.1,25h-9.3V10.4h9.3v1.9h-7.2v4.4H36v1.9h-6.2v4.5h7.2V25z M28.3,24.4h8.1v-0.7h-7.2V18h6.2v-0.7
					h-6.2v-5.6h7.2V11h-8.1V24.4z"/>
			</g>
		</g>
		<g>
			<g>
				<path fill="#FFFFFF" d="M58.2,24.7h-5.5V10.7H58c1.2,0,2.2,0.3,3,1c0.8,0.7,1.1,1.6,1.1,2.7c0,0.7-0.2,1.4-0.6,1.9
					c-0.4,0.6-0.9,0.9-1.5,1.2c0.7,0.3,1.2,0.7,1.7,1.3c0.4,0.6,0.6,1.3,0.6,2.1c0,1.3-0.4,2.2-1.1,2.9
					C60.5,24.4,59.5,24.7,58.2,24.7z M57.9,12h-3.7v4.9h3.7c0.8,0,1.5-0.2,2-0.6c0.5-0.4,0.8-1,0.8-1.8c0-0.8-0.3-1.4-0.8-1.8
					C59.4,12.2,58.7,12,57.9,12z M58,18.2h-3.8v5.2H58c0.9,0,1.6-0.2,2.1-0.7c0.5-0.5,0.8-1.1,0.8-1.9c0-0.8-0.3-1.4-0.8-1.9
					C59.6,18.5,58.9,18.2,58,18.2z"/>
			</g>
			<g>
				<path fill="#FFFFFF" d="M58.2,25h-5.8V10.4H58c1.3,0,2.4,0.4,3.2,1.1c0.8,0.7,1.2,1.7,1.2,3c0,0.8-0.2,1.5-0.6,2.1
					c-0.3,0.4-0.6,0.7-1,1c0.5,0.3,0.9,0.6,1.2,1.1c0.5,0.6,0.7,1.4,0.7,2.3c0,1.3-0.4,2.4-1.2,3.1C60.6,24.7,59.5,25,58.2,25z
					 M53,24.4h5.2c1.2,0,2.2-0.3,2.9-0.9c0.7-0.6,1-1.5,1-2.7c0-0.7-0.2-1.4-0.6-1.9c-0.4-0.5-0.9-0.9-1.5-1.2l-0.8-0.3l0.8-0.3
					c0.6-0.2,1-0.5,1.4-1.1c0.3-0.5,0.5-1.1,0.5-1.7c0-1.1-0.3-1.9-1-2.5C60.1,11.3,59.2,11,58,11h-5V24.4z M58,23.7h-4.1v-5.8H58
					c1,0,1.7,0.3,2.3,0.8c0.6,0.5,0.8,1.2,0.8,2.1c0,0.9-0.3,1.6-0.9,2.1C59.7,23.4,59,23.7,58,23.7z M54.5,23.1H58
					c0.8,0,1.4-0.2,1.9-0.6c0.4-0.4,0.7-1,0.7-1.7c0-0.7-0.2-1.3-0.7-1.7c-0.4-0.4-1.1-0.6-1.9-0.6h-3.5V23.1z M57.9,17.2h-4v-5.5h4
					c0.9,0,1.6,0.2,2.2,0.7c0.6,0.5,0.9,1.2,0.9,2.1c0,0.9-0.3,1.6-0.9,2.1C59.5,17,58.8,17.2,57.9,17.2z M54.5,16.6h3.4
					c0.8,0,1.4-0.2,1.8-0.5c0.4-0.4,0.6-0.9,0.6-1.6c0-0.7-0.2-1.2-0.6-1.6c-0.4-0.4-1.1-0.5-1.8-0.5h-3.4V16.6z"/>
			</g>
		</g>
		<g>
			<g>
				<path fill="#FFFFFF" d="M69.9,24.7V10.7h8.7V12h-7.2v5h6.2v1.3h-6.2v5.1h7.2v1.3H69.9z"/>
			</g>
			<g>
				<path fill="#FFFFFF" d="M78.9,25h-9.3V10.4h9.3v1.9h-7.2v4.4h6.2v1.9h-6.2v4.5h7.2V25z M70.2,24.4h8.1v-0.7h-7.2V18h6.2v-0.7
					h-6.2v-5.6h7.2V11h-8.1V24.4z"/>
			</g>
		</g>
		<g>
			<g>
				<path fill="#FFFFFF" d="M85.7,24.7V10.7h1.5v12.7h7.2v1.3H85.7z"/>
			</g>
			<g>
				<path fill="#FFFFFF" d="M94.7,25h-9.3V10.4h2.1v12.7h7.2V25z M86,24.4h8.1v-0.7h-7.2V11H86V24.4z"/>
			</g>
		</g>
		<g>
			<g>
				<path fill="#FFFFFF" d="M100.9,24.7V10.7h1.5v14.1H100.9z"/>
			</g>
			<g>
				<path fill="#FFFFFF" d="M102.7,25h-2.1V10.4h2.1V25z M101.2,24.4h0.9V11h-0.9V24.4z"/>
			</g>
		</g>
		<g>
			<g>
				<path fill="#FFFFFF" d="M110.5,24.7V10.7h8.7V12H112v5h6.2v1.3H112v5.1h7.2v1.3H110.5z"/>
			</g>
			<g>
				<path fill="#FFFFFF" d="M119.5,25h-9.3V10.4h9.3v1.9h-7.2v4.4h6.2v1.9h-6.2v4.5h7.2V25z M110.8,24.4h8.1v-0.7h-7.2V18h6.2v-0.7
					h-6.2v-5.6h7.2V11h-8.1V24.4z"/>
			</g>
		</g>
		<g>
			<g>
				<path fill="#FFFFFF" d="M130.2,24.7H129l-4.6-14.1h1.6l3.7,11.4l3.7-11.4h1.6L130.2,24.7z"/>
			</g>
			<g>
				<path fill="#FFFFFF" d="M130.5,25h-1.7L124,10.4h2.2l3.4,10.7l3.4-10.7h2.2L130.5,25z M129.2,24.4h0.8l4.4-13.5h-0.9L129.6,23
					L125.8,11h-0.9L129.2,24.4z"/>
			</g>
		</g>
		<g>
			<g>
				<path fill="#FFFFFF" d="M141,24.7V10.7h8.7V12h-7.2v5h6.2v1.3h-6.2v5.1h7.2v1.3H141z"/>
			</g>
			<g>
				<path fill="#FFFFFF" d="M150,25h-9.3V10.4h9.3v1.9h-7.2v4.4h6.2v1.9h-6.2v4.5h7.2V25z M141.3,24.4h8.1v-0.7h-7.2V18h6.2v-0.7
					h-6.2v-5.6h7.2V11h-8.1V24.4z"/>
			</g>
		</g>
		<g>
			<g>
				<path fill="#FFFFFF" d="M165.7,24.7V10.7h1.5v14.1H165.7z"/>
			</g>
			<g>
				<path fill="#FFFFFF" d="M167.5,25h-2.1V10.4h2.1V25z M166,24.4h0.9V11H166V24.4z"/>
			</g>
		</g>
		<g>
			<g>
				<path fill="#FFFFFF" d="M184.2,24.7l-7.5-11.3v11.3h-1.5V10.7l1.4,0l7.5,11.3V10.7h1.5v14.1H184.2z"/>
			</g>
			<g>
				<path fill="#FFFFFF" d="M185.9,25H184l-0.1-0.1L177,14.4V25h-2.1V10.4l1.9,0l7,10.6V10.4h2.1V25z M184.3,24.4h1V11h-0.9v11.9
					l-7.9-11.9l-1,0v13.5h0.9v-12L184.3,24.4z"/>
			</g>
		</g>
		<g>
			<g>
				<path fill="#FFFFFF" d="M206.6,12v12.7h-1.5V12h-4.1v-1.3h9.6V12H206.6z"/>
			</g>
			<g>
				<path fill="#FFFFFF" d="M206.9,25h-2.1V12.3h-4.1v-1.9H211v1.9h-4.1V25z M205.4,24.4h0.9V11.7h4.1V11h-9v0.7h4.1V24.4z"/>
			</g>
		</g>
		<g>
			<g>
				<path fill="#FFFFFF" d="M225.5,24.7v-6.4h-6.7v6.4h-1.5V10.7h1.5V17h6.7v-6.3h1.5v14.1H225.5z"/>
			</g>
			<g>
				<path fill="#FFFFFF" d="M227.3,25h-2.1v-6.4h-6.1V25H217V10.4h2.1v6.3h6.1v-6.3h2.1V25z M225.8,24.4h0.9V11h-0.9v6.3h-7.3V11
					h-0.9v13.5h0.9V18h7.3V24.4z"/>
			</g>
		</g>
		<g>
			<g>
				<path fill="#FFFFFF" d="M235,24.7V10.7h8.7V12h-7.2v5h6.2v1.3h-6.2v5.1h7.2v1.3H235z"/>
			</g>
			<g>
				<path fill="#FFFFFF" d="M244,25h-9.3V10.4h9.3v1.9h-7.2v4.4h6.2v1.9h-6.2v4.5h7.2V25z M235.3,24.4h8.1v-0.7h-7.2V18h6.2v-0.7
					h-6.2v-5.6h7.2V11h-8.1V24.4z"/>
			</g>
		</g>
		<g>
			<g>
				<path fill="#FFFFFF" d="M264.9,18.9h-3.7v5.8h-1.5V10.7h5.2c1.3,0,2.4,0.4,3.2,1.1c0.8,0.7,1.2,1.7,1.2,3c0,1.3-0.4,2.3-1.2,3
					S266.2,18.9,264.9,18.9z M264.8,12h-3.6v5.6h3.6c0.9,0,1.6-0.2,2.2-0.7s0.8-1.2,0.8-2.1c0-0.9-0.3-1.6-0.8-2.1
					C266.4,12.2,265.7,12,264.8,12z"/>
			</g>
			<g>
				<path fill="#FFFFFF" d="M261.5,25h-2.1V10.4h5.5c1.4,0,2.5,0.4,3.4,1.2c0.9,0.8,1.3,1.9,1.3,3.2c0,1.3-0.4,2.4-1.3,3.2
					c-0.9,0.8-2,1.2-3.4,1.2h-3.4V25z M260,24.4h0.9v-5.8h4c1.2,0,2.2-0.4,2.9-1.1c0.7-0.7,1.1-1.6,1.1-2.8c0-1.2-0.4-2.1-1.1-2.8
					c-0.7-0.7-1.7-1-2.9-1H260V24.4z M264.8,17.9h-3.9v-6.2h3.9c1,0,1.8,0.3,2.4,0.8c0.6,0.5,0.9,1.3,0.9,2.3c0,1-0.3,1.8-0.9,2.3
					C266.6,17.6,265.8,17.9,264.8,17.9z M261.5,17.3h3.3c0.8,0,1.5-0.2,2-0.6c0.5-0.4,0.7-1,0.7-1.9c0-0.8-0.2-1.4-0.7-1.8
					c-0.5-0.4-1.1-0.6-2-0.6h-3.3V17.3z"/>
			</g>
		</g>
		<g>
			<g>
				<path fill="#FFFFFF" d="M284.1,23.4c-1,1-2.2,1.5-3.6,1.5c-1.4,0-2.5-0.4-3.3-1.2c-0.8-0.8-1.3-1.6-1.4-2.3
					c-0.1-0.8-0.2-2-0.2-3.7c0-1.4,0-2.5,0.1-3.3c0.1-0.8,0.5-1.7,1.4-2.5c0.9-0.8,2-1.3,3.4-1.3c1.4,0,2.5,0.4,3.3,1.2
					c0.8,0.8,1.3,1.6,1.4,2.3s0.2,2,0.2,3.7c0,1.4,0,2.5-0.1,3.3C285.2,21.9,284.8,22.7,284.1,23.4z M282.9,12.9
					c-0.6-0.7-1.5-1-2.4-1s-1.7,0.3-2.3,0.8c-0.5,0.6-0.9,1.1-1,1.7c-0.1,0.6-0.2,1.7-0.2,3.2c0,1.5,0.1,2.6,0.2,3.2s0.4,1.2,1,1.7
					c0.5,0.6,1.3,0.8,2.3,0.8s1.7-0.3,2.3-0.8c0.5-0.6,0.9-1.1,1-1.7s0.2-1.7,0.2-3.2c0-1.5-0.1-2.6-0.2-3.2
					C283.6,13.8,283.3,13.3,282.9,12.9z"/>
			</g>
			<g>
				<path fill="#FFFFFF" d="M280.5,25.1c-1.5,0-2.7-0.4-3.5-1.3c-0.8-0.8-1.3-1.7-1.5-2.5c-0.1-0.8-0.2-2-0.2-3.7
					c0-1.4,0-2.5,0.1-3.4c0.1-0.9,0.6-1.8,1.5-2.7c0.9-0.9,2.1-1.4,3.6-1.4c1.5,0,2.7,0.4,3.5,1.3c0.8,0.8,1.3,1.7,1.5,2.5
					c0.1,0.8,0.2,2,0.2,3.7c0,1.4,0,2.5-0.1,3.4c-0.1,0.9-0.5,1.8-1.3,2.5C283.2,24.6,282,25.1,280.5,25.1z M280.5,10.8
					c-1.3,0-2.4,0.4-3.2,1.2c-0.8,0.8-1.2,1.6-1.3,2.3c-0.1,0.8-0.1,1.9-0.1,3.3c0,1.7,0.1,2.9,0.2,3.6c0.1,0.7,0.6,1.4,1.3,2.2
					c0.7,0.7,1.8,1.1,3.1,1.1c1.4,0,2.5-0.4,3.4-1.4c0.7-0.7,1-1.4,1.1-2.2c0.1-0.8,0.1-1.9,0.1-3.3c0-1.7-0.1-2.9-0.2-3.6
					c-0.1-0.7-0.6-1.4-1.3-2.2C282.8,11.2,281.8,10.8,280.5,10.8z M280.5,23.8c-1.1,0-1.9-0.3-2.5-0.9c-0.6-0.6-0.9-1.2-1.1-1.9
					c-0.1-0.6-0.2-1.7-0.2-3.3c0-1.6,0.1-2.7,0.2-3.3c0.1-0.7,0.5-1.3,1.1-1.9c0.6-0.6,1.4-0.9,2.5-0.9c1.1,0,1.9,0.4,2.6,1.1
					c0.5,0.5,0.8,1.1,0.9,1.7c0.1,0.6,0.2,1.7,0.2,3.3c0,1.6-0.1,2.7-0.2,3.3c-0.1,0.7-0.5,1.3-1.1,1.9
					C282.3,23.5,281.5,23.8,280.5,23.8z M280.5,12.2c-0.9,0-1.6,0.2-2.1,0.7c-0.5,0.5-0.8,1-0.9,1.6c-0.1,0.6-0.2,1.6-0.2,3.2
					c0,1.5,0.1,2.6,0.2,3.2c0.1,0.5,0.4,1.1,0.9,1.6c0.5,0.5,1.2,0.7,2.1,0.7c0.9,0,1.6-0.2,2.1-0.7c0.5-0.5,0.8-1,0.9-1.6
					c0.1-0.6,0.2-1.6,0.2-3.2c0-1.5-0.1-2.6-0.2-3.2c-0.1-0.6-0.3-1-0.7-1.4C282.1,12.5,281.4,12.2,280.5,12.2z"/>
			</g>
		</g>
		<g>
			<g>
				<path fill="#FFFFFF" d="M303.8,24.7l-1.4,0l-3.1-11.3l-3.1,11.3l-1.4,0l-3.6-14.1l1.6,0l2.8,11.4l3.1-11.4h1.3L303,22l2.8-11.4
					l1.6,0L303.8,24.7z"/>
			</g>
			<g>
				<path fill="#FFFFFF" d="M304,25l-1.9,0l-2.9-10.5L296.4,25l-1.9,0l-3.7-14.7l2.2,0l2.5,10.5l2.9-10.5h1.8l2.9,10.5l2.5-10.5
					l2.2,0L304,25z M302.6,24.4l0.9,0L307,11l-1,0l-3,12.3L299.7,11h-0.9l-3.3,12.3l-3-12.3l-1,0l3.4,13.5l0.9,0l3.4-12.1
					L302.6,24.4z"/>
			</g>
		</g>
		<g>
			<g>
				<path fill="#FFFFFF" d="M313.7,24.7V10.7h8.7V12h-7.2v5h6.2v1.3h-6.2v5.1h7.2v1.3H313.7z"/>
			</g>
			<g>
				<path fill="#FFFFFF" d="M322.7,25h-9.3V10.4h9.3v1.9h-7.2v4.4h6.2v1.9h-6.2v4.5h7.2V25z M314,24.4h8.1v-0.7h-7.2V18h6.2v-0.7
					h-6.2v-5.6h7.2V11H314V24.4z"/>
			</g>
		</g>
		<g>
			<g>
				<path fill="#FFFFFF" d="M337.6,24.7l-3.2-6.3H331v6.3h-1.5V10.7h5.4c1.2,0,2.2,0.4,3,1.1c0.8,0.7,1.2,1.7,1.2,2.9
					c0,1-0.3,1.8-0.8,2.5c-0.6,0.7-1.3,1.1-2.2,1.3l3.3,6.4L337.6,24.7z M334.8,12H331v5.2h3.8c0.9,0,1.5-0.2,2-0.7
					c0.5-0.4,0.8-1.1,0.8-1.9c0-0.8-0.3-1.5-0.8-1.9C336.3,12.2,335.6,12,334.8,12z"/>
			</g>
			<g>
				<path fill="#FFFFFF" d="M337.4,25l-3.2-6.3h-2.9V25h-2.1V10.4h5.7c1.3,0,2.4,0.4,3.2,1.1c0.8,0.8,1.3,1.8,1.3,3.1
					c0,1.1-0.3,2-0.9,2.7c-0.5,0.6-1.2,1-2,1.3l3.4,6.5L337.4,25z M330.7,18.2h3.9l3.2,6.3l1.1,0l-3.3-6.3l0.4-0.1
					c0.9-0.2,1.6-0.6,2.1-1.2c0.5-0.6,0.8-1.4,0.8-2.3c0-1.1-0.3-2-1.1-2.6c-0.7-0.6-1.7-1-2.8-1h-5.1v13.5h0.9V18.2z M334.8,17.5
					h-4.1v-5.8h4.1c0.9,0,1.7,0.3,2.2,0.7c0.6,0.5,0.9,1.2,0.9,2.1c0,0.9-0.3,1.7-0.9,2.1C336.4,17.2,335.7,17.5,334.8,17.5z
					 M331.3,16.9h3.5c0.8,0,1.4-0.2,1.8-0.6c0.4-0.4,0.7-0.9,0.7-1.7c0-0.7-0.2-1.3-0.7-1.7c-0.5-0.4-1.1-0.6-1.8-0.6h-3.5V16.9z"/>
			</g>
		</g>
		<g>
			<g>
				<path fill="#FFFFFF" d="M363.3,23.4c-1,1-2.2,1.5-3.6,1.5c-1.4,0-2.5-0.4-3.3-1.2c-0.8-0.8-1.3-1.6-1.4-2.3
					c-0.1-0.8-0.2-2-0.2-3.7c0-1.4,0-2.5,0.1-3.3c0.1-0.8,0.5-1.7,1.4-2.5c0.9-0.8,2-1.3,3.4-1.3c1.4,0,2.5,0.4,3.3,1.2
					c0.8,0.8,1.3,1.6,1.4,2.3s0.2,2,0.2,3.7c0,1.4,0,2.5-0.1,3.3C364.4,21.9,364,22.7,363.3,23.4z M362.1,12.9c-0.6-0.7-1.5-1-2.4-1
					s-1.7,0.3-2.3,0.8c-0.5,0.6-0.9,1.1-1,1.7c-0.1,0.6-0.2,1.7-0.2,3.2c0,1.5,0.1,2.6,0.2,3.2s0.4,1.2,1,1.7
					c0.5,0.6,1.3,0.8,2.3,0.8s1.7-0.3,2.3-0.8c0.5-0.6,0.9-1.1,1-1.7s0.2-1.7,0.2-3.2c0-1.5-0.1-2.6-0.2-3.2
					C362.8,13.8,362.5,13.3,362.1,12.9z"/>
			</g>
			<g>
				<path fill="#FFFFFF" d="M359.7,25.1c-1.5,0-2.7-0.4-3.5-1.3c-0.8-0.8-1.3-1.7-1.5-2.5c-0.1-0.8-0.2-2-0.2-3.7
					c0-1.4,0-2.5,0.1-3.4c0.1-0.9,0.6-1.8,1.5-2.7c0.9-0.9,2.1-1.4,3.6-1.4c1.5,0,2.7,0.4,3.5,1.3c0.8,0.8,1.3,1.7,1.5,2.5
					c0.1,0.8,0.2,2,0.2,3.7c0,1.4,0,2.5-0.1,3.4c-0.1,0.9-0.5,1.8-1.3,2.5C362.5,24.6,361.2,25.1,359.7,25.1z M359.7,10.8
					c-1.3,0-2.4,0.4-3.2,1.2c-0.8,0.8-1.2,1.6-1.3,2.3c-0.1,0.8-0.1,1.9-0.1,3.3c0,1.7,0.1,2.9,0.2,3.6c0.1,0.7,0.6,1.4,1.3,2.2
					c0.7,0.7,1.8,1.1,3.1,1.1c1.4,0,2.5-0.4,3.4-1.4c0.7-0.7,1-1.4,1.1-2.2c0.1-0.8,0.1-1.9,0.1-3.3c0-1.7-0.1-2.9-0.2-3.6
					c-0.1-0.7-0.6-1.4-1.3-2.2C362.1,11.2,361,10.8,359.7,10.8z M359.7,23.8c-1.1,0-1.9-0.3-2.5-0.9c-0.6-0.6-0.9-1.2-1.1-1.9
					c-0.1-0.6-0.2-1.7-0.2-3.3c0-1.6,0.1-2.7,0.2-3.3c0.1-0.7,0.5-1.3,1.1-1.9c0.6-0.6,1.4-0.9,2.5-0.9c1.1,0,1.9,0.4,2.6,1.1
					c0.5,0.5,0.8,1.1,0.9,1.7c0.1,0.6,0.2,1.7,0.2,3.3c0,1.6-0.1,2.7-0.2,3.3c-0.1,0.7-0.5,1.3-1.1,1.9
					C361.6,23.5,360.7,23.8,359.7,23.8z M359.7,12.2c-0.9,0-1.6,0.2-2.1,0.7c-0.5,0.5-0.8,1-0.9,1.6c-0.1,0.6-0.2,1.6-0.2,3.2
					c0,1.5,0.1,2.6,0.2,3.2c0.1,0.5,0.4,1.1,0.9,1.6c0.5,0.5,1.2,0.7,2.1,0.7c0.9,0,1.6-0.2,2.1-0.7c0.5-0.5,0.8-1,0.9-1.6
					c0.1-0.6,0.2-1.6,0.2-3.2c0-1.5-0.1-2.6-0.2-3.2c-0.1-0.6-0.3-1-0.7-1.4C361.3,12.5,360.6,12.2,359.7,12.2z"/>
			</g>
		</g>
		<g>
			<g>
				<path fill="#FFFFFF" d="M373.6,12v5.2h6.2v1.3h-6.2v6.2h-1.5V10.7h8.7V12H373.6z"/>
			</g>
			<g>
				<path fill="#FFFFFF" d="M373.9,25h-2.1V10.4h9.3v1.9h-7.2v4.6h6.2v1.9h-6.2V25z M372.4,24.4h0.9v-6.2h6.2v-0.7h-6.2v-5.8h7.2V11
					h-8.1V24.4z"/>
			</g>
		</g>
		<g>
			<g>
				<path fill="#FFFFFF" d="M396.4,24.7V10.7h1.5v14.1H396.4z"/>
			</g>
			<g>
				<path fill="#FFFFFF" d="M398.2,25h-2.1V10.4h2.1V25z M396.7,24.4h0.9V11h-0.9V24.4z"/>
			</g>
		</g>
		<g>
			<g>
				<path fill="#FFFFFF" d="M414.3,23.4c-0.9,0.9-2.1,1.3-3.6,1.3h-4.8V10.7h4.8c1.5,0,2.6,0.4,3.4,1.1c0.8,0.8,1.2,1.5,1.3,2.4
					c0.1,0.8,0.2,1.9,0.2,3.4v0.8c0,1.2-0.1,2.2-0.2,3C415.2,22.1,414.9,22.8,414.3,23.4z M413.2,13c-0.3-0.4-0.7-0.6-1.2-0.8
					c-0.5-0.2-1-0.2-1.6-0.2h-3.1v11.4h3.1c0.6,0,1.1-0.1,1.6-0.2c0.4-0.2,0.9-0.4,1.3-0.9c0.4-0.4,0.6-1,0.7-1.7
					c0.1-0.7,0.1-1.8,0.1-3v-0.7c0-1.2-0.1-2.1-0.2-2.6C413.8,13.8,413.6,13.4,413.2,13z"/>
			</g>
			<g>
				<path fill="#FFFFFF" d="M410.7,25h-5.1V10.4h5.1c1.6,0,2.8,0.4,3.6,1.2c0.8,0.8,1.3,1.6,1.4,2.5c0.1,0.8,0.2,2,0.2,3.4v0.8
					c0,1.2-0.1,2.3-0.3,3.1c-0.2,0.9-0.6,1.6-1.2,2.3C413.6,24.6,412.3,25,410.7,25z M406.2,24.4h4.5c1.4,0,2.5-0.4,3.3-1.2
					c0.5-0.5,0.9-1.2,1.1-2c0.2-0.8,0.2-1.8,0.2-3v-0.8c0-1.4-0.1-2.6-0.2-3.3c-0.1-0.7-0.6-1.5-1.3-2.2c-0.7-0.7-1.8-1-3.2-1h-4.5
					V24.4z M410.5,23.7h-3.4v-12h3.4c0.6,0,1.2,0.1,1.7,0.3c0.5,0.2,1,0.5,1.3,0.9c0.4,0.4,0.6,0.8,0.8,1.4c0.2,0.5,0.2,1.4,0.2,2.7
					v0.7c0,1.3-0.1,2.3-0.2,3.1c-0.1,0.8-0.4,1.4-0.8,1.9c-0.4,0.4-0.9,0.8-1.4,0.9C411.6,23.6,411.1,23.7,410.5,23.7z M407.7,23.1
					h2.8c0.6,0,1-0.1,1.5-0.2c0.4-0.1,0.8-0.4,1.1-0.8c0.3-0.4,0.6-0.9,0.7-1.6c0.1-0.7,0.1-1.7,0.1-3v-0.7c0-1.2-0.1-2-0.2-2.5
					c-0.1-0.5-0.3-0.8-0.6-1.1c-0.3-0.3-0.7-0.6-1.1-0.7c-0.4-0.2-0.9-0.2-1.5-0.2h-2.8V23.1z"/>
			</g>
		</g>
		<g>
			<g>
				<path fill="#FFFFFF" d="M423.1,24.7V10.7h8.7V12h-7.2v5h6.2v1.3h-6.2v5.1h7.2v1.3H423.1z"/>
			</g>
			<g>
				<path fill="#FFFFFF" d="M432.2,25h-9.3V10.4h9.3v1.9h-7.2v4.4h6.2v1.9h-6.2v4.5h7.2V25z M423.4,24.4h8.1v-0.7h-7.2V18h6.2v-0.7
					h-6.2v-5.6h7.2V11h-8.1V24.4z"/>
			</g>
		</g>
		<g>
			<g>
				<path fill="#FFFFFF" d="M447.1,24.8l-1.1-3.2h-6.1l-1.2,3.2h-1.6l5.2-14.1h1.3l5.2,14.1L447.1,24.8z M443,12.8l-2.6,7.4h5.2
					L443,12.8z"/>
			</g>
			<g>
				<path fill="#FFFFFF" d="M446.9,25.1l-1.1-3.2h-5.7L439,25h-2.2l5.4-14.7h1.7l5.4,14.7L446.9,25.1z M439.7,21.2h6.5l1.1,3.2l1,0
					L443.4,11h-0.8l-5,13.5h1L439.7,21.2z M446,20.5h-6.1l3.1-8.6L446,20.5z M440.8,19.9h4.4l-2.2-6.2L440.8,19.9z"/>
			</g>
		</g>
		<g>
			<g>
				<path fill="#FFFFFF" d="M458.6,24.8c-1.1,0-2-0.1-2.7-0.4c-0.7-0.3-1.4-0.8-2.1-1.4l1-1c0.6,0.6,1.1,1,1.7,1.2
					c0.6,0.2,1.3,0.3,2.1,0.3c1,0,1.8-0.2,2.4-0.7c0.6-0.5,0.9-1.1,0.9-1.9c0-0.8-0.2-1.3-0.5-1.6c-0.3-0.3-0.6-0.5-0.9-0.6
					s-0.6-0.2-1.1-0.3l-1.6-0.3c-1.1-0.2-2-0.6-2.7-1.1c-0.7-0.6-1-1.4-1-2.5c0-1.2,0.4-2.2,1.2-2.9c0.8-0.7,1.9-1.1,3.3-1.1
					c0.9,0,1.7,0.1,2.3,0.4c0.6,0.2,1.3,0.6,1.9,1.2l-1,1c-0.4-0.4-0.9-0.7-1.4-0.9c-0.5-0.2-1.1-0.3-1.8-0.3
					c-0.9,0-1.7,0.2-2.2,0.7s-0.8,1.1-0.8,1.9c0,0.7,0.2,1.2,0.5,1.5c0.3,0.3,0.6,0.5,1,0.6c0.3,0.1,0.7,0.2,1.1,0.3l1.5,0.2
					c0.6,0.1,1.2,0.2,1.5,0.4c0.4,0.2,0.8,0.5,1.4,0.9c0.5,0.5,0.8,1.3,0.8,2.5c0,1.2-0.4,2.2-1.3,2.9S460.1,24.8,458.6,24.8z"/>
			</g>
			<g>
				<path fill="#FFFFFF" d="M458.6,25.1c-1.1,0-2.1-0.1-2.8-0.4c-0.8-0.3-1.5-0.8-2.2-1.5l-0.2-0.2l1.5-1.5l0.2,0.2
					c0.5,0.5,1.1,0.9,1.6,1.1c0.5,0.2,1.2,0.3,2,0.3c1,0,1.7-0.2,2.2-0.6c0.5-0.4,0.8-1,0.8-1.7c0-0.7-0.1-1.1-0.4-1.4
					c-0.3-0.3-0.6-0.4-0.8-0.5c-0.2-0.1-0.6-0.2-1.1-0.2l-1.6-0.3c-1.2-0.2-2.1-0.6-2.8-1.2c-0.7-0.6-1.1-1.6-1.1-2.8
					c0-1.3,0.4-2.3,1.3-3.1c0.9-0.8,2-1.2,3.5-1.2c0.9,0,1.7,0.1,2.4,0.4c0.7,0.2,1.3,0.7,2,1.2l0.2,0.2l-1.4,1.4l-0.2-0.2
					c-0.4-0.4-0.9-0.7-1.3-0.8s-1.1-0.3-1.7-0.3c-0.9,0-1.5,0.2-2,0.6c-0.5,0.4-0.7,1-0.7,1.7c0,0.6,0.1,1,0.4,1.2
					c0.3,0.2,0.6,0.4,0.9,0.6c0.3,0.1,0.7,0.2,1,0.3l1.5,0.2c0.7,0.1,1.2,0.2,1.6,0.4c0.4,0.2,0.9,0.5,1.5,1
					c0.6,0.5,0.9,1.4,0.9,2.7c0,1.3-0.5,2.4-1.4,3.1C461.4,24.8,460.1,25.1,458.6,25.1z M454.2,23c0.6,0.5,1.2,0.9,1.8,1.2
					c0.7,0.3,1.6,0.4,2.6,0.4c1.4,0,2.5-0.3,3.4-1c0.8-0.7,1.2-1.5,1.2-2.7c0-1.1-0.2-1.8-0.7-2.3c-0.5-0.4-1-0.7-1.3-0.9
					c-0.4-0.1-0.9-0.3-1.5-0.3l-1.5-0.2c-0.4-0.1-0.8-0.2-1.1-0.3c-0.4-0.2-0.7-0.4-1.1-0.7c-0.4-0.3-0.6-0.9-0.6-1.7
					c0-0.9,0.3-1.6,0.9-2.1c0.6-0.5,1.4-0.8,2.4-0.8c0.7,0,1.4,0.1,2,0.3c0.5,0.2,0.9,0.4,1.3,0.8l0.5-0.5c-0.5-0.4-1-0.7-1.6-0.9
					c-0.6-0.2-1.3-0.3-2.2-0.3c-1.3,0-2.3,0.3-3.1,1c-0.8,0.7-1.1,1.5-1.1,2.7c0,1,0.3,1.8,0.9,2.3c0.6,0.5,1.5,0.9,2.5,1.1l1.6,0.3
					c0.5,0.1,0.9,0.2,1.2,0.3c0.3,0.1,0.6,0.3,1,0.6c0.4,0.4,0.6,0.9,0.6,1.8c0,0.9-0.3,1.6-1,2.2c-0.6,0.5-1.5,0.8-2.6,0.8
					c-0.9,0-1.6-0.1-2.2-0.4c-0.5-0.2-1.1-0.6-1.6-1.1L454.2,23z"/>
			</g>
		</g>
		<g>
			<g>
				<path fill="#FFFFFF" d="M483.5,12v12.7H482V12H478v-1.3h9.6V12H483.5z"/>
			</g>
			<g>
				<path fill="#FFFFFF" d="M483.8,25h-2.1V12.3h-4.1v-1.9h10.2v1.9h-4.1V25z M482.3,24.4h0.9V11.7h4.1V11h-9v0.7h4.1V24.4z"/>
			</g>
		</g>
		<g>
			<g>
				<path fill="#FFFFFF" d="M502.2,23.4c-1,1-2.2,1.5-3.6,1.5c-1.4,0-2.5-0.4-3.3-1.2c-0.8-0.8-1.3-1.6-1.4-2.3
					c-0.1-0.8-0.2-2-0.2-3.7c0-1.4,0-2.5,0.1-3.3c0.1-0.8,0.5-1.7,1.4-2.5c0.9-0.8,2-1.3,3.4-1.3c1.4,0,2.5,0.4,3.3,1.2
					c0.8,0.8,1.3,1.6,1.4,2.3s0.2,2,0.2,3.7c0,1.4,0,2.5-0.1,3.3C503.3,21.9,502.9,22.7,502.2,23.4z M501,12.9c-0.6-0.7-1.5-1-2.4-1
					s-1.7,0.3-2.3,0.8c-0.5,0.6-0.9,1.1-1,1.7c-0.1,0.6-0.2,1.7-0.2,3.2c0,1.5,0.1,2.6,0.2,3.2s0.4,1.2,1,1.7
					c0.5,0.6,1.3,0.8,2.3,0.8s1.7-0.3,2.3-0.8c0.5-0.6,0.9-1.1,1-1.7s0.2-1.7,0.2-3.2c0-1.5-0.1-2.6-0.2-3.2
					C501.7,13.8,501.5,13.3,501,12.9z"/>
			</g>
			<g>
				<path fill="#FFFFFF" d="M498.6,25.1c-1.5,0-2.7-0.4-3.5-1.3c-0.8-0.8-1.3-1.7-1.5-2.5c-0.1-0.8-0.2-2-0.2-3.7
					c0-1.4,0-2.5,0.1-3.4c0.1-0.9,0.6-1.8,1.5-2.7c0.9-0.9,2.1-1.4,3.6-1.4c1.5,0,2.7,0.4,3.5,1.3c0.8,0.8,1.3,1.7,1.5,2.5
					c0.1,0.8,0.2,2,0.2,3.7c0,1.4,0,2.5-0.1,3.4c-0.1,0.9-0.5,1.8-1.3,2.5C501.4,24.6,500.1,25.1,498.6,25.1z M498.6,10.8
					c-1.3,0-2.4,0.4-3.2,1.2c-0.8,0.8-1.2,1.6-1.3,2.3c-0.1,0.8-0.1,1.9-0.1,3.3c0,1.7,0.1,2.9,0.2,3.6c0.1,0.7,0.6,1.4,1.3,2.2
					c0.7,0.7,1.8,1.1,3.1,1.1c1.4,0,2.5-0.4,3.4-1.4c0.7-0.7,1-1.4,1.1-2.2c0.1-0.8,0.1-1.9,0.1-3.3c0-1.7-0.1-2.9-0.2-3.6
					c-0.1-0.7-0.6-1.4-1.3-2.2C501,11.2,499.9,10.8,498.6,10.8z M498.6,23.8c-1.1,0-1.9-0.3-2.5-0.9c-0.6-0.6-0.9-1.2-1.1-1.9
					c-0.1-0.6-0.2-1.7-0.2-3.3c0-1.6,0.1-2.7,0.2-3.3c0.1-0.7,0.5-1.3,1.1-1.9c0.6-0.6,1.4-0.9,2.5-0.9c1.1,0,1.9,0.4,2.6,1.1
					c0.5,0.5,0.8,1.1,0.9,1.7c0.1,0.6,0.2,1.7,0.2,3.3c0,1.6-0.1,2.7-0.2,3.3c-0.1,0.7-0.5,1.3-1.1,1.9
					C500.5,23.5,499.6,23.8,498.6,23.8z M498.6,12.2c-0.9,0-1.6,0.2-2.1,0.7c-0.5,0.5-0.8,1-0.9,1.6c-0.1,0.6-0.2,1.6-0.2,3.2
					c0,1.5,0.1,2.6,0.2,3.2c0.1,0.5,0.4,1.1,0.9,1.6c0.5,0.5,1.2,0.7,2.1,0.7c0.9,0,1.6-0.2,2.1-0.7c0.5-0.5,0.8-1,0.9-1.6
					c0.1-0.6,0.2-1.6,0.2-3.2c0-1.5-0.1-2.6-0.2-3.2c-0.1-0.6-0.3-1-0.7-1.4C500.2,12.5,499.5,12.2,498.6,12.2z"/>
			</g>
		</g>
		<g>
			<g>
				<path fill="#FFFFFF" d="M524,12v12.7h-1.5V12h-4.1v-1.3h9.6V12H524z"/>
			</g>
			<g>
				<path fill="#FFFFFF" d="M524.3,25h-2.1V12.3h-4.1v-1.9h10.2v1.9h-4.1V25z M522.8,24.4h0.9V11.7h4.1V11h-9v0.7h4.1V24.4z"/>
			</g>
		</g>
		<g>
			<g>
				<path fill="#FFFFFF" d="M534.6,24.7V10.7h8.7V12h-7.2v5h6.2v1.3h-6.2v5.1h7.2v1.3H534.6z"/>
			</g>
			<g>
				<path fill="#FFFFFF" d="M543.7,25h-9.3V10.4h9.3v1.9h-7.2v4.4h6.2v1.9h-6.2v4.5h7.2V25z M534.9,24.4h8.1v-0.7h-7.2V18h6.2v-0.7
					h-6.2v-5.6h7.2V11h-8.1V24.4z"/>
			</g>
		</g>
		<g>
			<g>
				<path fill="#FFFFFF" d="M550.5,24.7V10.7h1.5v12.7h7.2v1.3H550.5z"/>
			</g>
			<g>
				<path fill="#FFFFFF" d="M559.4,25h-9.3V10.4h2.1v12.7h7.2V25z M550.8,24.4h8.1v-0.7h-7.2V11h-0.9V24.4z"/>
			</g>
		</g>
		<g>
			<g>
				<path fill="#FFFFFF" d="M565.7,24.7V10.7h1.5v12.7h7.2v1.3H565.7z"/>
			</g>
			<g>
				<path fill="#FFFFFF" d="M574.7,25h-9.3V10.4h2.1v12.7h7.2V25z M566,24.4h8.1v-0.7h-7.2V11H566V24.4z"/>
			</g>
		</g>
		<g>
			<g>
				<path fill="#FFFFFF" d="M593.5,24.8c-1.1,0-2-0.1-2.7-0.4c-0.7-0.3-1.4-0.8-2.1-1.4l1-1c0.6,0.6,1.1,1,1.7,1.2
					c0.6,0.2,1.3,0.3,2.1,0.3c1,0,1.8-0.2,2.4-0.7c0.6-0.5,0.9-1.1,0.9-1.9c0-0.8-0.2-1.3-0.5-1.6c-0.3-0.3-0.6-0.5-0.9-0.6
					s-0.6-0.2-1.1-0.3l-1.6-0.3c-1.1-0.2-2-0.6-2.7-1.1c-0.7-0.6-1-1.4-1-2.5c0-1.2,0.4-2.2,1.2-2.9c0.8-0.7,1.9-1.1,3.3-1.1
					c0.9,0,1.7,0.1,2.3,0.4s1.3,0.6,1.9,1.2l-1,1c-0.4-0.4-0.9-0.7-1.4-0.9s-1.1-0.3-1.8-0.3c-0.9,0-1.7,0.2-2.2,0.7
					s-0.8,1.1-0.8,1.9c0,0.7,0.2,1.2,0.5,1.5c0.3,0.3,0.6,0.5,1,0.6s0.7,0.2,1.1,0.3l1.5,0.2c0.6,0.1,1.2,0.2,1.5,0.4
					c0.4,0.2,0.8,0.5,1.4,0.9s0.8,1.3,0.8,2.5c0,1.2-0.4,2.2-1.3,2.9S595,24.8,593.5,24.8z"/>
			</g>
			<g>
				<path fill="#FFFFFF" d="M593.5,25.1c-1.1,0-2.1-0.1-2.8-0.4c-0.8-0.3-1.5-0.8-2.2-1.5l-0.2-0.2l1.5-1.5l0.2,0.2
					c0.5,0.5,1.1,0.9,1.6,1.1c0.5,0.2,1.2,0.3,2,0.3c1,0,1.7-0.2,2.2-0.6c0.5-0.4,0.8-1,0.8-1.7c0-0.7-0.1-1.1-0.4-1.4
					c-0.3-0.3-0.6-0.4-0.8-0.5c-0.2-0.1-0.6-0.2-1.1-0.2l-1.6-0.3c-1.2-0.2-2.1-0.6-2.8-1.2c-0.7-0.6-1.1-1.6-1.1-2.8
					c0-1.3,0.4-2.3,1.3-3.1c0.9-0.8,2-1.2,3.5-1.2c0.9,0,1.7,0.1,2.4,0.4c0.7,0.3,1.3,0.7,2,1.2l0.2,0.2l-1.4,1.4l-0.2-0.2
					c-0.4-0.4-0.9-0.7-1.3-0.8s-1.1-0.3-1.7-0.3c-0.9,0-1.5,0.2-2,0.6c-0.5,0.4-0.7,1-0.7,1.7c0,0.6,0.1,1,0.4,1.2
					c0.3,0.2,0.6,0.4,0.9,0.6c0.3,0.1,0.7,0.2,1,0.3l1.5,0.2c0.7,0.1,1.2,0.2,1.6,0.4c0.4,0.2,0.9,0.5,1.5,1
					c0.6,0.5,0.9,1.4,0.9,2.7c0,1.3-0.5,2.4-1.4,3.1C596.3,24.8,595,25.1,593.5,25.1z M589.1,23c0.6,0.5,1.2,0.9,1.8,1.2
					c0.7,0.3,1.6,0.4,2.6,0.4c1.4,0,2.5-0.3,3.4-1c0.8-0.7,1.2-1.5,1.2-2.7c0-1.1-0.2-1.8-0.7-2.3c-0.5-0.4-1-0.7-1.3-0.9
					c-0.4-0.1-0.9-0.3-1.5-0.3l-1.5-0.2c-0.4-0.1-0.8-0.2-1.1-0.3c-0.4-0.1-0.7-0.4-1.1-0.7c-0.4-0.3-0.6-0.9-0.6-1.7
					c0-0.9,0.3-1.6,0.9-2.1c0.6-0.5,1.4-0.8,2.4-0.8c0.7,0,1.4,0.1,2,0.3c0.5,0.2,0.9,0.4,1.3,0.8l0.5-0.5c-0.5-0.4-1-0.7-1.6-0.9
					c-0.6-0.2-1.3-0.3-2.2-0.3c-1.3,0-2.3,0.3-3.1,1c-0.8,0.7-1.1,1.5-1.1,2.7c0,1,0.3,1.8,0.9,2.3c0.6,0.5,1.5,0.9,2.5,1.1l1.6,0.3
					c0.5,0.1,0.9,0.2,1.2,0.3c0.3,0.1,0.6,0.3,1,0.6c0.4,0.4,0.6,0.9,0.6,1.8c0,0.9-0.3,1.6-1,2.2c-0.6,0.5-1.5,0.8-2.6,0.8
					c-0.9,0-1.6-0.1-2.2-0.4c-0.5-0.2-1.1-0.6-1.6-1.1L589.1,23z"/>
			</g>
		</g>
		<g>
			<g>
				<path fill="#FFFFFF" d="M609.6,12v12.7h-1.5V12H604v-1.3h9.6V12H609.6z"/>
			</g>
			<g>
				<path fill="#FFFFFF" d="M609.9,25h-2.1V12.3h-4.1v-1.9h10.2v1.9h-4.1V25z M608.4,24.4h0.9V11.7h4.1V11h-9v0.7h4.1V24.4z"/>
			</g>
		</g>
		<g>
			<g>
				<path fill="#FFFFFF" d="M628.2,23.4c-1,1-2.2,1.5-3.6,1.5s-2.5-0.4-3.3-1.2c-0.8-0.8-1.3-1.6-1.4-2.3c-0.1-0.8-0.2-2-0.2-3.7
					c0-1.4,0-2.5,0.1-3.3s0.5-1.7,1.4-2.5s2-1.3,3.4-1.3s2.5,0.4,3.3,1.2c0.8,0.8,1.3,1.6,1.4,2.3s0.2,2,0.2,3.7
					c0,1.4,0,2.5-0.1,3.3C629.3,21.9,628.9,22.7,628.2,23.4z M627,12.9c-0.6-0.7-1.5-1-2.4-1s-1.7,0.3-2.3,0.8
					c-0.5,0.6-0.9,1.1-1,1.7c-0.1,0.6-0.2,1.7-0.2,3.2c0,1.5,0.1,2.6,0.2,3.2c0.1,0.6,0.4,1.2,1,1.7c0.5,0.6,1.3,0.8,2.3,0.8
					s1.7-0.3,2.3-0.8c0.5-0.6,0.9-1.1,1-1.7c0.1-0.6,0.2-1.7,0.2-3.2c0-1.5-0.1-2.6-0.2-3.2C627.8,13.8,627.5,13.3,627,12.9z"/>
			</g>
			<g>
				<path fill="#FFFFFF" d="M624.6,25.1c-1.5,0-2.7-0.4-3.5-1.3c-0.8-0.8-1.3-1.7-1.5-2.5c-0.1-0.8-0.2-2-0.2-3.7
					c0-1.4,0-2.5,0.1-3.4c0.1-0.9,0.6-1.8,1.5-2.7c0.9-0.9,2.1-1.4,3.6-1.4c1.5,0,2.7,0.4,3.5,1.3c0.8,0.8,1.3,1.7,1.5,2.5
					c0.1,0.8,0.2,2,0.2,3.7c0,1.4,0,2.5-0.1,3.4c-0.1,0.9-0.5,1.8-1.3,2.5C627.4,24.6,626.1,25.1,624.6,25.1z M624.6,10.8
					c-1.3,0-2.4,0.4-3.2,1.2c-0.8,0.8-1.2,1.6-1.3,2.3c-0.1,0.8-0.1,1.9-0.1,3.3c0,1.7,0.1,2.9,0.2,3.6c0.1,0.7,0.6,1.4,1.3,2.2
					c0.7,0.7,1.8,1.1,3.1,1.1c1.4,0,2.5-0.4,3.4-1.4c0.7-0.7,1-1.4,1.1-2.2c0.1-0.8,0.1-1.9,0.1-3.3c0-1.7-0.1-2.9-0.2-3.6
					c-0.1-0.7-0.6-1.4-1.3-2.2C627,11.2,625.9,10.8,624.6,10.8z M624.6,23.8c-1.1,0-1.9-0.3-2.5-0.9c-0.6-0.6-0.9-1.2-1.1-1.9
					c-0.1-0.6-0.2-1.7-0.2-3.3c0-1.6,0.1-2.7,0.2-3.3c0.1-0.7,0.5-1.3,1.1-1.9c0.6-0.6,1.4-0.9,2.5-0.9c1.1,0,1.9,0.4,2.6,1.1
					c0.5,0.5,0.8,1.1,0.9,1.7c0.1,0.6,0.2,1.7,0.2,3.3c0,1.6-0.1,2.7-0.2,3.3c-0.1,0.7-0.5,1.3-1.1,1.9
					C626.5,23.5,625.7,23.8,624.6,23.8z M624.6,12.2c-0.9,0-1.6,0.2-2.1,0.7c-0.5,0.5-0.8,1-0.9,1.6c-0.1,0.6-0.2,1.6-0.2,3.2
					c0,1.5,0.1,2.6,0.2,3.2c0.1,0.5,0.4,1.1,0.9,1.6c0.5,0.5,1.2,0.7,2.1,0.7c0.9,0,1.6-0.2,2.1-0.7c0.5-0.5,0.8-1,0.9-1.6
					c0.1-0.6,0.2-1.7,0.2-3.2c0-1.5-0.1-2.6-0.2-3.2c-0.1-0.6-0.3-1-0.7-1.4C626.2,12.5,625.5,12.2,624.6,12.2z"/>
			</g>
		</g>
		<g>
			<g>
				<path fill="#FFFFFF" d="M645.1,24.7l-3.2-6.3h-3.4v6.3H637V10.7h5.4c1.2,0,2.2,0.4,3,1.1s1.2,1.7,1.2,2.9c0,1-0.3,1.8-0.8,2.5
					c-0.6,0.7-1.3,1.1-2.2,1.3l3.3,6.4L645.1,24.7z M642.3,12h-3.8v5.2h3.8c0.9,0,1.5-0.2,2-0.7c0.5-0.4,0.8-1.1,0.8-1.9
					c0-0.8-0.3-1.5-0.8-1.9C643.8,12.2,643.1,12,642.3,12z"/>
			</g>
			<g>
				<path fill="#FFFFFF" d="M644.9,25l-3.2-6.3h-2.9V25h-2.1V10.4h5.7c1.3,0,2.4,0.4,3.2,1.1c0.8,0.8,1.3,1.8,1.3,3.1
					c0,1.1-0.3,2-0.9,2.7c-0.5,0.6-1.2,1-2,1.3l3.4,6.5L644.9,25z M638.2,18.2h3.9l3.2,6.3l1.1,0l-3.3-6.3l0.4-0.1
					c0.9-0.2,1.6-0.6,2.1-1.2c0.5-0.6,0.8-1.4,0.8-2.3c0-1.1-0.3-2-1.1-2.6c-0.7-0.6-1.7-1-2.8-1h-5.1v13.5h0.9V18.2z M642.3,17.5
					h-4.1v-5.8h4.1c0.9,0,1.7,0.3,2.2,0.7c0.6,0.5,0.9,1.2,0.9,2.1c0,0.9-0.3,1.7-0.9,2.1C644,17.2,643.2,17.5,642.3,17.5z
					 M638.8,16.9h3.5c0.8,0,1.4-0.2,1.9-0.6c0.4-0.4,0.7-0.9,0.7-1.7c0-0.7-0.2-1.3-0.7-1.7c-0.5-0.4-1.1-0.6-1.8-0.6h-3.5V16.9z"/>
			</g>
		</g>
		<g>
			<g>
				<path fill="#FFFFFF" d="M653.9,24.7V10.7h1.5v14.1H653.9z"/>
			</g>
			<g>
				<path fill="#FFFFFF" d="M655.7,25h-2.1V10.4h2.1V25z M654.2,24.4h0.9V11h-0.9V24.4z"/>
			</g>
		</g>
		<g>
			<g>
				<path fill="#FFFFFF" d="M663.5,24.7V10.7h8.7V12H665v5h6.2v1.3H665v5.1h7.2v1.3H663.5z"/>
			</g>
			<g>
				<path fill="#FFFFFF" d="M672.5,25h-9.3V10.4h9.3v1.9h-7.2v4.4h6.2v1.9h-6.2v4.5h7.2V25z M663.8,24.4h8.1v-0.7h-7.2V18h6.2v-0.7
					h-6.2v-5.6h7.2V11h-8.1V24.4z"/>
			</g>
		</g>
		<g>
			<g>
				<path fill="#FFFFFF" d="M682.9,24.8c-1.1,0-2-0.1-2.7-0.4c-0.7-0.3-1.4-0.8-2.1-1.4l1-1c0.6,0.6,1.1,1,1.7,1.2
					c0.6,0.2,1.3,0.3,2.1,0.3c1,0,1.8-0.2,2.4-0.7c0.6-0.5,0.9-1.1,0.9-1.9c0-0.8-0.2-1.3-0.5-1.6c-0.3-0.3-0.6-0.5-0.9-0.6
					s-0.6-0.2-1.1-0.3l-1.6-0.3c-1.1-0.2-2-0.6-2.7-1.1c-0.7-0.6-1-1.4-1-2.5c0-1.2,0.4-2.2,1.2-2.9c0.8-0.7,1.9-1.1,3.3-1.1
					c0.9,0,1.7,0.1,2.3,0.4s1.3,0.6,1.9,1.2l-1,1c-0.4-0.4-0.9-0.7-1.4-0.9s-1.1-0.3-1.8-0.3c-0.9,0-1.7,0.2-2.2,0.7
					s-0.8,1.1-0.8,1.9c0,0.7,0.2,1.2,0.5,1.5c0.3,0.3,0.6,0.5,1,0.6s0.7,0.2,1.1,0.3l1.5,0.2c0.6,0.1,1.2,0.2,1.5,0.4
					c0.4,0.2,0.8,0.5,1.4,0.9s0.8,1.3,0.8,2.5c0,1.2-0.4,2.2-1.3,2.9S684.4,24.8,682.9,24.8z"/>
			</g>
			<g>
				<path fill="#FFFFFF" d="M682.9,25.1c-1.1,0-2.1-0.1-2.8-0.4c-0.8-0.3-1.5-0.8-2.2-1.5l-0.2-0.2l1.5-1.5l0.2,0.2
					c0.5,0.5,1.1,0.9,1.6,1.1c0.5,0.2,1.2,0.3,2,0.3c1,0,1.7-0.2,2.2-0.6c0.5-0.4,0.8-1,0.8-1.7c0-0.7-0.1-1.1-0.4-1.4
					c-0.3-0.3-0.6-0.4-0.8-0.5c-0.2-0.1-0.6-0.2-1.1-0.2l-1.6-0.3c-1.2-0.2-2.1-0.6-2.8-1.2c-0.7-0.6-1.1-1.6-1.1-2.8
					c0-1.3,0.4-2.3,1.3-3.1c0.9-0.8,2-1.2,3.5-1.2c0.9,0,1.7,0.1,2.4,0.4c0.7,0.3,1.3,0.7,2,1.2l0.2,0.2l-1.4,1.4l-0.2-0.2
					c-0.4-0.4-0.9-0.7-1.3-0.8s-1.1-0.3-1.7-0.3c-0.9,0-1.5,0.2-2,0.6c-0.5,0.4-0.7,1-0.7,1.7c0,0.6,0.1,1,0.4,1.2
					c0.3,0.2,0.6,0.4,0.9,0.6c0.3,0.1,0.7,0.2,1,0.3l1.5,0.2c0.7,0.1,1.2,0.2,1.6,0.4c0.4,0.2,0.9,0.5,1.5,1
					c0.6,0.5,0.9,1.4,0.9,2.7c0,1.3-0.5,2.4-1.4,3.1C685.7,24.8,684.4,25.1,682.9,25.1z M678.5,23c0.6,0.5,1.2,0.9,1.8,1.2
					c0.7,0.3,1.6,0.4,2.6,0.4c1.4,0,2.5-0.3,3.4-1c0.8-0.7,1.2-1.5,1.2-2.7c0-1.1-0.2-1.8-0.7-2.3c-0.5-0.4-1-0.7-1.3-0.9
					c-0.4-0.1-0.9-0.3-1.5-0.3l-1.5-0.2c-0.4-0.1-0.8-0.2-1.1-0.3c-0.4-0.1-0.7-0.4-1.1-0.7c-0.4-0.3-0.6-0.9-0.6-1.7
					c0-0.9,0.3-1.6,0.9-2.1c0.6-0.5,1.4-0.8,2.4-0.8c0.7,0,1.4,0.1,2,0.3c0.5,0.2,0.9,0.4,1.3,0.8l0.5-0.5c-0.5-0.4-1-0.7-1.6-0.9
					c-0.6-0.2-1.3-0.3-2.2-0.3c-1.3,0-2.3,0.3-3.1,1c-0.8,0.7-1.1,1.5-1.1,2.7c0,1,0.3,1.8,0.9,2.3c0.6,0.5,1.5,0.9,2.5,1.1l1.6,0.3
					c0.5,0.1,0.9,0.2,1.2,0.3c0.3,0.1,0.6,0.3,1,0.6c0.4,0.4,0.6,0.9,0.6,1.8c0,0.9-0.3,1.6-1,2.2c-0.6,0.5-1.5,0.8-2.6,0.8
					c-0.9,0-1.6-0.1-2.2-0.4c-0.5-0.2-1.1-0.6-1.6-1.1L678.5,23z"/>
			</g>
		</g>
		<g>
			<g>
				<path fill="#FFFFFF" d="M707.8,12v12.7h-1.5V12h-4.1v-1.3h9.6V12H707.8z"/>
			</g>
			<g>
				<path fill="#FFFFFF" d="M708.1,25H706V12.3H702v-1.9h10.2v1.9h-4.1V25z M706.6,24.4h0.9V11.7h4.1V11h-9v0.7h4.1V24.4z"/>
			</g>
		</g>
		<g>
			<g>
				<path fill="#FFFFFF" d="M726.7,24.7v-6.4H720v6.4h-1.5V10.7h1.5V17h6.7v-6.3h1.5v14.1H726.7z"/>
			</g>
			<g>
				<path fill="#FFFFFF" d="M728.5,25h-2.1v-6.4h-6.1V25h-2.1V10.4h2.1v6.3h6.1v-6.3h2.1V25z M727,24.4h0.9V11H727v6.3h-7.3V11h-0.9
					v13.5h0.9V18h7.3V24.4z"/>
			</g>
		</g>
		<g>
			<g>
				<path fill="#FFFFFF" d="M744.4,24.8l-1.1-3.2h-6.1l-1.2,3.2h-1.6l5.2-14.1h1.3l5.2,14.1L744.4,24.8z M740.2,12.8l-2.6,7.4h5.2
					L740.2,12.8z"/>
			</g>
			<g>
				<path fill="#FFFFFF" d="M744.2,25.1l-1.1-3.2h-5.7l-1.2,3.2H734l5.4-14.7h1.7l5.4,14.7L744.2,25.1z M736.9,21.2h6.5l1.1,3.2l1,0
					L740.6,11h-0.8l-5,13.5h1L736.9,21.2z M743.3,20.5h-6.1l3.1-8.6L743.3,20.5z M738,19.9h4.4l-2.2-6.2L738,19.9z"/>
			</g>
		</g>
		<g>
			<g>
				<path fill="#FFFFFF" d="M756.4,12v12.7h-1.5V12h-4.1v-1.3h9.6V12H756.4z"/>
			</g>
			<g>
				<path fill="#FFFFFF" d="M756.7,25h-2.1V12.3h-4.1v-1.9h10.2v1.9h-4.1V25z M755.2,24.4h0.9V11.7h4.1V11h-9v0.7h4.1V24.4z"/>
			</g>
		</g>
		<g>
			<g>
				<path fill="#FFFFFF" d="M780.3,24.8c-1.4,0-2.5-0.4-3.3-1.2c-0.8-0.8-1.3-1.6-1.4-2.3c-0.1-0.8-0.2-2-0.2-3.7
					c0-1.4,0-2.5,0.1-3.3s0.5-1.7,1.4-2.5s2-1.3,3.4-1.3c1.3,0,2.4,0.4,3.2,1.1c0.9,0.7,1.4,1.8,1.7,3.1h-1.5
					c-0.2-0.9-0.6-1.6-1.2-2.1s-1.3-0.8-2.2-0.8c-1,0-1.7,0.3-2.3,0.8c-0.5,0.5-0.9,1.1-1,1.7c-0.1,0.6-0.2,1.7-0.2,3.3
					c0,1.5,0.1,2.6,0.2,3.2c0.1,0.6,0.4,1.2,1,1.7s1.3,0.8,2.3,0.8c0.9,0,1.6-0.3,2.2-0.8c0.6-0.5,1-1.2,1.2-2.1h1.5
					c-0.2,1.3-0.8,2.3-1.7,3.1S781.5,24.8,780.3,24.8z"/>
			</g>
			<g>
				<path fill="#FFFFFF" d="M780.3,25.1c-1.5,0-2.7-0.4-3.5-1.3c-0.8-0.8-1.3-1.7-1.5-2.5c-0.1-0.8-0.2-2-0.2-3.7
					c0-1.4,0-2.5,0.1-3.4c0.1-0.9,0.6-1.8,1.5-2.7c0.9-0.9,2.1-1.4,3.6-1.4c1.3,0,2.5,0.4,3.4,1.2c0.9,0.8,1.5,1.9,1.8,3.3l0.1,0.4
					h-2.1l-0.1-0.2c-0.2-0.8-0.5-1.5-1.1-1.9s-1.2-0.7-2-0.7c-0.9,0-1.6,0.2-2.1,0.7c-0.5,0.5-0.8,1-0.9,1.6
					c-0.1,0.6-0.2,1.7-0.2,3.2c0,1.5,0.1,2.6,0.2,3.2c0.1,0.6,0.4,1.1,0.9,1.6c0.5,0.5,1.2,0.7,2.1,0.7c0.8,0,1.5-0.2,2-0.7
					s0.9-1.1,1.1-1.9l0.1-0.2h2.1l-0.1,0.4c-0.2,1.4-0.8,2.5-1.8,3.3C782.8,24.7,781.6,25.1,780.3,25.1z M780.3,10.8
					c-1.3,0-2.4,0.4-3.2,1.2c-0.8,0.8-1.2,1.6-1.3,2.3c-0.1,0.8-0.1,1.9-0.1,3.3c0,1.7,0.1,2.9,0.2,3.6c0.1,0.7,0.6,1.4,1.3,2.2
					c0.7,0.7,1.8,1.1,3.1,1.1c1.2,0,2.2-0.4,3-1c0.7-0.6,1.2-1.5,1.5-2.5h-0.9c-0.2,0.8-0.6,1.5-1.2,2c-0.6,0.6-1.4,0.8-2.4,0.8
					c-1.1,0-1.9-0.3-2.5-0.9c-0.6-0.6-0.9-1.2-1-1.9c-0.1-0.6-0.2-1.7-0.2-3.3c0-1.6,0.1-2.7,0.2-3.3c0.1-0.7,0.5-1.3,1-1.9
					c0.6-0.6,1.4-0.9,2.5-0.9c1,0,1.8,0.3,2.4,0.8c0.6,0.5,1,1.2,1.2,2h0.9c-0.3-1.1-0.8-1.9-1.5-2.6
					C782.5,11.2,781.5,10.8,780.3,10.8z"/>
			</g>
		</g>
		<g>
			<g>
				<path fill="#FFFFFF" d="M800.5,24.7l-3.2-6.3h-3.4v6.3h-1.5V10.7h5.4c1.2,0,2.2,0.4,3,1.1s1.2,1.7,1.2,2.9c0,1-0.3,1.8-0.8,2.5
					c-0.6,0.7-1.3,1.1-2.2,1.3l3.3,6.4L800.5,24.7z M797.7,12h-3.8v5.2h3.8c0.9,0,1.5-0.2,2-0.7c0.5-0.4,0.8-1.1,0.8-1.9
					c0-0.8-0.3-1.5-0.8-1.9C799.2,12.2,798.5,12,797.7,12z"/>
			</g>
			<g>
				<path fill="#FFFFFF" d="M800.3,25l-3.2-6.3h-2.9V25h-2.1V10.4h5.7c1.3,0,2.4,0.4,3.2,1.1c0.8,0.8,1.3,1.8,1.3,3.1
					c0,1.1-0.3,2-0.9,2.7c-0.5,0.6-1.2,1-2,1.3l3.4,6.5L800.3,25z M793.6,18.2h3.9l3.2,6.3l1.1,0l-3.3-6.3l0.4-0.1
					c0.9-0.2,1.6-0.6,2.1-1.2c0.5-0.6,0.8-1.4,0.8-2.3c0-1.1-0.3-2-1.1-2.6c-0.7-0.6-1.7-1-2.8-1h-5.1v13.5h0.9V18.2z M797.7,17.5
					h-4.1v-5.8h4.1c0.9,0,1.7,0.3,2.2,0.7c0.6,0.5,0.9,1.2,0.9,2.1c0,0.9-0.3,1.7-0.9,2.1C799.4,17.2,798.6,17.5,797.7,17.5z
					 M794.2,16.9h3.5c0.8,0,1.4-0.2,1.9-0.6c0.4-0.4,0.7-0.9,0.7-1.7c0-0.7-0.2-1.3-0.7-1.7c-0.5-0.4-1.1-0.6-1.8-0.6h-3.5V16.9z"/>
			</g>
		</g>
		<g>
			<g>
				<path fill="#FFFFFF" d="M809.3,24.7V10.7h8.7V12h-7.2v5h6.2v1.3h-6.2v5.1h7.2v1.3H809.3z"/>
			</g>
			<g>
				<path fill="#FFFFFF" d="M818.4,25H809V10.4h9.3v1.9h-7.2v4.4h6.2v1.9h-6.2v4.5h7.2V25z M809.6,24.4h8.1v-0.7h-7.2V18h6.2v-0.7
					h-6.2v-5.6h7.2V11h-8.1V24.4z"/>
			</g>
		</g>
		<g>
			<g>
				<path fill="#FFFFFF" d="M833.3,24.8l-1.1-3.2h-6.1l-1.2,3.2h-1.6l5.2-14.1h1.3l5.2,14.1L833.3,24.8z M829.2,12.8l-2.6,7.4h5.2
					L829.2,12.8z"/>
			</g>
			<g>
				<path fill="#FFFFFF" d="M833.1,25.1l-1.1-3.2h-5.7l-1.2,3.2h-2.2l5.4-14.7h1.7l5.4,14.7L833.1,25.1z M825.9,21.2h6.5l1.1,3.2
					l1,0L829.6,11h-0.8l-5,13.5h1L825.9,21.2z M832.2,20.5h-6.1l3.1-8.6L832.2,20.5z M827,19.9h4.4l-2.2-6.2L827,19.9z"/>
			</g>
		</g>
		<g>
			<g>
				<path fill="#FFFFFF" d="M845.3,12v12.7h-1.5V12h-4.1v-1.3h9.6V12H845.3z"/>
			</g>
			<g>
				<path fill="#FFFFFF" d="M845.6,25h-2.1V12.3h-4.1v-1.9h10.2v1.9h-4.1V25z M844.1,24.4h0.9V11.7h4.1V11h-9v0.7h4.1V24.4z"/>
			</g>
		</g>
		<g>
			<g>
				<path fill="#FFFFFF" d="M855.9,24.7V10.7h8.7V12h-7.2v5h6.2v1.3h-6.2v5.1h7.2v1.3H855.9z"/>
			</g>
			<g>
				<path fill="#FFFFFF" d="M865,25h-9.3V10.4h9.3v1.9h-7.2v4.4h6.2v1.9h-6.2v4.5h7.2V25z M856.2,24.4h8.1v-0.7h-7.2V18h6.2v-0.7
					h-6.2v-5.6h7.2V11h-8.1V24.4z"/>
			</g>
		</g>
		<g>
			<g>
				<path fill="#FFFFFF" d="M880.6,24.7V10.7h8.7V12h-7.2v5h6.2v1.3h-6.2v5.1h7.2v1.3H880.6z"/>
			</g>
			<g>
				<path fill="#FFFFFF" d="M889.7,25h-9.3V10.4h9.3v1.9h-7.2v4.4h6.2v1.9h-6.2v4.5h7.2V25z M880.9,24.4h8.1v-0.7h-7.2V18h6.2v-0.7
					h-6.2v-5.6h7.2V11h-8.1V24.4z"/>
			</g>
		</g>
		<g>
			<g>
				<path fill="#FFFFFF" d="M905.4,24.7l-7.5-11.3v11.3h-1.5V10.7l1.4,0l7.5,11.3V10.7h1.5v14.1H905.4z"/>
			</g>
			<g>
				<path fill="#FFFFFF" d="M907.1,25h-1.9l-0.1-0.1l-6.9-10.5V25h-2.1V10.4l1.9,0l7,10.6V10.4h2.1V25z M905.6,24.4h1V11h-0.9v11.9
					l-7.9-11.9l-1,0v13.5h0.9v-12L905.6,24.4z"/>
			</g>
		</g>
		<g>
			<g>
				<path fill="#FFFFFF" d="M923,23.2c-1,1.1-2.3,1.6-3.8,1.6c-1.4,0-2.5-0.4-3.3-1.2c-0.8-0.8-1.3-1.6-1.4-2.3
					c-0.1-0.8-0.2-2-0.2-3.7c0-1.4,0-2.5,0.1-3.3c0.1-0.8,0.5-1.7,1.4-2.5c0.9-0.8,2-1.3,3.4-1.3c1.3,0,2.4,0.4,3.3,1.1
					c0.9,0.8,1.4,1.8,1.6,3.1h-1.5c-0.2-0.9-0.6-1.6-1.2-2.1s-1.3-0.8-2.2-0.8c-1,0-1.7,0.3-2.3,0.8c-0.5,0.6-0.9,1.1-1,1.7
					c-0.1,0.6-0.2,1.7-0.2,3.2c0,1.5,0.1,2.6,0.2,3.2c0.1,0.6,0.4,1.2,1,1.7s1.3,0.8,2.3,0.8c1.1,0,2-0.4,2.6-1.1s0.9-1.6,0.9-2.7
					v-1.1h-3.5v-1.3h5v2.2c0,0.8-0.1,1.5-0.3,2.1C923.7,22.2,923.4,22.8,923,23.2z"/>
			</g>
			<g>
				<path fill="#FFFFFF" d="M919.2,25.1c-1.5,0-2.7-0.4-3.5-1.3c-0.8-0.8-1.3-1.7-1.5-2.5c-0.1-0.8-0.2-2-0.2-3.7
					c0-1.4,0-2.5,0.1-3.4c0.1-0.9,0.6-1.8,1.5-2.7c0.9-0.9,2.1-1.4,3.6-1.4c1.4,0,2.6,0.4,3.5,1.2c0.9,0.8,1.5,1.9,1.7,3.2l0.1,0.3
					h-2.1l-0.1-0.2c-0.2-0.8-0.6-1.5-1.1-1.9c-0.5-0.5-1.2-0.7-2-0.7c-0.9,0-1.6,0.2-2.1,0.7c-0.5,0.5-0.8,1-0.9,1.6
					c-0.1,0.6-0.2,1.6-0.2,3.2c0,1.5,0.1,2.6,0.2,3.2c0.1,0.6,0.4,1.1,0.9,1.6c0.5,0.5,1.2,0.7,2.1,0.7c1,0,1.8-0.3,2.3-1
					c0.5-0.7,0.8-1.5,0.8-2.5V19h-3.5v-1.9h5.6v2.5c0,0.8-0.1,1.6-0.3,2.2c-0.2,0.6-0.5,1.2-1,1.7C922.2,24.6,920.8,25.1,919.2,25.1
					z M919.3,10.8c-1.3,0-2.4,0.4-3.2,1.2c-0.8,0.8-1.2,1.6-1.3,2.3c-0.1,0.8-0.1,1.9-0.1,3.3c0,1.7,0.1,2.9,0.2,3.6
					c0.1,0.7,0.6,1.4,1.3,2.2c0.7,0.7,1.8,1.1,3.1,1.1c1.4,0,2.6-0.5,3.5-1.5c0.4-0.4,0.7-0.9,0.9-1.4c0.2-0.5,0.3-1.2,0.3-2v-1.9
					h-4.4v0.7h3.5v1.4c0,1.1-0.3,2.1-1,2.9c-0.6,0.8-1.6,1.2-2.8,1.2c-1.1,0-1.9-0.3-2.5-0.9c-0.6-0.6-0.9-1.2-1-1.9
					c-0.1-0.6-0.2-1.7-0.2-3.3c0-1.6,0.1-2.7,0.2-3.3c0.1-0.7,0.5-1.3,1.1-1.9c0.6-0.6,1.4-0.9,2.5-0.9c1,0,1.8,0.3,2.4,0.8
					c0.6,0.5,1,1.2,1.2,2h0.9c-0.2-1-0.7-1.9-1.5-2.5C921.6,11.2,920.5,10.8,919.3,10.8z"/>
			</g>
		</g>
		<g>
			<g>
				<path fill="#FFFFFF" d="M939.8,24.8l-1.1-3.2h-6.1l-1.2,3.2h-1.6l5.2-14.1h1.3l5.2,14.1L939.8,24.8z M935.7,12.8l-2.6,7.4h5.2
					L935.7,12.8z"/>
			</g>
			<g>
				<path fill="#FFFFFF" d="M939.6,25.1l-1.1-3.2h-5.7l-1.2,3.2h-2.2l5.4-14.7h1.7l5.4,14.7L939.6,25.1z M932.4,21.2h6.5l1.1,3.2
					l1,0L936.1,11h-0.8l-5,13.5h1L932.4,21.2z M938.7,20.5h-6.1l3.1-8.6L938.7,20.5z M933.5,19.9h4.4l-2.2-6.2L933.5,19.9z"/>
			</g>
		</g>
		<g>
			<g>
				<path fill="#FFFFFF" d="M955.8,23.2c-1,1.1-2.3,1.6-3.8,1.6c-1.4,0-2.5-0.4-3.3-1.2c-0.8-0.8-1.3-1.6-1.4-2.3
					c-0.1-0.8-0.2-2-0.2-3.7c0-1.4,0-2.5,0.1-3.3c0.1-0.8,0.5-1.7,1.4-2.5c0.9-0.8,2-1.3,3.4-1.3c1.3,0,2.4,0.4,3.3,1.1
					c0.9,0.8,1.4,1.8,1.6,3.1h-1.5c-0.2-0.9-0.6-1.6-1.2-2.1s-1.3-0.8-2.2-0.8c-1,0-1.7,0.3-2.3,0.8c-0.5,0.6-0.9,1.1-1,1.7
					c-0.1,0.6-0.2,1.7-0.2,3.2c0,1.5,0.1,2.6,0.2,3.2c0.1,0.6,0.4,1.2,1,1.7s1.3,0.8,2.3,0.8c1.1,0,2-0.4,2.6-1.1s0.9-1.6,0.9-2.7
					v-1.1h-3.5v-1.3h5v2.2c0,0.8-0.1,1.5-0.3,2.1C956.6,22.2,956.2,22.8,955.8,23.2z"/>
			</g>
			<g>
				<path fill="#FFFFFF" d="M952.1,25.1c-1.5,0-2.7-0.4-3.5-1.3c-0.8-0.8-1.3-1.7-1.5-2.5c-0.1-0.8-0.2-2-0.2-3.7
					c0-1.4,0-2.5,0.1-3.4c0.1-0.9,0.6-1.8,1.5-2.7c0.9-0.9,2.1-1.4,3.6-1.4c1.4,0,2.6,0.4,3.5,1.2c0.9,0.8,1.5,1.9,1.7,3.2l0.1,0.3
					h-2.1l-0.1-0.2c-0.2-0.8-0.6-1.5-1.1-1.9c-0.5-0.5-1.2-0.7-2-0.7c-0.9,0-1.6,0.2-2.1,0.7c-0.5,0.5-0.8,1-0.9,1.6
					c-0.1,0.6-0.2,1.6-0.2,3.2c0,1.5,0.1,2.6,0.2,3.2c0.1,0.6,0.4,1.1,0.9,1.6c0.5,0.5,1.2,0.7,2.1,0.7c1,0,1.8-0.3,2.3-1
					c0.5-0.7,0.8-1.5,0.8-2.5V19h-3.5v-1.9h5.6v2.5c0,0.8-0.1,1.6-0.3,2.2c-0.2,0.6-0.5,1.2-1,1.7C955,24.6,953.6,25.1,952.1,25.1z
					 M952.1,10.8c-1.3,0-2.4,0.4-3.2,1.2c-0.8,0.8-1.2,1.6-1.3,2.3c-0.1,0.8-0.1,1.9-0.1,3.3c0,1.7,0.1,2.9,0.2,3.6
					c0.1,0.7,0.6,1.4,1.3,2.2c0.7,0.7,1.8,1.1,3.1,1.1c1.4,0,2.6-0.5,3.5-1.5c0.4-0.4,0.7-0.9,0.9-1.4c0.2-0.5,0.3-1.2,0.3-2v-1.9
					h-4.4v0.7h3.5v1.4c0,1.1-0.3,2.1-1,2.9c-0.6,0.8-1.6,1.2-2.8,1.2c-1.1,0-1.9-0.3-2.5-0.9c-0.6-0.6-0.9-1.2-1-1.9
					c-0.1-0.6-0.2-1.7-0.2-3.3c0-1.6,0.1-2.7,0.2-3.3c0.1-0.7,0.5-1.3,1.1-1.9c0.6-0.6,1.4-0.9,2.5-0.9c1,0,1.8,0.3,2.4,0.8
					c0.6,0.5,1,1.2,1.2,2h0.9c-0.2-1-0.7-1.9-1.5-2.5C954.4,11.2,953.3,10.8,952.1,10.8z"/>
			</g>
		</g>
		<g>
			<g>
				<path fill="#FFFFFF" d="M964.5,24.7V10.7h8.7V12H966v5h6.2v1.3H966v5.1h7.2v1.3H964.5z"/>
			</g>
			<g>
				<path fill="#FFFFFF" d="M973.5,25h-9.3V10.4h9.3v1.9h-7.2v4.4h6.2v1.9h-6.2v4.5h7.2V25z M964.8,24.4h8.1v-0.7h-7.2V18h6.2v-0.7
					h-6.2v-5.6h7.2V11h-8.1V24.4z"/>
			</g>
		</g>
		<g>
			<g>
				<path fill="#FFFFFF" d="M990.8,24.7V14l-3.9,8.5l-1.3,0l-3.9-8.5v10.7h-1.5V10.7h1.5l4.6,10l4.5-10h1.5v14.1H990.8z"/>
			</g>
			<g>
				<path fill="#FFFFFF" d="M992.6,25h-2.1v-9.6l-3.4,7.4l-1.7,0l-3.4-7.4V25H980V10.4h2l4.4,9.6l4.3-9.6h2V25z M991.1,24.4h0.9V11
					h-1l-4.7,10.4L981.6,11h-1v13.5h0.9V12.7l4.4,9.5l0.9,0l4.3-9.6V24.4z"/>
			</g>
		</g>
		<g>
			<g>
				<path fill="#FFFFFF" d="M1000.3,24.7V10.7h8.7V12h-7.2v5h6.2v1.3h-6.2v5.1h7.2v1.3H1000.3z"/>
			</g>
			<g>
				<path fill="#FFFFFF" d="M1009.4,25h-9.3V10.4h9.3v1.9h-7.2v4.4h6.2v1.9h-6.2v4.5h7.2V25z M1000.6,24.4h8.1v-0.7h-7.2V18h6.2
					v-0.7h-6.2v-5.6h7.2V11h-8.1V24.4z"/>
			</g>
		</g>
		<g>
			<g>
				<path fill="#FFFFFF" d="M1025.1,24.7l-7.5-11.3v11.3h-1.5V10.7l1.4,0l7.5,11.3V10.7h1.5v14.1H1025.1z"/>
			</g>
			<g>
				<path fill="#FFFFFF" d="M1026.8,25h-1.9l-0.1-0.1l-6.9-10.5V25h-2.1V10.4l1.9,0l7,10.6V10.4h2.1V25z M1025.3,24.4h1V11h-0.9
					v11.9l-7.9-11.9l-1,0v13.5h0.9v-12L1025.3,24.4z"/>
			</g>
		</g>
		<g>
			<g>
				<path fill="#FFFFFF" d="M1038.7,12v12.7h-1.5V12h-4.1v-1.3h9.6V12H1038.7z"/>
			</g>
			<g>
				<path fill="#FFFFFF" d="M1039,25h-2.1V12.3h-4.1v-1.9h10.2v1.9h-4.1V25z M1037.5,24.4h0.9V11.7h4.1V11h-9v0.7h4.1V24.4z"/>
			</g>
		</g>
	</g>
</g>
<g id="Footer">
</g>
</svg>
