<?xml version="1.0" encoding="utf-8"?>
<!-- Generator: Adobe Illustrator 18.1.1, SVG Export Plug-In . SVG Version: 6.00 Build 0)  -->
<svg version="1.1" xmlns="http://www.w3.org/2000/svg" xmlns:xlink="http://www.w3.org/1999/xlink" x="0px" y="0px"
	 viewBox="0 0 127 127" enable-background="new 0 0 127 127" xml:space="preserve">
<g id="Layer_1">
</g>
<g id="Layer_3">
</g>
<g id="Layer_16">
</g>
<g id="working_layer" display="none">
</g>
<g id="Video_Options" display="none">
	<g id="Video_Examples">
	</g>
	<g id="Video_Examples_copy">
	</g>
</g>
<g id="Video_Btn" display="none">
</g>
<g id="Text" display="none">
</g>
<g id="Menu" display="none">
</g>
<g id="Menu_Button" display="none">
</g>
<g id="Contact">
	<g id="Close" display="none">
	</g>
	<g id="Open">
	</g>
</g>
<g id="Logos" display="none">
</g>
<g id="Layer_17">
	<g>
		<g>
			<g>
				<g>
					<g>
						<path fill="#FFFFFF" d="M75.6,69.4H47.1c-0.7,0-1.3-0.6-1.3-1.3V47.2c0-0.7,0.6-1.3,1.3-1.3s1.3,0.6,1.3,1.3v19.7h26V47.2
							c0-0.7,0.6-1.3,1.3-1.3s1.3,0.6,1.3,1.3v20.9C76.8,68.9,76.3,69.4,75.6,69.4z"/>
					</g>
				</g>
			</g>
			<g>
				<g>
					<g>
						<path fill="#FFFFFF" d="M71.9,63.5H50.8c-0.7,0-1.3-0.6-1.3-1.3s0.6-1.3,1.3-1.3h21.1c0.7,0,1.3,0.6,1.3,1.3
							S72.5,63.5,71.9,63.5z"/>
					</g>
				</g>
			</g>
			<g>
				<g>
					<g>
						<path fill="#FFFFFF" d="M98.7,70.9c-0.2,0-0.4-0.1-0.6-0.2l-12.4-7.2H75.6c-0.7,0-1.3-0.6-1.3-1.3s0.6-1.3,1.3-1.3H86
							c0.2,0,0.4,0.1,0.6,0.2l10.8,6.2V48.7L86.6,55c-0.2,0.1-0.4,0.2-0.6,0.2H75.6c-0.7,0-1.3-0.6-1.3-1.3s0.6-1.3,1.3-1.3h10
							l12.5-7.2c0.4-0.2,0.9-0.2,1.3,0c0.4,0.2,0.6,0.6,0.6,1.1v23.1c0,0.4-0.2,0.9-0.6,1.1C99.1,70.8,98.9,70.9,98.7,70.9z"/>
					</g>
				</g>
			</g>
			<g>
				<g>
					<g>
						<path fill="#FFFFFF" d="M47.1,63.5h-5.3c-0.7,0-1.3-0.6-1.3-1.3v-8.4c0-0.7,0.6-1.3,1.3-1.3h5.3c0.7,0,1.3,0.6,1.3,1.3
							s-0.6,1.3-1.3,1.3H43V61h4.1c0.7,0,1.3,0.6,1.3,1.3S47.7,63.5,47.1,63.5z"/>
					</g>
				</g>
			</g>
			<g>
				<g>
					<g>
						<path fill="#FFFFFF" d="M86,63.5c-0.7,0-1.3-0.6-1.3-1.3v-8.4c0-0.7,0.6-1.3,1.3-1.3s1.3,0.6,1.3,1.3v8.4
							C87.2,63,86.6,63.5,86,63.5z"/>
					</g>
				</g>
			</g>
			<g>
				<g>
					<g>
						<path fill="#FFFFFF" d="M61.3,94.7c-0.7,0-1.3-0.6-1.3-1.3V68.7c0-0.7,0.6-1.3,1.3-1.3s1.3,0.6,1.3,1.3v24.8
							C62.6,94.2,62,94.7,61.3,94.7z"/>
					</g>
				</g>
			</g>
			<g>
				<g>
					<g>
						<path fill="#FFFFFF" d="M75.6,94.1c-0.5,0-1-0.4-1.2-0.9L70.2,79H52.7l-4.2,14.2c-0.2,0.7-0.9,1-1.6,0.8
							c-0.7-0.2-1-0.9-0.8-1.6l4.5-15.1c0.2-0.5,0.6-0.9,1.2-0.9h19.3c0.6,0,1,0.4,1.2,0.9l4.5,15.1c0.2,0.7-0.2,1.4-0.8,1.6
							C75.8,94.1,75.7,94.1,75.6,94.1z"/>
					</g>
				</g>
			</g>
			<g>
				<g>
					<g>
						<g>
							<g>
								<path fill="#FFFFFF" d="M47.3,49.2c-7.6,0-13.8-6.2-13.8-13.8s6.2-13.8,13.8-13.8c7.6,0,13.8,6.2,13.8,13.8
									S55,49.2,47.3,49.2z M47.3,24.1c-6.2,0-11.3,5.1-11.3,11.3s5.1,11.3,11.3,11.3c6.2,0,11.3-5.1,11.3-11.3
									S53.6,24.1,47.3,24.1z"/>
							</g>
						</g>
					</g>
					<g>
						<g>
							<g>
								<path fill="#FFFFFF" d="M47.3,43.2c-4.3,0-7.8-3.5-7.8-7.8s3.5-7.8,7.8-7.8s7.8,3.5,7.8,7.8S51.6,43.2,47.3,43.2z
									 M47.3,30.1c-2.9,0-5.3,2.4-5.3,5.3s2.4,5.3,5.3,5.3s5.3-2.4,5.3-5.3S50.3,30.1,47.3,30.1z"/>
							</g>
						</g>
					</g>
				</g>
				<g>
					<g>
						<g>
							<g>
								<path fill="#FFFFFF" d="M76.5,49.2c-7.6,0-13.8-6.2-13.8-13.8s6.2-13.8,13.8-13.8c7.6,0,13.8,6.2,13.8,13.8
									S84.1,49.2,76.5,49.2z M76.5,24.1c-6.2,0-11.3,5.1-11.3,11.3s5.1,11.3,11.3,11.3c6.2,0,11.3-5.1,11.3-11.3
									S82.7,24.1,76.5,24.1z"/>
							</g>
						</g>
					</g>
					<g>
						<g>
							<g>
								<path fill="#FFFFFF" d="M76.5,43.2c-4.3,0-7.8-3.5-7.8-7.8s3.5-7.8,7.8-7.8c4.3,0,7.8,3.5,7.8,7.8S80.8,43.2,76.5,43.2z
									 M76.5,30.1c-2.9,0-5.3,2.4-5.3,5.3s2.4,5.3,5.3,5.3c2.9,0,5.3-2.4,5.3-5.3S79.4,30.1,76.5,30.1z"/>
							</g>
						</g>
					</g>
				</g>
			</g>
			<g>
				<g>
					<g>
						<path fill="#FFFFFF" d="M67.1,45.5H56.2c-0.7,0-1.3-0.6-1.3-1.3s0.6-1.3,1.3-1.3h10.9c0.7,0,1.3,0.6,1.3,1.3
							S67.8,45.5,67.1,45.5z"/>
					</g>
				</g>
			</g>
		</g>
		<g>
			<g>
				<g>
					<g>
						<path fill="#FFFFFF" d="M50.1,111.2l-0.8,0l-1.9-6.7l-1.9,6.7l-0.8,0l-2.1-8.4l0.9,0l1.6,6.8l1.9-6.8h0.8l1.9,6.8l1.6-6.8
							l0.9,0L50.1,111.2z"/>
					</g>
				</g>
				<g>
					<g>
						<path fill="#FFFFFF" d="M60.8,110.4c-0.6,0.6-1.3,0.9-2.1,0.9c-0.8,0-1.5-0.2-2-0.7c-0.5-0.5-0.7-0.9-0.8-1.4
							s-0.1-1.2-0.1-2.2c0-0.8,0-1.5,0.1-2c0-0.5,0.3-1,0.8-1.5s1.2-0.8,2-0.8c0.8,0,1.5,0.2,2,0.7c0.5,0.5,0.7,0.9,0.8,1.4
							c0.1,0.4,0.1,1.2,0.1,2.2c0,0.8,0,1.5-0.1,2C61.5,109.5,61.2,110,60.8,110.4z M60.1,104.2c-0.4-0.4-0.9-0.6-1.4-0.6
							s-1,0.2-1.4,0.5c-0.3,0.3-0.5,0.7-0.6,1c-0.1,0.4-0.1,1-0.1,1.9c0,0.9,0,1.6,0.1,1.9c0.1,0.4,0.3,0.7,0.6,1
							c0.3,0.3,0.8,0.5,1.4,0.5s1-0.2,1.4-0.5s0.5-0.7,0.6-1c0.1-0.4,0.1-1,0.1-1.9c0-0.9,0-1.6-0.1-1.9
							C60.5,104.7,60.4,104.4,60.1,104.2z"/>
					</g>
				</g>
				<g>
					<g>
						<path fill="#FFFFFF" d="M70.9,111.2l-1.9-3.7h-2v3.7H66v-8.4h3.2c0.7,0,1.3,0.2,1.8,0.6c0.5,0.4,0.7,1,0.7,1.7
							c0,0.6-0.2,1.1-0.5,1.5c-0.3,0.4-0.8,0.6-1.3,0.8l2,3.8H70.9z M69.2,103.6h-2.2v3.1h2.2c0.5,0,0.9-0.1,1.2-0.4
							c0.3-0.3,0.5-0.6,0.5-1.1c0-0.5-0.2-0.9-0.5-1.1C70.1,103.8,69.7,103.6,69.2,103.6z"/>
					</g>
				</g>
				<g>
					<g>
						<path fill="#FFFFFF" d="M81.4,111.2l-2.5-4.5l-1.8,2.1v2.3h-0.9v-8.4H77v4.8l3.9-4.8l1.1,0l-2.6,3.2l3,5.2L81.4,111.2z"/>
					</g>
				</g>
			</g>
			<g>
				<g>
					<g>
						<path fill="#FFFFFF" d="M121.2,122.3H6.1c-0.7,0-1.3-0.6-1.3-1.3V6c0-0.7,0.6-1.3,1.3-1.3h115c0.7,0,1.3,0.6,1.3,1.3v115
							C122.4,121.7,121.9,122.3,121.2,122.3z M7.4,119.8h112.5V7.2H7.4V119.8z"/>
					</g>
				</g>
			</g>
		</g>
	</g>
</g>
<g id="Footer">
</g>
</svg>
