<?xml version="1.0" encoding="utf-8"?>
<!-- Generator: Adobe Illustrator 18.1.1, SVG Export Plug-In . SVG Version: 6.00 Build 0)  -->
<svg version="1.1" xmlns="http://www.w3.org/2000/svg" xmlns:xlink="http://www.w3.org/1999/xlink" x="0px" y="0px"
	 viewBox="0 0 55 55" enable-background="new 0 0 55 55" xml:space="preserve">
<g id="Layer_1">
</g>
<g id="Layer_3">
</g>
<g id="Layer_16">
</g>
<g id="working_layer" display="none">
</g>
<g id="Video_Options" display="none">
	<g id="Video_Examples">
	</g>
	<g id="Video_Examples_copy">
	</g>
</g>
<g id="Video_Btn" display="none">
</g>
<g id="Text" display="none">
</g>
<g id="Menu" display="none">
</g>
<g id="Menu_Button" display="none">
</g>
<g id="Contact">
	<g id="Close" display="none">
	</g>
	<g id="Open">
	</g>
</g>
<g id="Logos" display="none">
</g>
<g id="Layer_17">
	<g>
		<g>
			<g>
				<g>
					<g>
						<path fill="#FFFFFF" d="M49.5,50.7h-44c-0.7,0-1.3-0.6-1.3-1.3v-44c0-0.7,0.6-1.3,1.3-1.3h44c0.7,0,1.3,0.6,1.3,1.3v44
							C50.7,50.2,50.2,50.7,49.5,50.7z M6.8,48.2h41.5V6.8H6.8V48.2z"/>
					</g>
				</g>
			</g>
		</g>
		<g>
			<g>
				<g>
					<path fill="#FFFFFF" d="M22.5,38.8c-0.3,0-0.6-0.1-0.9-0.4c-0.5-0.5-0.5-1.3,0-1.8l9.1-9.1l-9.1-9.1c-0.5-0.5-0.5-1.3,0-1.8
						s1.3-0.5,1.8,0l10,10c0.5,0.5,0.5,1.3,0,1.8l-10,10C23.1,38.6,22.8,38.8,22.5,38.8z"/>
				</g>
			</g>
		</g>
	</g>
</g>
<g id="Footer">
</g>
</svg>
