<?xml version="1.0" encoding="utf-8"?>
<!-- Generator: Adobe Illustrator 18.1.1, SVG Export Plug-In . SVG Version: 6.00 Build 0)  -->
<svg version="1.1" xmlns="http://www.w3.org/2000/svg" xmlns:xlink="http://www.w3.org/1999/xlink" x="0px" y="0px"
	 viewBox="0 0 282.7 57.3" enable-background="new 0 0 282.7 57.3" xml:space="preserve">
<g id="Layer_1">
</g>
<g id="Layer_3">
</g>
<g id="Layer_16">
</g>
<g id="working_layer" display="none">
</g>
<g id="Video_Options" display="none">
	<g id="Video_Examples">
	</g>
	<g id="Video_Examples_copy">
	</g>
</g>
<g id="Video_Btn" display="none">
</g>
<g id="Text" display="none">
</g>
<g id="Menu" display="none">
</g>
<g id="Menu_Button" display="none">
</g>
<g id="Contact">
	<g id="Close" display="none">
	</g>
	<g id="Open">
	</g>
</g>
<g id="Logos" display="none">
</g>
<g id="Layer_17">
	<g>
		<g>
			<g>
				<g>
					<path fill="#FFFFFF" d="M54.9,34.4h-1.1l-4.2-12.9H51l3.3,10.4l3.3-10.4h1.4L54.9,34.4z"/>
				</g>
				<g>
					<path fill="#FFFFFF" d="M55.1,34.7h-1.6l-4.4-13.5h2.1l3.1,9.7l3.1-9.7h2.1L55.1,34.7z M54,34.1h0.7l4-12.3h-0.8l-3.6,11.1
						l-3.6-11.1H50L54,34.1z"/>
				</g>
			</g>
			<g>
				<g>
					<path fill="#FFFFFF" d="M64.7,34.4V21.5h1.4v12.9H64.7z"/>
				</g>
				<g>
					<path fill="#FFFFFF" d="M66.4,34.7h-2V21.2h2V34.7z M65,34.1h0.8V21.8H65V34.1z"/>
				</g>
			</g>
			<g>
				<g>
					<path fill="#FFFFFF" d="M73.4,34.4V21.5h8v1.2h-6.6v4.5h5.6v1.2h-5.6v4.7h6.6v1.2H73.4z"/>
				</g>
				<g>
					<path fill="#FFFFFF" d="M81.7,34.7h-8.6V21.2h8.6V23h-6.6V27h5.6v1.8h-5.6v4.1h6.6V34.7z M73.7,34.1h7.4v-0.6h-6.6v-5.3h5.6
						v-0.6h-5.6v-5.1h6.6v-0.6h-7.4V34.1z"/>
				</g>
			</g>
			<g>
				<g>
					<path fill="#FFFFFF" d="M97.9,34.4l-1.3,0L93.7,24l-2.9,10.3l-1.3,0l-3.3-12.9l1.5,0l2.5,10.4l2.8-10.4h1.2l2.8,10.4l2.5-10.4
						l1.5,0L97.9,34.4z"/>
				</g>
				<g>
					<path fill="#FFFFFF" d="M98.1,34.7l-1.7,0l-2.6-9.5l-2.6,9.5l-1.7,0l-3.4-13.5l2.1,0l2.3,9.5l2.6-9.5h1.7l2.6,9.5l2.3-9.5
						l2.1,0L98.1,34.7z M96.8,34.1l0.8,0l3.1-12.3l-0.8,0l-2.7,11.3l-3.1-11.3h-0.8l-3.1,11.3l-2.7-11.3l-0.8,0l3.1,12.3l0.8,0
						l3.1-11.1L96.8,34.1z"/>
				</g>
			</g>
			<g>
				<g>
					<path fill="#FFFFFF" d="M122.3,33.1c-0.9,0.9-2,1.3-3.3,1.3c-1.3,0-2.3-0.4-3-1.1s-1.1-1.4-1.3-2.1s-0.2-1.8-0.2-3.3
						c0-1.3,0-2.3,0.1-3.1c0.1-0.8,0.5-1.5,1.3-2.3c0.8-0.8,1.8-1.2,3.1-1.2c1.3,0,2.3,0.4,3,1.1c0.7,0.7,1.1,1.4,1.3,2.1
						s0.2,1.8,0.2,3.3c0,1.3,0,2.3-0.1,3.1S123,32.5,122.3,33.1z M121.3,23.5c-0.6-0.6-1.3-0.9-2.2-0.9c-0.9,0-1.6,0.3-2.1,0.8
						c-0.5,0.5-0.8,1-0.9,1.6c-0.1,0.5-0.2,1.5-0.2,3c0,1.4,0.1,2.4,0.2,3c0.1,0.6,0.4,1.1,0.9,1.6c0.5,0.5,1.2,0.8,2.1,0.8
						c0.9,0,1.6-0.3,2.1-0.8c0.5-0.5,0.8-1,0.9-1.6s0.2-1.5,0.2-3c0-1.4-0.1-2.4-0.2-3C121.9,24.4,121.7,23.9,121.3,23.5z"/>
				</g>
				<g>
					<path fill="#FFFFFF" d="M119.1,34.8c-1.4,0-2.5-0.4-3.2-1.2c-0.8-0.8-1.2-1.5-1.4-2.3c-0.1-0.7-0.2-1.8-0.2-3.4
						c0-1.3,0-2.3,0.1-3.1c0.1-0.8,0.5-1.7,1.4-2.5c0.8-0.8,2-1.3,3.3-1.3c1.4,0,2.5,0.4,3.2,1.2c0.8,0.8,1.2,1.5,1.4,2.3
						c0.1,0.7,0.2,1.8,0.2,3.4c0,1.3,0,2.3-0.1,3.1c-0.1,0.8-0.5,1.6-1.2,2.3C121.6,34.3,120.4,34.8,119.1,34.8z M119.1,21.7
						c-1.2,0-2.2,0.4-2.9,1.1c-0.7,0.7-1.1,1.4-1.2,2.1c-0.1,0.8-0.1,1.8-0.1,3c0,1.5,0.1,2.6,0.2,3.3c0.1,0.6,0.5,1.3,1.2,2
						c0.7,0.7,1.6,1,2.8,1c1.2,0,2.2-0.4,3.1-1.2c0.6-0.6,0.9-1.3,1-2c0.1-0.8,0.1-1.8,0.1-3c0-1.5-0.1-2.6-0.2-3.3
						c-0.1-0.6-0.5-1.3-1.2-2C121.2,22,120.3,21.7,119.1,21.7z M119.1,33.5c-1,0-1.7-0.3-2.3-0.8c-0.5-0.5-0.9-1.1-1-1.8
						c-0.1-0.6-0.2-1.6-0.2-3c0-1.5,0.1-2.4,0.2-3c0.1-0.6,0.4-1.2,1-1.7c0.6-0.6,1.3-0.9,2.3-0.9s1.8,0.3,2.4,1
						c0.4,0.4,0.7,1,0.8,1.6c0.1,0.6,0.2,1.6,0.2,3c0,1.5-0.1,2.4-0.2,3c-0.1,0.6-0.4,1.2-1,1.7C120.8,33.2,120,33.5,119.1,33.5z
						 M119.1,22.9c-0.8,0-1.4,0.2-1.9,0.7c-0.5,0.5-0.7,0.9-0.8,1.4c-0.1,0.5-0.1,1.5-0.1,2.9c0,1.4,0.1,2.4,0.1,2.9
						c0.1,0.5,0.4,1,0.8,1.4c0.4,0.4,1,0.7,1.9,0.7c0.8,0,1.4-0.2,1.9-0.7c0.4-0.5,0.7-0.9,0.8-1.4c0.1-0.5,0.1-1.5,0.1-2.9
						c0-1.4-0.1-2.4-0.1-2.9c-0.1-0.5-0.3-0.9-0.7-1.3C120.5,23.2,119.9,22.9,119.1,22.9z"/>
				</g>
			</g>
			<g>
				<g>
					<path fill="#FFFFFF" d="M134.7,34.5c-1.3,0-2.4-0.4-3.2-1.2c-0.8-0.8-1.3-1.9-1.3-3.1v-8.6h1.4V30c0,1,0.3,1.8,0.8,2.3
						c0.6,0.6,1.3,0.9,2.3,0.9c0.9,0,1.7-0.3,2.3-0.9s0.9-1.4,0.9-2.3v-8.5h1.4v8.6c0,1.3-0.4,2.3-1.3,3.1
						C137.1,34.1,136,34.5,134.7,34.5z"/>
				</g>
				<g>
					<path fill="#FFFFFF" d="M134.7,34.8c-1.4,0-2.5-0.4-3.4-1.3c-0.9-0.9-1.3-2-1.3-3.3v-8.9h2V30c0,0.9,0.3,1.6,0.8,2.1
						c0.5,0.5,1.2,0.8,2,0.8c0.9,0,1.5-0.3,2-0.8c0.5-0.5,0.8-1.2,0.8-2.1v-8.8h2v8.9c0,1.4-0.5,2.5-1.4,3.4
						C137.2,34.3,136.1,34.8,134.7,34.8z M130.5,21.8v8.3c0,1.2,0.4,2.2,1.2,2.9c0.8,0.8,1.8,1.1,3,1.1c1.2,0,2.2-0.4,3-1.1
						c0.8-0.8,1.2-1.7,1.2-2.9v-8.3h-0.8V30c0,1.1-0.3,1.9-1,2.6c-0.6,0.6-1.5,1-2.5,1c-1,0-1.9-0.3-2.5-1c-0.6-0.6-0.9-1.5-0.9-2.6
						v-8.2H130.5z"/>
				</g>
			</g>
			<g>
				<g>
					<path fill="#FFFFFF" d="M153.7,34.4l-2.9-5.7h-3.1v5.7h-1.4V21.5h4.9c1.1,0,2.1,0.3,2.8,1c0.7,0.6,1.1,1.5,1.1,2.6
						c0,0.9-0.3,1.7-0.8,2.3s-1.2,1-2,1.2l3.1,5.9L153.7,34.4z M151.2,22.7h-3.4v4.7h3.4c0.8,0,1.4-0.2,1.9-0.6s0.7-1,0.7-1.8
						c0-0.8-0.2-1.3-0.7-1.8C152.5,22.9,151.9,22.7,151.2,22.7z"/>
				</g>
				<g>
					<path fill="#FFFFFF" d="M153.5,34.7l-2.9-5.7H148v5.7h-2V21.2h5.2c1.2,0,2.2,0.4,3,1c0.8,0.7,1.2,1.7,1.2,2.8
						c0,1-0.3,1.8-0.8,2.5c-0.5,0.6-1.1,1-1.8,1.2l3.1,6L153.5,34.7z M147.4,28.3h3.6l2.9,5.7l0.9,0l-3-5.8l0.4-0.1
						c0.8-0.2,1.4-0.5,1.9-1.1c0.5-0.5,0.7-1.2,0.7-2.1c0-1-0.3-1.8-1-2.4c-0.6-0.6-1.5-0.9-2.6-0.9h-4.6v12.3h0.8V28.3z
						 M151.2,27.7h-3.7v-5.3h3.7c0.8,0,1.5,0.2,2.1,0.7c0.5,0.5,0.8,1.1,0.8,2c0,0.9-0.3,1.5-0.8,2C152.7,27.5,152,27.7,151.2,27.7z
						 M148,27.1h3.1c0.7,0,1.3-0.2,1.7-0.5c0.4-0.3,0.6-0.8,0.6-1.5c0-0.7-0.2-1.2-0.6-1.5c-0.4-0.4-1-0.5-1.7-0.5H148V27.1z"/>
				</g>
			</g>
			<g>
				<g>
					<path fill="#FFFFFF" d="M179.9,34.4l-1.3,0L175.8,24l-2.9,10.3l-1.3,0l-3.3-12.9l1.5,0l2.5,10.4l2.8-10.4h1.2l2.8,10.4
						l2.5-10.4l1.5,0L179.9,34.4z"/>
				</g>
				<g>
					<path fill="#FFFFFF" d="M180.1,34.7l-1.7,0l-2.6-9.5l-2.6,9.5l-1.7,0L168,21.2l2.1,0l2.3,9.5l2.6-9.5h1.7l2.6,9.5l2.3-9.5
						l2.1,0L180.1,34.7z M168.7,21.8l3.1,12.3l0.8,0l3.1-11.1l3.1,11.1l0.8,0l3.1-12.3l-0.8,0l-2.7,11.3l-3.1-11.3h-0.8l-3.1,11.3
						l-2.7-11.3L168.7,21.8z"/>
				</g>
			</g>
			<g>
				<g>
					<path fill="#FFFFFF" d="M196.3,33.1c-0.9,0.9-2,1.3-3.3,1.3s-2.3-0.4-3-1.1s-1.1-1.4-1.3-2.1c-0.1-0.7-0.2-1.8-0.2-3.3
						c0-1.3,0-2.3,0.1-3.1c0.1-0.8,0.5-1.5,1.3-2.3c0.8-0.8,1.8-1.2,3.1-1.2s2.3,0.4,3,1.1c0.7,0.7,1.1,1.4,1.3,2.1
						c0.1,0.7,0.2,1.8,0.2,3.3c0,1.3,0,2.3-0.1,3.1S196.9,32.5,196.3,33.1z M195.2,23.5c-0.6-0.6-1.3-0.9-2.2-0.9
						c-0.9,0-1.6,0.3-2.1,0.8c-0.5,0.5-0.8,1-0.9,1.6c-0.1,0.5-0.2,1.5-0.2,3c0,1.4,0.1,2.4,0.2,3c0.1,0.6,0.4,1.1,0.9,1.6
						c0.5,0.5,1.2,0.8,2.1,0.8c0.9,0,1.6-0.3,2.1-0.8s0.8-1,0.9-1.6c0.1-0.5,0.2-1.5,0.2-3c0-1.4-0.1-2.4-0.2-3
						C195.8,24.4,195.6,23.9,195.2,23.5z"/>
				</g>
				<g>
					<path fill="#FFFFFF" d="M193,34.8c-1.4,0-2.5-0.4-3.2-1.2c-0.8-0.8-1.2-1.5-1.4-2.3c-0.1-0.7-0.2-1.8-0.2-3.4
						c0-1.3,0-2.3,0.1-3.1c0.1-0.8,0.5-1.7,1.4-2.5c0.8-0.8,1.9-1.3,3.3-1.3c1.4,0,2.5,0.4,3.2,1.2c0.8,0.8,1.2,1.5,1.4,2.3
						c0.1,0.7,0.2,1.8,0.2,3.4c0,1.3,0,2.3-0.1,3.1c-0.1,0.8-0.5,1.6-1.2,2.3C195.5,34.3,194.3,34.8,193,34.8z M193,21.7
						c-1.2,0-2.2,0.4-2.9,1.1c-0.7,0.7-1.1,1.4-1.2,2.1c-0.1,0.8-0.1,1.8-0.1,3c0,1.5,0.1,2.6,0.2,3.3c0.1,0.6,0.5,1.3,1.2,2
						c0.7,0.7,1.6,1,2.8,1c1.2,0,2.2-0.4,3.1-1.2c0.6-0.6,1-1.3,1-2c0.1-0.8,0.1-1.8,0.1-3c0-1.5-0.1-2.6-0.2-3.3
						c-0.1-0.6-0.5-1.3-1.2-2C195.1,22,194.2,21.7,193,21.7z M193,33.5c-1,0-1.7-0.3-2.3-0.8c-0.5-0.5-0.9-1.1-1-1.8
						c-0.1-0.6-0.2-1.6-0.2-3c0-1.5,0.1-2.4,0.2-3c0.1-0.6,0.4-1.2,1-1.7c0.5-0.6,1.3-0.9,2.3-0.9c1,0,1.8,0.3,2.4,1
						c0.4,0.4,0.7,1,0.8,1.6c0.1,0.6,0.2,1.6,0.2,3c0,1.4-0.1,2.4-0.2,3c-0.1,0.6-0.4,1.2-1,1.7C194.7,33.2,193.9,33.5,193,33.5z
						 M193,22.9c-0.8,0-1.4,0.2-1.9,0.7c-0.5,0.5-0.7,0.9-0.8,1.4c-0.1,0.5-0.1,1.5-0.1,2.9c0,1.4,0.1,2.4,0.1,2.9
						c0.1,0.5,0.4,1,0.8,1.4c0.4,0.4,1,0.7,1.9,0.7c0.8,0,1.4-0.2,1.9-0.7c0.4-0.5,0.7-0.9,0.8-1.4c0.1-0.5,0.1-1.5,0.1-2.9
						c0-1.4-0.1-2.4-0.1-2.9c-0.1-0.5-0.3-0.9-0.7-1.3C194.4,23.2,193.8,22.9,193,22.9z"/>
				</g>
			</g>
			<g>
				<g>
					<path fill="#FFFFFF" d="M211.7,34.4l-2.9-5.7h-3.1v5.7h-1.4V21.5h4.9c1.1,0,2.1,0.3,2.8,1c0.7,0.6,1.1,1.5,1.1,2.6
						c0,0.9-0.3,1.7-0.8,2.3s-1.2,1-2,1.2l3.1,5.9L211.7,34.4z M209.1,22.7h-3.4v4.7h3.4c0.8,0,1.4-0.2,1.9-0.6s0.7-1,0.7-1.8
						c0-0.8-0.2-1.3-0.7-1.8C210.5,22.9,209.9,22.7,209.1,22.7z"/>
				</g>
				<g>
					<path fill="#FFFFFF" d="M211.5,34.7l-2.9-5.7H206v5.7h-2V21.2h5.2c1.2,0,2.2,0.4,3,1c0.8,0.7,1.2,1.7,1.2,2.8
						c0,1-0.3,1.8-0.8,2.5c-0.5,0.6-1.1,1-1.8,1.2l3.1,6L211.5,34.7z M205.4,28.3h3.6l2.9,5.7l0.9,0l-3-5.8l0.4-0.1
						c0.8-0.2,1.4-0.5,1.9-1.1c0.5-0.5,0.7-1.2,0.7-2.1c0-1-0.3-1.8-1-2.4c-0.6-0.6-1.5-0.9-2.6-0.9h-4.6v12.3h0.8V28.3z
						 M209.1,27.7h-3.7v-5.3h3.7c0.8,0,1.5,0.2,2.1,0.7c0.5,0.5,0.8,1.1,0.8,2c0,0.9-0.3,1.5-0.8,2C210.7,27.5,210,27.7,209.1,27.7z
						 M206,27.1h3.1c0.7,0,1.3-0.2,1.7-0.5c0.4-0.3,0.6-0.8,0.6-1.5c0-0.7-0.2-1.2-0.6-1.5c-0.4-0.4-1-0.5-1.7-0.5H206V27.1z"/>
				</g>
			</g>
			<g>
				<g>
					<path fill="#FFFFFF" d="M227.8,34.4l-3.9-6.9l-2.7,3.3v3.6h-1.4V21.5h1.4v7.4l6-7.4l1.7,0l-4,5l4.6,7.9L227.8,34.4z"/>
				</g>
				<g>
					<path fill="#FFFFFF" d="M227.6,34.7l-3.8-6.6l-2.4,2.8v3.8h-2V21.2h2V28l5.6-6.8l2.5,0l-4.3,5.3l4.8,8.2L227.6,34.7z M223.9,27
						l4,7.1l0.9,0l-4.5-7.7l3.8-4.6l-0.9,0l-6.4,7.9v-7.9h-0.8v12.3h0.8v-3.4L223.9,27z"/>
				</g>
			</g>
		</g>
		<g>
			<g>
				<g>
					<path fill="#FFFFFF" d="M252.9,51.1H29.8C17.4,51.1,7.3,41,7.3,28.7S17.4,6.2,29.8,6.2h223.1c12.4,0,22.4,10.1,22.4,22.4
						S265.3,51.1,252.9,51.1z M29.8,8.7c-11,0-19.9,8.9-19.9,19.9s8.9,19.9,19.9,19.9h223.1c11,0,19.9-8.9,19.9-19.9
						s-8.9-19.9-19.9-19.9H29.8z"/>
				</g>
			</g>
		</g>
	</g>
</g>
<g id="Footer">
</g>
</svg>
