<?xml version="1.0" encoding="utf-8"?>
<!-- Generator: Adobe Illustrator 18.1.1, SVG Export Plug-In . SVG Version: 6.00 Build 0)  -->
<svg version="1.1" xmlns="http://www.w3.org/2000/svg" xmlns:xlink="http://www.w3.org/1999/xlink" x="0px" y="0px"
	 viewBox="0 0 296.7 122.1" enable-background="new 0 0 296.7 122.1" xml:space="preserve">
<g id="Layer_1">
</g>
<g id="Layer_3">
</g>
<g id="Layer_16">
</g>
<g id="working_layer" display="none">
	<g display="inline">
		<g>
			<g>
				<path fill="#CDCCCC" d="M50.9,124.2v-3.8h-4v3.8H46v-8.4h0.9v3.8h4v-3.8h0.9v8.4H50.9z"/>
				<path fill="#CDCCCC" d="M61.4,123.4c-0.6,0.6-1.3,0.9-2.1,0.9c-0.8,0-1.5-0.2-2-0.7c-0.5-0.5-0.7-0.9-0.8-1.4
					c-0.1-0.4-0.1-1.2-0.1-2.2c0-0.8,0-1.5,0.1-2c0-0.5,0.3-1,0.8-1.5s1.2-0.8,2-0.8c0.8,0,1.5,0.2,2,0.7c0.5,0.5,0.7,0.9,0.8,1.4
					s0.1,1.2,0.1,2.2c0,0.8,0,1.5-0.1,2C62,122.5,61.8,122.9,61.4,123.4z M60.7,117.1c-0.4-0.4-0.9-0.6-1.4-0.6s-1,0.2-1.4,0.5
					c-0.3,0.3-0.5,0.7-0.6,1c-0.1,0.4-0.1,1-0.1,1.9c0,0.9,0,1.6,0.1,1.9c0.1,0.4,0.3,0.7,0.6,1c0.3,0.3,0.8,0.5,1.4,0.5
					s1-0.2,1.4-0.5s0.5-0.7,0.6-1c0.1-0.4,0.1-1,0.1-1.9c0-0.9,0-1.6-0.1-1.9C61.1,117.7,60.9,117.4,60.7,117.1z"/>
				<path fill="#CDCCCC" d="M72.9,124.2v-6.4l-2.3,5.1l-0.8,0l-2.3-5v6.4h-0.9v-8.4h0.9l2.7,6l2.7-6h0.9v8.4H72.9z"/>
				<path fill="#CDCCCC" d="M78.6,124.2v-8.4h5.2v0.8h-4.3v3h3.7v0.8h-3.7v3h4.3v0.8H78.6z"/>
			</g>
			<rect x="8.3" y="18.9" fill="none" width="115" height="115"/>
		</g>
		<g>
			<g>
				<path fill="none" stroke="#CDCCCC" stroke-width="2.5" stroke-miterlimit="10" d="M103.8,95V80.4V62.2V53c0-5-4-9-9-9h-53
					c-10.1,0-18.2,8.2-18.2,18.2v25.4c0,4.1,3.4,7.5,7.5,7.5h16"/>
				<line fill="none" stroke="#CDCCCC" stroke-width="2.5" stroke-miterlimit="10" x1="64.1" y1="95" x2="114.7" y2="95"/>
				<line fill="none" stroke="#CDCCCC" stroke-width="2.5" stroke-miterlimit="10" x1="23.5" y1="75.1" x2="75.8" y2="75.1"/>
				<polyline fill="none" stroke="#CDCCCC" stroke-width="2.5" stroke-miterlimit="10" points="75.8,95 75.8,52.7 90.5,52.7 
					90.5,95 				"/>
				<path fill="none" stroke="#CDCCCC" stroke-width="2.5" stroke-miterlimit="10" d="M44.1,52.7v12.1v0c0,1.8,1.5,3.3,3.3,3.3H63
					c1.8,0,3.3-1.5,3.3-3.3V52.7H44.1z"/>
				<circle fill="none" stroke="#CDCCCC" stroke-width="2.5" stroke-miterlimit="10" cx="55.6" cy="95" r="8.6"/>
			</g>
			<line fill="none" stroke="#CDCCCC" stroke-width="2.5" stroke-miterlimit="10" x1="90.5" y1="75.1" x2="103.8" y2="75.1"/>
			<line fill="none" stroke="#CDCCCC" stroke-width="2.5" stroke-miterlimit="10" x1="103.8" y1="79.5" x2="90.6" y2="79.5"/>
			<line fill="none" stroke="#CDCCCC" stroke-width="2.5" stroke-miterlimit="10" x1="74.8" y1="79.5" x2="23.5" y2="79.5"/>
			<polyline fill="none" stroke="#CDCCCC" stroke-width="2.5" stroke-miterlimit="10" points="80.3,79.7 80.3,75.3 83.1,75.3 			"/>
		</g>
	</g>
</g>
<g id="Video_Options" display="none">
	<g id="Video_Examples">
	</g>
	<g id="Video_Examples_copy">
	</g>
</g>
<g id="Video_Btn" display="none">
</g>
<g id="Text" display="none">
</g>
<g id="Menu" display="none">
</g>
<g id="Menu_Button" display="none">
</g>
<g id="Contact">
	<g id="Close" display="none">
	</g>
	<g id="Open">
	</g>
</g>
<g id="Logos" display="none">
</g>
<g id="Layer_17">
	<g>
		<g opacity="0.8">
			<g>
				<g>
					<g>
						<path fill="#FFFFFF" d="M10.6,97.3h4.7c2.1,0.1,3.6,0.6,4.7,1.8c1.1,1.1,1.6,2.8,1.6,5c0,2.2-0.5,3.9-1.6,5
							c-1.1,1.1-2.6,1.7-4.7,1.8h-4.7V97.3z M11.9,109.8h2.8c1,0,1.8-0.1,2.5-0.3c0.7-0.2,1.3-0.5,1.7-1c0.5-0.5,0.8-1,1-1.8
							c0.2-0.7,0.3-1.6,0.3-2.6c0-1-0.1-1.9-0.3-2.6c-0.2-0.7-0.6-1.3-1-1.8c-0.5-0.5-1-0.8-1.7-1c-0.7-0.2-1.5-0.3-2.5-0.3h-2.8
							V109.8z"/>
					</g>
				</g>
			</g>
			<g>
				<g>
					<g>
						<path fill="#FFFFFF" d="M31.1,97.4h1.2v1.9h-1.2V97.4z M31.1,101.1h1.2v9.8h-1.2V101.1z"/>
					</g>
				</g>
			</g>
			<g>
				<g>
					<g>
						<path fill="#FFFFFF" d="M50.5,110.1c0,0.7-0.1,1.4-0.2,2c-0.2,0.6-0.4,1.1-0.8,1.5c-0.3,0.4-0.8,0.7-1.3,0.9
							c-0.6,0.2-1.2,0.3-2,0.3c-0.5,0-1-0.1-1.4-0.2c-0.5-0.1-0.9-0.3-1.3-0.5c-0.4-0.2-0.7-0.6-0.9-0.9c-0.2-0.4-0.4-0.8-0.4-1.3
							h1.2c0.1,0.4,0.2,0.7,0.4,0.9c0.2,0.2,0.4,0.4,0.7,0.6c0.3,0.2,0.5,0.3,0.9,0.3c0.3,0.1,0.6,0.1,1,0.1c1.1,0,1.9-0.3,2.4-1
							c0.5-0.6,0.7-1.6,0.7-2.8v-1.3h0c-0.3,0.6-0.7,1.1-1.2,1.5c-0.5,0.4-1.2,0.6-1.9,0.6c-0.8,0-1.5-0.1-2-0.4
							c-0.6-0.3-1-0.6-1.4-1.1c-0.4-0.5-0.6-1-0.8-1.6c-0.2-0.6-0.2-1.3-0.2-2c0-0.7,0.1-1.3,0.3-1.9c0.2-0.6,0.5-1.1,0.9-1.6
							c0.4-0.5,0.8-0.8,1.4-1.1c0.6-0.3,1.2-0.4,1.9-0.4c0.7,0,1.4,0.2,1.9,0.6c0.6,0.4,1,0.9,1.2,1.4h0v-1.7h1.2V110.1z
							 M46.1,109.8c0.5,0,1-0.1,1.4-0.3c0.4-0.2,0.7-0.5,1-0.9c0.3-0.4,0.5-0.8,0.6-1.2c0.1-0.5,0.2-1,0.2-1.4c0-0.5-0.1-1-0.2-1.4
							c-0.1-0.5-0.3-0.9-0.6-1.3c-0.3-0.4-0.6-0.7-1-1c-0.4-0.2-0.9-0.4-1.5-0.4c-0.6,0-1.1,0.1-1.5,0.4c-0.4,0.2-0.7,0.5-1,0.9
							c-0.3,0.4-0.5,0.8-0.6,1.3c-0.1,0.5-0.2,1-0.2,1.5c0,0.5,0.1,1,0.2,1.4c0.1,0.5,0.3,0.9,0.6,1.2c0.3,0.4,0.6,0.7,1,0.9
							C45.1,109.7,45.6,109.8,46.1,109.8z"/>
					</g>
				</g>
			</g>
			<g>
				<g>
					<g>
						<path fill="#FFFFFF" d="M60.4,97.4h1.2v1.9h-1.2V97.4z M60.4,101.1h1.2v9.8h-1.2V101.1z"/>
					</g>
				</g>
			</g>
			<g>
				<g>
					<g>
						<path fill="#FFFFFF" d="M73.5,101.1h2v1h-2v6.6c0,0.4,0.1,0.7,0.2,0.9c0.1,0.2,0.4,0.3,0.8,0.4c0.3,0,0.7,0,1-0.1v1
							c-0.2,0-0.4,0-0.5,0c-0.2,0-0.4,0-0.5,0c-0.8,0-1.4-0.2-1.7-0.5c-0.3-0.3-0.5-0.9-0.5-1.7v-6.7h-1.7v-1h1.7v-3h1.2V101.1z"/>
					</g>
				</g>
			</g>
			<g>
				<g>
					<g>
						<path fill="#FFFFFF" d="M84.7,104.1c0.1-1.2,0.5-2,1.2-2.5c0.7-0.5,1.7-0.8,2.8-0.8c0.4,0,0.9,0,1.3,0.1
							c0.4,0.1,0.8,0.2,1.2,0.5c0.3,0.2,0.6,0.6,0.8,1c0.2,0.4,0.3,0.9,0.3,1.6v5.2c0,0.5,0.2,0.7,0.7,0.7c0.1,0,0.3,0,0.4-0.1v1
							c-0.1,0-0.3,0-0.4,0.1c-0.1,0-0.2,0-0.4,0c-0.3,0-0.6,0-0.7-0.1c-0.2-0.1-0.3-0.2-0.4-0.4c-0.1-0.2-0.2-0.3-0.2-0.5
							c0-0.2,0-0.4,0-0.7h0c-0.2,0.3-0.4,0.6-0.7,0.8c-0.2,0.2-0.5,0.5-0.7,0.6c-0.3,0.2-0.6,0.3-0.9,0.4c-0.4,0.1-0.8,0.1-1.2,0.1
							c-0.5,0-0.9-0.1-1.3-0.2c-0.4-0.1-0.7-0.3-1-0.5c-0.3-0.2-0.5-0.5-0.7-0.9c-0.2-0.4-0.3-0.8-0.3-1.3c0-0.7,0.2-1.2,0.5-1.6
							c0.3-0.4,0.7-0.7,1.2-0.9c0.5-0.2,1.1-0.3,1.7-0.4c0.6-0.1,1.3-0.2,1.9-0.2c0.2,0,0.5-0.1,0.7-0.1c0.2,0,0.4-0.1,0.5-0.2
							c0.1-0.1,0.2-0.2,0.3-0.4c0.1-0.2,0.1-0.4,0.1-0.6c0-0.4-0.1-0.7-0.2-1c-0.1-0.3-0.3-0.5-0.6-0.6c-0.2-0.2-0.5-0.3-0.8-0.3
							c-0.3-0.1-0.6-0.1-1-0.1c-0.8,0-1.4,0.2-1.9,0.5c-0.5,0.4-0.7,0.9-0.8,1.7H84.7z M91.1,105.6L91.1,105.6
							c-0.1,0.1-0.3,0.2-0.5,0.3c-0.2,0.1-0.4,0.1-0.6,0.1c-0.5,0.1-1,0.2-1.6,0.2c-0.5,0.1-1,0.2-1.5,0.3c-0.4,0.1-0.8,0.3-1.1,0.6
							c-0.3,0.3-0.4,0.6-0.4,1.1c0,0.3,0.1,0.6,0.2,0.8c0.1,0.2,0.3,0.4,0.5,0.6c0.2,0.2,0.4,0.3,0.7,0.4c0.3,0.1,0.5,0.1,0.8,0.1
							c0.5,0,0.9-0.1,1.3-0.2c0.4-0.1,0.8-0.3,1.1-0.6c0.3-0.3,0.6-0.6,0.7-1c0.2-0.4,0.3-0.8,0.3-1.3V105.6z"/>
					</g>
				</g>
			</g>
			<g>
				<g>
					<g>
						<path fill="#FFFFFF" d="M102.3,97.3h1.2v13.6h-1.2V97.3z"/>
					</g>
				</g>
			</g>
			<g>
				<g>
					<g>
						<path fill="#FFFFFF" d="M126.6,97.3h8.6v1.1h-7.3v4.9h6.5v1.1h-6.5v6.5h-1.3V97.3z"/>
					</g>
				</g>
			</g>
			<g>
				<g>
					<g>
						<path fill="#FFFFFF" d="M144.2,97.4h1.2v1.9h-1.2V97.4z M144.2,101.1h1.2v9.8h-1.2V101.1z"/>
					</g>
				</g>
			</g>
			<g>
				<g>
					<g>
						<path fill="#FFFFFF" d="M155.3,97.3h1.2v13.6h-1.2V97.3z"/>
					</g>
				</g>
			</g>
			<g>
				<g>
					<g>
						<path fill="#FFFFFF" d="M166.5,101.1h1.1v1.7h0.1c0.3-0.6,0.7-1.1,1.3-1.4c0.5-0.3,1.2-0.5,2-0.5c0.6,0,1.2,0.2,1.8,0.5
							c0.5,0.3,0.9,0.8,1.1,1.4c0.3-0.6,0.7-1.1,1.3-1.4c0.6-0.3,1.2-0.5,1.8-0.5c2.2,0,3.3,1.1,3.3,3.4v6.7h-1.2v-6.6
							c0-0.8-0.2-1.4-0.5-1.9c-0.3-0.4-0.9-0.6-1.8-0.6c-0.5,0-1,0.1-1.3,0.3c-0.3,0.2-0.6,0.5-0.8,0.8c-0.2,0.3-0.3,0.7-0.4,1.1
							c-0.1,0.4-0.1,0.9-0.1,1.3v5.6h-1.2v-6.7c0-0.3,0-0.6-0.1-0.9c-0.1-0.3-0.2-0.6-0.3-0.8c-0.2-0.2-0.4-0.4-0.6-0.5
							c-0.3-0.1-0.6-0.2-1-0.2c-0.5,0-1,0.1-1.3,0.3c-0.4,0.2-0.7,0.4-0.9,0.8c-0.2,0.3-0.4,0.7-0.5,1.2c-0.1,0.4-0.2,0.9-0.2,1.4
							v5.5h-1.2V101.1z"/>
					</g>
				</g>
			</g>
			<g>
				<g>
					<g>
						<path fill="#FFFFFF" d="M189.9,101.1h1.1v1.7h0.1c0.3-0.6,0.7-1.1,1.3-1.4c0.5-0.3,1.2-0.5,2-0.5c0.6,0,1.2,0.2,1.8,0.5
							c0.5,0.3,0.9,0.8,1.1,1.4c0.3-0.6,0.7-1.1,1.3-1.4c0.6-0.3,1.2-0.5,1.8-0.5c2.2,0,3.3,1.1,3.3,3.4v6.7h-1.2v-6.6
							c0-0.8-0.2-1.4-0.5-1.9c-0.3-0.4-0.9-0.6-1.8-0.6c-0.5,0-1,0.1-1.3,0.3c-0.3,0.2-0.6,0.5-0.8,0.8c-0.2,0.3-0.3,0.7-0.4,1.1
							c-0.1,0.4-0.1,0.9-0.1,1.3v5.6h-1.2v-6.7c0-0.3,0-0.6-0.1-0.9c-0.1-0.3-0.2-0.6-0.3-0.8c-0.2-0.2-0.4-0.4-0.6-0.5
							c-0.3-0.1-0.6-0.2-1-0.2c-0.5,0-1,0.1-1.3,0.3c-0.4,0.2-0.7,0.4-0.9,0.8c-0.2,0.3-0.4,0.7-0.5,1.2c-0.1,0.4-0.2,0.9-0.2,1.4
							v5.5h-1.2V101.1z"/>
					</g>
				</g>
			</g>
			<g>
				<g>
					<g>
						<path fill="#FFFFFF" d="M213.3,104.1c0.1-1.2,0.5-2,1.2-2.5c0.7-0.5,1.7-0.8,2.8-0.8c0.4,0,0.9,0,1.3,0.1
							c0.4,0.1,0.8,0.2,1.2,0.5c0.3,0.2,0.6,0.6,0.8,1c0.2,0.4,0.3,0.9,0.3,1.6v5.2c0,0.5,0.2,0.7,0.7,0.7c0.1,0,0.3,0,0.4-0.1v1
							c-0.1,0-0.3,0-0.4,0.1c-0.1,0-0.2,0-0.4,0c-0.3,0-0.6,0-0.7-0.1c-0.2-0.1-0.3-0.2-0.4-0.4c-0.1-0.2-0.2-0.3-0.2-0.5
							c0-0.2,0-0.4,0-0.7h0c-0.2,0.3-0.4,0.6-0.7,0.8c-0.2,0.2-0.5,0.5-0.7,0.6c-0.3,0.2-0.6,0.3-0.9,0.4c-0.4,0.1-0.8,0.1-1.2,0.1
							c-0.5,0-0.9-0.1-1.3-0.2c-0.4-0.1-0.7-0.3-1-0.5c-0.3-0.2-0.5-0.5-0.7-0.9c-0.2-0.4-0.3-0.8-0.3-1.3c0-0.7,0.2-1.2,0.5-1.6
							c0.3-0.4,0.7-0.7,1.2-0.9c0.5-0.2,1.1-0.3,1.7-0.4c0.6-0.1,1.3-0.2,1.9-0.2c0.2,0,0.5-0.1,0.7-0.1c0.2,0,0.4-0.1,0.5-0.2
							c0.1-0.1,0.2-0.2,0.3-0.4c0.1-0.2,0.1-0.4,0.1-0.6c0-0.4-0.1-0.7-0.2-1c-0.1-0.3-0.3-0.5-0.6-0.6c-0.2-0.2-0.5-0.3-0.8-0.3
							c-0.3-0.1-0.6-0.1-1-0.1c-0.7,0-1.4,0.2-1.9,0.5c-0.5,0.4-0.7,0.9-0.8,1.7H213.3z M219.7,105.6L219.7,105.6
							c-0.1,0.1-0.3,0.2-0.5,0.3c-0.2,0.1-0.4,0.1-0.6,0.1c-0.5,0.1-1,0.2-1.6,0.2c-0.5,0.1-1,0.2-1.5,0.3c-0.4,0.1-0.8,0.3-1.1,0.6
							c-0.3,0.3-0.4,0.6-0.4,1.1c0,0.3,0.1,0.6,0.2,0.8c0.1,0.2,0.3,0.4,0.5,0.6c0.2,0.2,0.4,0.3,0.7,0.4c0.3,0.1,0.5,0.1,0.8,0.1
							c0.5,0,0.9-0.1,1.3-0.2c0.4-0.1,0.8-0.3,1.1-0.6c0.3-0.3,0.6-0.6,0.7-1c0.2-0.4,0.3-0.8,0.3-1.3V105.6z"/>
					</g>
				</g>
			</g>
			<g>
				<g>
					<g>
						<path fill="#FFFFFF" d="M230.9,97.3h1.2v8.5l5.4-4.8h1.6l-4.2,3.6l4.5,6.2h-1.5l-3.9-5.4l-1.9,1.6v3.7h-1.2V97.3z"/>
					</g>
				</g>
			</g>
			<g>
				<g>
					<g>
						<path fill="#FFFFFF" d="M248.8,106.3c0,0.4,0.1,0.9,0.2,1.4c0.1,0.5,0.3,0.9,0.6,1.2s0.6,0.7,1,0.9c0.4,0.2,0.9,0.4,1.5,0.4
							c0.9,0,1.6-0.2,2.1-0.7c0.5-0.5,0.8-1.1,1-1.8h1.2c-0.3,1.1-0.7,2-1.4,2.6c-0.7,0.6-1.6,0.9-2.9,0.9c-0.8,0-1.5-0.1-2-0.4
							c-0.6-0.3-1-0.7-1.4-1.1c-0.4-0.5-0.6-1-0.8-1.7c-0.2-0.6-0.3-1.3-0.3-2c0-0.6,0.1-1.3,0.3-1.9c0.2-0.6,0.4-1.2,0.8-1.7
							c0.4-0.5,0.8-0.9,1.4-1.2c0.6-0.3,1.2-0.4,2-0.4c0.8,0,1.5,0.2,2,0.5c0.6,0.3,1,0.7,1.4,1.2c0.3,0.5,0.6,1.1,0.8,1.8
							c0.2,0.7,0.2,1.3,0.2,2H248.8z M255.1,105.3c0-0.5-0.1-0.9-0.2-1.3c-0.1-0.4-0.3-0.8-0.6-1.1c-0.3-0.3-0.6-0.6-1-0.8
							c-0.4-0.2-0.8-0.3-1.3-0.3c-0.5,0-0.9,0.1-1.3,0.3c-0.4,0.2-0.7,0.5-1,0.8c-0.3,0.3-0.5,0.7-0.6,1.1c-0.2,0.4-0.3,0.9-0.3,1.3
							H255.1z"/>
					</g>
				</g>
			</g>
			<g>
				<g>
					<g>
						<path fill="#FFFFFF" d="M265.6,101.1h1.1v2.3h0c0.3-0.8,0.8-1.4,1.4-1.8c0.6-0.4,1.4-0.6,2.3-0.6v1.2c-0.5,0-1,0-1.5,0.2
							c-0.4,0.2-0.8,0.4-1.2,0.7c-0.3,0.3-0.6,0.7-0.8,1.1c-0.2,0.4-0.3,0.9-0.3,1.4v5.2h-1.2V101.1z"/>
					</g>
				</g>
			</g>
			<g>
				<g>
					<g>
						<path fill="#FFFFFF" d="M285.1,104c0-0.4-0.1-0.7-0.2-1c-0.1-0.3-0.3-0.5-0.6-0.7c-0.2-0.2-0.5-0.3-0.8-0.4
							c-0.3-0.1-0.6-0.1-1-0.1c-0.3,0-0.5,0-0.8,0.1c-0.3,0.1-0.5,0.2-0.8,0.3c-0.2,0.1-0.4,0.3-0.6,0.5c-0.1,0.2-0.2,0.5-0.2,0.8
							c0,0.3,0.1,0.5,0.2,0.7c0.1,0.2,0.3,0.3,0.5,0.5c0.2,0.1,0.4,0.2,0.7,0.3c0.2,0.1,0.5,0.2,0.7,0.2l1.6,0.4
							c0.3,0,0.7,0.1,1,0.3c0.3,0.1,0.6,0.3,0.9,0.5c0.3,0.2,0.5,0.5,0.6,0.8c0.2,0.3,0.2,0.7,0.2,1.1c0,0.5-0.1,1-0.4,1.4
							c-0.2,0.4-0.5,0.7-0.9,0.9c-0.4,0.2-0.8,0.4-1.3,0.5c-0.5,0.1-0.9,0.2-1.4,0.2c-1.2,0-2.1-0.3-2.8-0.8
							c-0.7-0.6-1.1-1.4-1.2-2.6h1.2c0.1,0.8,0.3,1.4,0.9,1.8c0.5,0.4,1.2,0.6,2,0.6c0.3,0,0.6,0,0.9-0.1c0.3-0.1,0.6-0.2,0.9-0.3
							c0.3-0.2,0.5-0.3,0.7-0.6c0.2-0.2,0.3-0.5,0.3-0.9c0-0.3-0.1-0.5-0.2-0.7c-0.1-0.2-0.3-0.4-0.5-0.5c-0.2-0.1-0.4-0.2-0.7-0.3
							c-0.3-0.1-0.5-0.2-0.8-0.2l-1.5-0.3c-0.4-0.1-0.8-0.2-1.1-0.4c-0.3-0.1-0.6-0.3-0.9-0.5c-0.2-0.2-0.4-0.4-0.6-0.7
							c-0.1-0.3-0.2-0.6-0.2-1.1c0-0.5,0.1-0.9,0.3-1.3c0.2-0.4,0.5-0.6,0.9-0.9c0.4-0.2,0.8-0.4,1.2-0.5c0.4-0.1,0.9-0.2,1.3-0.2
							c0.5,0,1,0.1,1.4,0.2c0.4,0.1,0.8,0.3,1.1,0.6c0.3,0.3,0.6,0.6,0.8,1c0.2,0.4,0.3,0.9,0.3,1.4H285.1z"/>
					</g>
				</g>
			</g>
		</g>
		<g>
			<g>
				<g>
					<path fill="#FFFFFF" d="M255.4,67.2c-14,0-14.7-12.2-14.5-16c10.2,0,41.2,0,41.2,0V39.1h-41.5c0.4-8.4,1.5-15,7.7-17.5
						c0.9-0.4,2.1-0.7,3-0.8c4.9-0.5,34-0.2,34-0.2V7.5c0,0-33.7-0.5-40.2,0c-4.8,0.3-8.6,2.3-12,4.8c-5,3.8-8.1,8.9-9.7,16
						c-0.3-5.3-1.2-9.8-3.5-13.4c-2.3-3.6-6.7-7.3-11.8-7.3c-5,0-61.6,0-61.6,0s0,11.1,0,22.1h0c0,0,0,20,0,25.9
						c0,7.8-7,15.7-21.2,15.7h-0.7c-14.1,0-21.2-7.9-21.2-15.7c0-24,0-48.1,0-48.1H85.6v11.2c-1.5-2.6-2.6-4.7-4.6-6.7
						c-2.2-2.2-6-4.5-9.6-4.5c-11,0-61.7,0-61.7,0v73.4h17.9V52.5c1.8,0.8,3.8,2.7,8.8,2.7c5.3,0,33.1,0,35.9,0
						c7.8,0,12.4-7.1,13.4-11.2c-0.1,10.1,0.5,18.3,4.3,24.7c1.5,2.5,3.8,5.2,6.2,7.2c3.2,2.6,7.3,4.4,11.6,5.7
						c8.7,2.7,22.2,3.1,31.4,0.8c10.3-2.5,17.2-7.2,21.4-15.5c1.7-3.3,2.7-7.4,3.2-11.6c8.5,0,17.7,0,26.1,0c-0.1,4.3,2,6.4,4.3,9.3
						c3.8,4.6,12.8,16.9,12.8,16.9h21c0,0-18.5-23.8-19.6-26.3c3.3-0.8,12.5-4.9,13.9-12.3c0.5,9.6,0.2,18.6,3.5,25
						c3.8,7.4,10.5,13.6,20.7,13.6c7.2,0,40.4,0,40.4,0V67.2C287,67.2,257.6,67.2,255.4,67.2z M69.5,37.8c-1.2,2.6-3.4,4.9-10.2,4.9
						c-12.8,0-31.9,0-31.9,0V20.4c0,0,18.8,0,27.8,0c4.3,0,8.5-0.4,11.2,1.1c1.5,0.8,3.3,3.1,3.8,5.4C70.8,30.1,70.7,35.1,69.5,37.8
						z M196.9,42.5c-12,0-33.1,0.1-33.1,0.1V20.7l0.5-0.3c0,0,18.7,0,27.6,0c5.3,0,9.1-0.3,11.8,2.1c2.1,1.9,3.2,4.3,3.2,8.8
						C206.9,35.7,206.4,42.5,196.9,42.5z"/>
				</g>
			</g>
		</g>
	</g>
</g>
<g id="Footer">
</g>
</svg>
