<?xml version="1.0" encoding="utf-8"?>
<!-- Generator: Adobe Illustrator 18.1.1, SVG Export Plug-In . SVG Version: 6.00 Build 0)  -->
<svg version="1.1" xmlns="http://www.w3.org/2000/svg" xmlns:xlink="http://www.w3.org/1999/xlink" x="0px" y="0px"
	 viewBox="0 0 865 71" enable-background="new 0 0 865 71" xml:space="preserve">
<g id="Layer_1">
</g>
<g id="Layer_3">
</g>
<g id="Layer_16">
</g>
<g id="working_layer" display="none">
	<g display="inline">
		<g>
			<polyline fill="none" stroke="#FEBC11" stroke-width="2.5" stroke-miterlimit="10" points="833.5,21.7 833.5,42.7 862,42.7 
				862,21.7 			"/>
			<line fill="none" stroke="#FEBC11" stroke-width="2.5" stroke-miterlimit="10" x1="858.3" y1="36.7" x2="837.2" y2="36.7"/>
			<polyline fill="none" stroke="#FEBC11" stroke-width="2.5" stroke-miterlimit="10" points="862,36.7 872.5,36.7 885.2,44.1 
				885.2,21 872.4,28.4 862,28.4 			"/>
			<polyline fill="none" stroke="#FEBC11" stroke-width="2.5" stroke-miterlimit="10" points="833.5,28.4 828.2,28.4 828.2,36.7 
				833.5,36.7 			"/>
			<line fill="none" stroke="#FEBC11" stroke-width="2.5" stroke-miterlimit="10" x1="847.8" y1="43.2" x2="847.8" y2="68"/>
			<polyline fill="none" stroke="#FEBC11" stroke-width="2.5" stroke-miterlimit="10" points="833.7,67.3 838.2,52.2 857.5,52.2 
				862,67.3 			"/>
			<g>
				<g>
					<circle fill="none" stroke="#FEBC11" stroke-width="2.5" stroke-miterlimit="10" cx="833.8" cy="9.9" r="12.5"/>
					<circle fill="none" stroke="#FEBC11" stroke-width="2.5" stroke-miterlimit="10" cx="833.8" cy="9.9" r="6.5"/>
				</g>
				<g>
					<circle fill="none" stroke="#FEBC11" stroke-width="2.5" stroke-miterlimit="10" cx="862.9" cy="9.9" r="12.5"/>
					<circle fill="none" stroke="#FEBC11" stroke-width="2.5" stroke-miterlimit="10" cx="862.9" cy="9.9" r="6.5"/>
				</g>
			</g>
			<line fill="none" stroke="#FEBC11" stroke-width="2.5" stroke-miterlimit="10" x1="842.6" y1="18.7" x2="853.6" y2="18.7"/>
		</g>
		<g>
			<rect x="792.6" y="-19.6" fill="none" stroke="#FEBC11" stroke-width="2.5" stroke-miterlimit="10" width="115" height="115"/>
		</g>
	</g>
	<rect x="711.4" y="-64.8" display="inline" fill="#CDCCCC" width="32" height="149.3"/>
</g>
<g id="Video_Options" display="none">
	<g id="Video_Examples">
	</g>
	<g id="Video_Examples_copy">
	</g>
</g>
<g id="Video_Btn" display="none">
</g>
<g id="Text" display="none">
</g>
<g id="Menu" display="none">
</g>
<g id="Menu_Button" display="none">
</g>
<g id="Contact">
	<g id="Close" display="none">
	</g>
	<g id="Open">
	</g>
</g>
<g id="Logos" display="none">
</g>
<g id="Layer_17">
	<g>
		<g>
			<g>
				<g>
					<path fill="#FFFFFF" d="M27.3,10.8h10.6l4.9,15.8l5.1-15.8h10.5l-8.3,23l5,13.3l12.5-36.3H80L60.3,60.2h-9.6l-7.8-19.4L35,60.2
						h-9.5L5.8,10.7h12.3l12.5,36.3l4.9-13.3L27.3,10.8z"/>
				</g>
			</g>
		</g>
		<g>
			<g>
				<g>
					<path fill="#FFFFFF" d="M86.5,60.2V10.7h11.4v49.4H86.5z"/>
				</g>
			</g>
		</g>
		<g>
			<g>
				<g>
					<path fill="#FFFFFF" d="M147.1,20.7h-15v39.4h-11.4V20.7h-15.1v-10h41.6V20.7z"/>
				</g>
			</g>
		</g>
		<g>
			<g>
				<g>
					<path fill="#FFFFFF" d="M197.4,10.7v49.4H186V39.9h-19.7v20.3h-11.4V10.7h11.4v19.1H186V10.7H197.4z"/>
				</g>
			</g>
		</g>
		<g>
			<g>
				<g>
					<path fill="#FFFFFF" d="M229.7,60.6c-3.5,0-6.7-0.7-9.6-2.2c-2.9-1.4-5.4-3.3-7.4-5.7c-2.1-2.3-3.7-5-4.8-8
						c-1.1-3-1.7-6.1-1.7-9.3c0-3.2,0.6-6.4,1.8-9.4c1.2-3,2.8-5.7,4.9-8s4.6-4.1,7.5-5.5c2.9-1.4,6.1-2.1,9.5-2.1
						c3.5,0,6.7,0.7,9.6,2.2c2.9,1.4,5.3,3.3,7.4,5.7c2.1,2.4,3.7,5.1,4.8,8.1c1.1,3,1.7,6.1,1.7,9.2c0,3.3-0.6,6.4-1.8,9.4
						c-1.2,3-2.8,5.7-4.9,8s-4.6,4.1-7.5,5.5C236.3,59.9,233.1,60.6,229.7,60.6z M217.8,35.5c0,1.9,0.3,3.7,0.8,5.5
						c0.5,1.8,1.3,3.4,2.3,4.8s2.3,2.5,3.8,3.3c1.5,0.8,3.2,1.3,5.2,1.3c2,0,3.7-0.4,5.2-1.3c1.5-0.9,2.7-2,3.7-3.4
						c1-1.4,1.7-3,2.2-4.8s0.7-3.6,0.7-5.5c0-1.9-0.3-3.7-0.8-5.5c-0.5-1.8-1.3-3.4-2.3-4.7c-1-1.4-2.3-2.5-3.8-3.3
						c-1.5-0.8-3.2-1.2-5.1-1.2c-2,0-3.7,0.4-5.2,1.3c-1.5,0.9-2.7,2-3.7,3.4c-1,1.4-1.8,3-2.3,4.8C218,31.8,217.8,33.6,217.8,35.5z
						"/>
				</g>
			</g>
		</g>
		<g>
			<g>
				<g>
					<path fill="#FFFFFF" d="M283.3,50.4c1.9,0,3.6-0.4,4.9-1.2c1.3-0.8,2.4-1.9,3.3-3.2c0.8-1.3,1.4-2.9,1.8-4.6
						c0.3-1.7,0.5-3.5,0.5-5.3V10.7h11.4V36c0,3.4-0.4,6.6-1.3,9.6c-0.9,3-2.2,5.6-4,7.8c-1.8,2.2-4.1,4-6.8,5.3
						c-2.8,1.3-6,1.9-9.9,1.9c-3.9,0-7.3-0.7-10.1-2c-2.8-1.3-5-3.1-6.8-5.4c-1.7-2.3-3-4.9-3.8-7.8c-0.8-3-1.2-6.1-1.2-9.3V10.7
						h11.4V36c0,1.9,0.2,3.7,0.6,5.4c0.4,1.7,1,3.3,1.8,4.6c0.8,1.3,1.9,2.4,3.2,3.2C279.7,50,281.4,50.4,283.3,50.4z"/>
				</g>
			</g>
		</g>
		<g>
			<g>
				<g>
					<path fill="#FFFFFF" d="M353.8,20.7h-15v39.4h-11.4V20.7h-15.1v-10h41.6V20.7z"/>
				</g>
			</g>
		</g>
		<g>
			<g>
				<g>
					<path fill="#FFFFFF" d="M437.1,47.5c0,2.1-0.4,4-1.3,5.6s-2.1,2.9-3.6,3.9c-1.5,1-3.3,1.8-5.4,2.4c-2,0.5-4.2,0.8-6.5,0.8
						h-24.1V10.7h27.5c1.7,0,3.3,0.4,4.7,1.1c1.4,0.7,2.6,1.7,3.6,2.9c1,1.2,1.7,2.5,2.3,4c0.5,1.5,0.8,3.1,0.8,4.6
						c0,2.4-0.6,4.6-1.8,6.7s-3,3.7-5.3,4.7c2.8,0.8,5.1,2.3,6.7,4.5C436.2,41.4,437.1,44.1,437.1,47.5z M407.6,20.5v10.2h11.2
						c1.3,0,2.4-0.4,3.3-1.3c1-0.8,1.5-2.1,1.5-3.9c0-1.6-0.4-2.9-1.3-3.8c-0.9-0.9-1.9-1.3-3.1-1.3H407.6z M425.4,45.2
						c0-1.5-0.4-2.8-1.3-3.9c-0.9-1.1-2-1.6-3.3-1.6h-13.2v10.8h12.7c1.5,0,2.7-0.5,3.7-1.5S425.4,46.8,425.4,45.2z"/>
				</g>
			</g>
		</g>
		<g>
			<g>
				<g>
					<path fill="#FFFFFF" d="M466.7,60.6c-3.5,0-6.7-0.7-9.6-2.2c-2.9-1.4-5.4-3.3-7.4-5.7c-2.1-2.3-3.7-5-4.8-8
						c-1.1-3-1.7-6.1-1.7-9.3c0-3.2,0.6-6.4,1.8-9.4c1.2-3,2.8-5.7,4.9-8s4.6-4.1,7.5-5.5c2.9-1.4,6.1-2.1,9.5-2.1
						c3.5,0,6.7,0.7,9.6,2.2c2.9,1.4,5.3,3.3,7.4,5.7c2.1,2.4,3.7,5.1,4.8,8.1c1.1,3,1.7,6.1,1.7,9.2c0,3.3-0.6,6.4-1.8,9.4
						c-1.2,3-2.8,5.7-4.9,8c-2.1,2.3-4.6,4.1-7.5,5.5C473.3,59.9,470.1,60.6,466.7,60.6z M454.7,35.5c0,1.9,0.3,3.7,0.8,5.5
						c0.5,1.8,1.3,3.4,2.3,4.8s2.3,2.5,3.8,3.3c1.5,0.8,3.2,1.3,5.2,1.3c2,0,3.7-0.4,5.2-1.3c1.5-0.9,2.7-2,3.7-3.4
						c1-1.4,1.7-3,2.2-4.8c0.5-1.8,0.7-3.6,0.7-5.5c0-1.9-0.3-3.7-0.8-5.5s-1.3-3.4-2.3-4.7c-1-1.4-2.3-2.5-3.8-3.3
						c-1.5-0.8-3.2-1.2-5.1-1.2c-2,0-3.7,0.4-5.2,1.3c-1.5,0.9-2.7,2-3.7,3.4c-1,1.4-1.8,3-2.3,4.8C455,31.8,454.7,33.6,454.7,35.5z
						"/>
				</g>
			</g>
		</g>
		<g>
			<g>
				<g>
					<path fill="#FFFFFF" d="M520.3,50.4c1.9,0,3.6-0.4,4.9-1.2c1.3-0.8,2.4-1.9,3.3-3.2c0.8-1.3,1.4-2.9,1.8-4.6
						c0.3-1.7,0.5-3.5,0.5-5.3V10.7h11.4V36c0,3.4-0.4,6.6-1.3,9.6c-0.9,3-2.2,5.6-4,7.8c-1.8,2.2-4.1,4-6.8,5.3
						c-2.8,1.3-6,1.9-9.9,1.9c-3.9,0-7.3-0.7-10.1-2c-2.8-1.3-5-3.1-6.8-5.4c-1.7-2.3-3-4.9-3.8-7.8c-0.8-3-1.2-6.1-1.2-9.3V10.7
						h11.4V36c0,1.9,0.2,3.7,0.6,5.4c0.4,1.7,1,3.3,1.8,4.6c0.8,1.3,1.9,2.4,3.2,3.2C516.7,50,518.3,50.4,520.3,50.4z"/>
				</g>
			</g>
		</g>
		<g>
			<g>
				<g>
					<path fill="#FFFFFF" d="M564.5,31.9v28.3h-11.4V10.7h8.9l23,29v-29h11.4v49.4h-9.2L564.5,31.9z"/>
				</g>
			</g>
		</g>
		<g>
			<g>
				<g>
					<path fill="#FFFFFF" d="M608,60.2V10.7h18.5c4.1,0,7.7,0.7,10.7,2c3.1,1.3,5.6,3.1,7.7,5.3c2.1,2.2,3.6,4.8,4.7,7.8
						c1,3,1.6,6.2,1.6,9.6c0,3.8-0.6,7.2-1.7,10.2c-1.2,3-2.8,5.6-5,7.8c-2.2,2.2-4.8,3.8-7.8,5c-3,1.2-6.4,1.8-10.1,1.8H608z
						 M639.5,35.4c0-2.2-0.3-4.2-0.9-6s-1.4-3.3-2.5-4.6c-1.1-1.3-2.5-2.3-4.1-3c-1.6-0.7-3.5-1-5.5-1h-7v29.4h7
						c2.1,0,3.9-0.4,5.6-1.1c1.6-0.7,3-1.8,4.1-3.1s1.9-2.9,2.5-4.7S639.5,37.5,639.5,35.4z"/>
				</g>
			</g>
		</g>
		<g>
			<g>
				<g>
					<path fill="#FFFFFF" d="M653.3,60.2l19-49.4h9.3l18.9,49.4h-12.1l-3.8-11.1h-15.4l-3.8,11.1H653.3z M676.9,22.8L671,41.2h11.6
						L676.9,22.8z"/>
				</g>
			</g>
		</g>
		<g>
			<g>
				<g>
					<path fill="#FFFFFF" d="M707.2,60.2V10.7h22.3c2.3,0,4.5,0.5,6.4,1.5c2,1,3.7,2.3,5.1,3.8c1.4,1.6,2.6,3.4,3.4,5.4
						c0.8,2,1.2,4,1.2,6.1c0,1.5-0.2,3-0.6,4.4c-0.4,1.4-0.9,2.8-1.6,4c-0.7,1.3-1.5,2.4-2.5,3.4c-1,1-2.1,1.8-3.4,2.5l11.4,18.4
						H736l-10-15.9h-7.5v15.9H707.2z M718.6,34.2H729c1.3,0,2.5-0.6,3.5-1.9c1-1.3,1.5-2.9,1.5-4.9c0-2-0.6-3.7-1.7-4.9
						c-1.1-1.2-2.3-1.8-3.6-1.8h-10.1V34.2z"/>
				</g>
			</g>
		</g>
		<g>
			<g>
				<g>
					<path fill="#FFFFFF" d="M756.6,60.2V10.7H768v49.4H756.6z"/>
				</g>
			</g>
		</g>
		<g>
			<g>
				<g>
					<path fill="#FFFFFF" d="M814.3,50.1v10h-34.7V10.7h34.1v10H791v9.6h19.5v9.3H791v10.5H814.3z"/>
				</g>
			</g>
		</g>
		<g>
			<g>
				<g>
					<path fill="#FFFFFF" d="M852.8,25.2c-0.2-0.2-0.7-0.5-1.5-1c-0.8-0.5-1.9-1-3.1-1.6c-1.3-0.6-2.6-1-4.1-1.5
						c-1.5-0.4-3-0.6-4.5-0.6c-1.9,0-3.4,0.3-4.5,1c-1,0.7-1.6,1.7-1.6,3.1c0,0.8,0.2,1.5,0.7,2.1c0.5,0.6,1.1,1.1,2,1.5
						c0.9,0.4,1.9,0.8,3.2,1.2c1.3,0.4,2.8,0.8,4.4,1.3c2.4,0.7,4.5,1.4,6.4,2.1c1.9,0.8,3.5,1.7,4.9,2.9c1.3,1.1,2.4,2.5,3.1,4.1
						s1.1,3.6,1.1,5.8c0,2.8-0.5,5.1-1.6,7.1c-1,1.9-2.4,3.5-4.1,4.7c-1.7,1.2-3.7,2-6,2.6c-2.3,0.5-4.6,0.8-6.9,0.8
						c-1.8,0-3.7-0.1-5.5-0.4c-1.9-0.3-3.7-0.7-5.5-1.2c-1.8-0.5-3.6-1.2-5.3-1.9c-1.7-0.7-3.3-1.6-4.7-2.6l5-10
						c0.2,0.2,0.9,0.7,1.9,1.3c1,0.7,2.3,1.3,3.8,1.9c1.5,0.7,3.2,1.2,5,1.7c1.9,0.5,3.7,0.8,5.6,0.8c4,0,6.1-1.2,6.1-3.7
						c0-0.9-0.3-1.7-0.9-2.3c-0.6-0.6-1.4-1.1-2.5-1.6c-1.1-0.5-2.3-0.9-3.8-1.4c-1.4-0.4-3-0.9-4.7-1.4c-2.3-0.7-4.2-1.5-5.9-2.3
						c-1.7-0.8-3.1-1.8-4.2-2.8c-1.1-1.1-1.9-2.3-2.5-3.7c-0.5-1.4-0.8-3-0.8-4.9c0-2.6,0.5-4.9,1.5-6.9s2.3-3.7,4-5
						c1.7-1.4,3.6-2.4,5.8-3.1s4.5-1,7-1c1.8,0,3.5,0.2,5.2,0.5c1.7,0.3,3.3,0.7,4.8,1.3c1.5,0.5,2.9,1.1,4.3,1.7
						c1.3,0.7,2.6,1.3,3.6,1.9L852.8,25.2z"/>
				</g>
			</g>
		</g>
	</g>
</g>
<g id="Footer">
</g>
</svg>
