<?xml version="1.0" encoding="utf-8"?>
<!-- Generator: Adobe Illustrator 18.1.1, SVG Export Plug-In . SVG Version: 6.00 Build 0)  -->
<svg version="1.1" xmlns="http://www.w3.org/2000/svg" xmlns:xlink="http://www.w3.org/1999/xlink" x="0px" y="0px"
	 viewBox="0 0 70 96.8" enable-background="new 0 0 70 96.8" xml:space="preserve">
<g id="Layer_1">
</g>
<g id="Layer_3">
</g>
<g id="Layer_16">
</g>
<g id="working_layer" display="none">
	<g display="inline">
		<g>
			<rect x="45" y="34" fill="none" width="115" height="115"/>
		</g>
		<g>
			<polygon fill="none" stroke="#CDCCCC" stroke-width="2.5" stroke-miterlimit="10" points="95,78.7 95,89 67.5,89 67.5,62.2 
				78.5,62.2 			"/>
		</g>
	</g>
</g>
<g id="Video_Options" display="none">
	<g id="Video_Examples">
	</g>
	<g id="Video_Examples_copy">
	</g>
</g>
<g id="Video_Btn" display="none">
</g>
<g id="Text" display="none">
</g>
<g id="Menu" display="none">
</g>
<g id="Menu_Button" display="none">
</g>
<g id="Contact">
	<g id="Close" display="none">
	</g>
	<g id="Open">
	</g>
</g>
<g id="Logos" display="none">
</g>
<g id="Layer_17">
	<g>
		<g>
			<g>
				<g>
					<g>
						<path fill="#FFFFFF" d="M21.7,84.3h-2.2v3.5h-0.9v-8.4h3.1c0.8,0,1.4,0.2,1.9,0.7c0.5,0.4,0.7,1,0.7,1.8
							c0,0.7-0.2,1.3-0.7,1.8C23.2,84.1,22.5,84.3,21.7,84.3z M21.7,80.2h-2.1v3.3h2.1c0.5,0,1-0.1,1.3-0.4s0.5-0.7,0.5-1.2
							c0-0.5-0.2-1-0.5-1.2C22.6,80.3,22.2,80.2,21.7,80.2z"/>
					</g>
				</g>
				<g>
					<g>
						<path fill="#FFFFFF" d="M28.4,87.8v-8.4h0.9V87h4.3v0.8H28.4z"/>
					</g>
				</g>
				<g>
					<g>
						<path fill="#FFFFFF" d="M42.4,87.8l-0.7-1.9h-3.6l-0.7,1.9h-1l3.1-8.4h0.8l3.1,8.4L42.4,87.8z M39.9,80.7l-1.6,4.4h3.1
							L39.9,80.7z"/>
					</g>
				</g>
				<g>
					<g>
						<path fill="#FFFFFF" d="M49.3,84.3v3.5h-0.9v-3.5L46,79.4l1,0l2,4l2-4l1,0L49.3,84.3z"/>
					</g>
				</g>
			</g>
		</g>
		<g>
			<g>
				<g>
					<g>
						<g>
							<path fill="#FFFFFF" d="M35,66.7C18.1,66.7,4.3,53,4.3,36C4.3,19.1,18.1,5.3,35,5.3S65.7,19.1,65.7,36
								C65.7,53,51.9,66.7,35,66.7z M35,7.8C19.5,7.8,6.8,20.5,6.8,36c0,15.5,12.6,28.2,28.2,28.2S63.2,51.6,63.2,36
								C63.2,20.5,50.5,7.8,35,7.8z"/>
						</g>
					</g>
				</g>
			</g>
		</g>
	</g>
	<g>
		<g>
			<g>
				<path fill="#FFFFFF" d="M28.9,49.6c-0.3,0-0.6-0.1-0.9-0.4c-0.5-0.5-0.5-1.3,0-1.8l11.3-11.3L28,24.9c-0.5-0.5-0.5-1.3,0-1.8
					s1.3-0.5,1.8,0L42,35.3c0.5,0.5,0.5,1.3,0,1.8L29.8,49.2C29.6,49.5,29.2,49.6,28.9,49.6z"/>
			</g>
		</g>
	</g>
</g>
<g id="Footer">
</g>
</svg>
