<?xml version="1.0" encoding="utf-8"?>
<!-- Generator: Adobe Illustrator 18.1.1, SVG Export Plug-In . SVG Version: 6.00 Build 0)  -->
<svg version="1.1" xmlns="http://www.w3.org/2000/svg" xmlns:xlink="http://www.w3.org/1999/xlink" x="0px" y="0px"
	 viewBox="0 0 70 96.8" enable-background="new 0 0 70 96.8" xml:space="preserve">
<g id="Layer_1">
</g>
<g id="Layer_3">
</g>
<g id="Layer_16">
</g>
<g id="working_layer" display="none">
	<g display="inline">
		<g>
			<rect x="45" y="-11.6" fill="none" width="115" height="115"/>
		</g>
	</g>
</g>
<g id="Video_Options" display="none">
	<g id="Video_Examples">
	</g>
	<g id="Video_Examples_copy">
	</g>
</g>
<g id="Video_Btn" display="none">
</g>
<g id="Text" display="none">
</g>
<g id="Menu" display="none">
</g>
<g id="Menu_Button" display="none">
</g>
<g id="Contact">
	<g id="Close" display="none">
	</g>
	<g id="Open">
	</g>
</g>
<g id="Logos" display="none">
</g>
<g id="Layer_17">
	<g>
		<g>
			<g>
				<g>
					<g>
						<path fill="#FFFFFF" d="M15.9,84.2h-2.2v3.5h-0.9v-8.4h3.1c0.8,0,1.4,0.2,1.9,0.7c0.5,0.4,0.7,1,0.7,1.8
							c0,0.7-0.2,1.3-0.7,1.8C17.4,84,16.7,84.2,15.9,84.2z M15.9,80.1h-2.1v3.3h2.1c0.5,0,1-0.1,1.3-0.4s0.5-0.7,0.5-1.2
							c0-0.5-0.2-1-0.5-1.2C16.8,80.2,16.4,80.1,15.9,80.1z"/>
					</g>
				</g>
				<g>
					<g>
						<path fill="#FFFFFF" d="M27.5,87.7l-0.7-1.9h-3.6l-0.7,1.9h-1l3.1-8.4h0.8l3.1,8.4L27.5,87.7z M25,80.6L23.4,85h3.1L25,80.6z"
							/>
					</g>
				</g>
				<g>
					<g>
						<path fill="#FFFFFF" d="M35,87.7c-0.9,0-1.6-0.3-2.1-0.8s-0.8-1.2-0.8-2v-5.6h0.9v5.6c0,0.6,0.2,1.1,0.6,1.5
							c0.4,0.4,0.9,0.6,1.5,0.6c0.6,0,1.1-0.2,1.5-0.6c0.4-0.4,0.6-0.9,0.6-1.5v-5.6h0.9v5.6c0,0.8-0.3,1.5-0.8,2.1
							C36.5,87.5,35.8,87.7,35,87.7z"/>
					</g>
				</g>
				<g>
					<g>
						<path fill="#FFFFFF" d="M44.7,87.7c-0.6,0-1.2-0.1-1.6-0.2c-0.4-0.2-0.9-0.5-1.3-0.9l0.6-0.6c0.3,0.3,0.7,0.6,1,0.7
							c0.3,0.1,0.8,0.2,1.3,0.2c0.6,0,1.1-0.1,1.4-0.4c0.4-0.3,0.5-0.7,0.5-1.1c0-0.5-0.1-0.8-0.3-1s-0.4-0.3-0.5-0.3
							c-0.2-0.1-0.4-0.1-0.7-0.2l-1-0.2c-0.7-0.1-1.2-0.3-1.6-0.7c-0.4-0.3-0.6-0.9-0.6-1.5c0-0.7,0.2-1.3,0.7-1.7
							c0.5-0.4,1.1-0.6,2-0.6c0.5,0,1,0.1,1.4,0.2c0.4,0.1,0.8,0.4,1.1,0.7l-0.6,0.6c-0.3-0.2-0.5-0.4-0.9-0.5
							C45.5,80,45.2,80,44.7,80c-0.6,0-1,0.1-1.3,0.4S43,81,43,81.5c0,0.4,0.1,0.7,0.3,0.9s0.4,0.3,0.6,0.4c0.2,0.1,0.4,0.1,0.6,0.2
							l0.9,0.1c0.4,0.1,0.7,0.1,0.9,0.2c0.2,0.1,0.5,0.3,0.8,0.6c0.3,0.3,0.5,0.8,0.5,1.5c0,0.7-0.3,1.3-0.8,1.7
							C46.3,87.5,45.6,87.7,44.7,87.7z"/>
					</g>
				</g>
				<g>
					<g>
						<path fill="#FFFFFF" d="M51.9,87.7v-8.4h5.2v0.8h-4.3v3h3.7v0.8h-3.7v3h4.3v0.8H51.9z"/>
					</g>
				</g>
			</g>
		</g>
		<g>
			<g>
				<g>
					<g>
						<g>
							<path fill="#FFFFFF" d="M35,66.6c-16.9,0-30.7-13.8-30.7-30.7C4.3,19,18.1,5.2,35,5.2S65.7,19,65.7,35.9
								C65.7,52.8,51.9,66.6,35,66.6z M35,7.7C19.5,7.7,6.8,20.4,6.8,35.9c0,15.5,12.6,28.2,28.2,28.2s28.2-12.6,28.2-28.2
								C63.2,20.4,50.5,7.7,35,7.7z"/>
						</g>
					</g>
				</g>
			</g>
			<g>
				<g>
					<g>
						<g>
							<path fill="#FFFFFF" d="M40,49.6c-0.7,0-1.3-0.6-1.3-1.3V23.9c0-0.7,0.6-1.3,1.3-1.3s1.3,0.6,1.3,1.3v24.4
								C41.2,49,40.7,49.6,40,49.6z"/>
						</g>
					</g>
				</g>
				<g>
					<g>
						<g>
							<path fill="#FFFFFF" d="M30,49.6L30,49.6c-0.7,0-1.3-0.6-1.3-1.3l0-24.4c0-0.7,0.6-1.3,1.3-1.3l0,0c0.7,0,1.3,0.6,1.3,1.3
								l0,24.4C31.3,49,30.7,49.6,30,49.6z"/>
						</g>
					</g>
				</g>
			</g>
		</g>
	</g>
</g>
<g id="Footer">
</g>
</svg>
