<?xml version="1.0" encoding="utf-8"?>
<!-- Generator: Adobe Illustrator 18.1.1, SVG Export Plug-In . SVG Version: 6.00 Build 0)  -->
<svg version="1.1" xmlns="http://www.w3.org/2000/svg" xmlns:xlink="http://www.w3.org/1999/xlink" x="0px" y="0px"
	 viewBox="0 0 132.7 51.3" enable-background="new 0 0 132.7 51.3" xml:space="preserve">
<g id="Layer_1">
</g>
<g id="Layer_3">
</g>
<g id="Layer_16">
</g>
<g id="working_layer" display="none">
</g>
<g id="Video_Options" display="none">
	<g id="Video_Examples">
	</g>
	<g id="Video_Examples_copy">
	</g>
</g>
<g id="Video_Btn" display="none">
</g>
<g id="Text" display="none">
</g>
<g id="Menu" display="none">
</g>
<g id="Menu_Button" display="none">
</g>
<g id="Contact">
	<g id="Close" display="none">
	</g>
	<g id="Open">
	</g>
</g>
<g id="Logos" display="none">
</g>
<g id="Layer_17">
</g>
<g id="Footer">
	<g>
		<g>
			<path fill="#FFFFFF" d="M36,14.7c-0.7,0-1.3-0.2-1.7-0.6c-0.4-0.4-0.6-0.8-0.7-1.2c-0.1-0.4-0.1-1-0.1-1.8c0-0.7,0-1.3,0.1-1.7
				c0-0.4,0.3-0.9,0.7-1.3c0.4-0.4,1-0.6,1.7-0.6c0.6,0,1.2,0.2,1.6,0.6c0.4,0.4,0.7,0.9,0.8,1.6h-0.8c-0.1-0.4-0.3-0.8-0.6-1.1
				c-0.3-0.3-0.7-0.4-1.1-0.4c-0.5,0-0.9,0.1-1.2,0.4s-0.4,0.6-0.5,0.9c-0.1,0.3-0.1,0.9-0.1,1.6c0,0.8,0,1.3,0.1,1.6
				s0.2,0.6,0.5,0.9c0.3,0.3,0.7,0.4,1.2,0.4c0.4,0,0.8-0.1,1.1-0.4c0.3-0.3,0.5-0.6,0.6-1.1h0.8c-0.1,0.7-0.4,1.2-0.8,1.6
				S36.6,14.7,36,14.7z"/>
		</g>
		<g>
			<path fill="#FFFFFF" d="M44.5,14c-0.5,0.5-1.1,0.7-1.8,0.7s-1.3-0.2-1.7-0.6c-0.4-0.4-0.6-0.8-0.7-1.2c-0.1-0.4-0.1-1-0.1-1.8
				c0-0.7,0-1.3,0.1-1.7c0-0.4,0.3-0.9,0.7-1.3c0.4-0.4,1-0.6,1.7-0.6s1.3,0.2,1.7,0.6C44.7,8.5,45,8.9,45,9.3
				c0.1,0.4,0.1,1,0.1,1.9c0,0.7,0,1.3-0.1,1.7C45,13.2,44.8,13.6,44.5,14z M43.9,8.7c-0.3-0.3-0.7-0.5-1.2-0.5
				c-0.5,0-0.9,0.1-1.1,0.4C41.2,8.9,41,9.2,41,9.5c-0.1,0.3-0.1,0.8-0.1,1.6c0,0.8,0,1.3,0.1,1.6c0.1,0.3,0.2,0.6,0.5,0.9
				c0.3,0.3,0.7,0.4,1.1,0.4c0.5,0,0.9-0.1,1.1-0.4s0.4-0.6,0.5-0.9s0.1-0.8,0.1-1.6c0-0.8,0-1.3-0.1-1.6
				C44.2,9.2,44.1,8.9,43.9,8.7z"/>
		</g>
		<g>
			<path fill="#FFFFFF" d="M49.9,11.7H48v2.9h-0.8V7.5h2.7c0.7,0,1.2,0.2,1.6,0.6c0.4,0.4,0.6,0.9,0.6,1.5c0,0.6-0.2,1.1-0.6,1.5
				S50.5,11.7,49.9,11.7z M49.8,8.2H48V11h1.8c0.5,0,0.8-0.1,1.1-0.4c0.3-0.2,0.4-0.6,0.4-1.1c0-0.5-0.1-0.8-0.4-1
				S50.3,8.2,49.8,8.2z"/>
		</g>
		<g>
			<path fill="#FFFFFF" d="M55.7,11.7v3H55v-3l-2.1-4.2l0.8,0l1.7,3.4L57,7.5l0.8,0L55.7,11.7z"/>
		</g>
		<g>
			<path fill="#FFFFFF" d="M63.3,14.7l-1.6-3.2H60v3.2h-0.8V7.5H62c0.6,0,1.1,0.2,1.5,0.5c0.4,0.4,0.6,0.8,0.6,1.4
				c0,0.5-0.1,0.9-0.4,1.3c-0.3,0.3-0.7,0.5-1.1,0.6l1.7,3.2L63.3,14.7z M61.9,8.2H60v2.6h1.9c0.4,0,0.8-0.1,1-0.3
				c0.3-0.2,0.4-0.5,0.4-1c0-0.4-0.1-0.7-0.4-1C62.7,8.3,62.3,8.2,61.9,8.2z"/>
		</g>
		<g>
			<path fill="#FFFFFF" d="M66.1,14.7V7.5h0.8v7.1H66.1z"/>
		</g>
		<g>
			<path fill="#FFFFFF" d="M73.4,13.9c-0.5,0.5-1.1,0.8-1.9,0.8c-0.7,0-1.3-0.2-1.7-0.6c-0.4-0.4-0.6-0.8-0.7-1.2
				C69,12.6,69,12,69,11.1c0-0.7,0-1.3,0.1-1.7c0-0.4,0.3-0.9,0.7-1.3s1-0.6,1.7-0.6c0.7,0,1.2,0.2,1.7,0.6S73.9,9,74,9.6h-0.8
				c-0.1-0.5-0.3-0.8-0.6-1.1c-0.3-0.3-0.7-0.4-1.1-0.4c-0.5,0-0.9,0.1-1.2,0.4c-0.3,0.3-0.4,0.6-0.5,0.9c-0.1,0.3-0.1,0.8-0.1,1.6
				c0,0.8,0,1.3,0.1,1.6s0.2,0.6,0.5,0.9c0.3,0.3,0.7,0.4,1.2,0.4c0.6,0,1-0.2,1.3-0.5c0.3-0.4,0.5-0.8,0.5-1.4v-0.5h-1.8v-0.7H74
				v1.1c0,0.4,0,0.8-0.1,1.1C73.7,13.4,73.6,13.7,73.4,13.9z"/>
		</g>
		<g>
			<path fill="#FFFFFF" d="M80.2,14.7v-3.3h-3.4v3.3H76V7.5h0.8v3.2h3.4V7.5h0.8v7.1H80.2z"/>
		</g>
		<g>
			<path fill="#FFFFFF" d="M85.4,8.2v6.5h-0.8V8.2h-2.1V7.5h4.9v0.7H85.4z"/>
		</g>
		<g>
			<path fill="#FFFFFF" d="M95.2,14.7c-1,0-1.9-0.4-2.6-1.1s-1.1-1.6-1.1-2.6s0.4-1.9,1.1-2.6c0.7-0.7,1.6-1.1,2.6-1.1
				s1.9,0.4,2.6,1.1c0.7,0.7,1.1,1.6,1.1,2.6s-0.4,1.9-1.1,2.6S96.2,14.7,95.2,14.7z M95.2,8c-0.8,0-1.6,0.3-2.1,0.9
				c-0.6,0.6-0.9,1.3-0.9,2.2s0.3,1.6,0.9,2.2c0.6,0.6,1.3,0.9,2.1,0.9c0.8,0,1.6-0.3,2.1-0.9c0.6-0.6,0.9-1.3,0.9-2.2
				c0-0.8-0.3-1.6-0.9-2.2C96.8,8.3,96.1,8,95.2,8z M95.3,13.1c-0.6,0-1-0.2-1.3-0.6c-0.3-0.4-0.5-0.9-0.5-1.5
				c0-0.6,0.2-1.1,0.5-1.5c0.3-0.4,0.7-0.6,1.3-0.6c0.3,0,0.5,0,0.7,0.1c0.2,0.1,0.4,0.2,0.6,0.4L96.2,10c-0.3-0.3-0.6-0.4-0.9-0.4
				c-0.4,0-0.7,0.1-0.9,0.4c-0.2,0.3-0.3,0.7-0.3,1.1c0,0.5,0.1,0.8,0.3,1.1c0.2,0.3,0.5,0.4,0.9,0.4c0.2,0,0.3,0,0.5-0.1
				c0.1-0.1,0.3-0.2,0.5-0.3l0.4,0.4C96.2,13,95.8,13.1,95.3,13.1z"/>
		</g>
		<g>
			<path fill="#FFFFFF" d="M7.4,23.7H5.6v2.9H4.8v-7.1h2.7c0.7,0,1.2,0.2,1.6,0.6c0.4,0.4,0.6,0.9,0.6,1.5c0,0.6-0.2,1.1-0.6,1.5
				S8.1,23.7,7.4,23.7z M7.4,20.2H5.6V23h1.8c0.5,0,0.8-0.1,1.1-0.4c0.3-0.2,0.4-0.6,0.4-1.1c0-0.5-0.1-0.8-0.4-1S7.8,20.2,7.4,20.2
				z"/>
		</g>
		<g>
			<path fill="#FFFFFF" d="M13.8,26.7c-0.7,0-1.3-0.2-1.8-0.7s-0.7-1-0.7-1.7v-4.8h0.8v4.7c0,0.5,0.2,1,0.5,1.3
				c0.3,0.3,0.7,0.5,1.3,0.5c0.5,0,0.9-0.2,1.3-0.5c0.3-0.3,0.5-0.8,0.5-1.3v-4.7h0.8v4.8c0,0.7-0.2,1.3-0.7,1.7
				C15.1,26.5,14.5,26.7,13.8,26.7z"/>
		</g>
		<g>
			<path fill="#FFFFFF" d="M22.6,26.7L21,23.5h-1.7v3.2h-0.8v-7.1h2.7c0.6,0,1.1,0.2,1.5,0.5c0.4,0.4,0.6,0.8,0.6,1.4
				c0,0.5-0.1,0.9-0.4,1.3c-0.3,0.3-0.7,0.5-1.1,0.6l1.7,3.2L22.6,26.7z M21.2,20.2h-1.9v2.6h1.9c0.4,0,0.8-0.1,1-0.3
				c0.3-0.2,0.4-0.5,0.4-1c0-0.4-0.1-0.7-0.4-1C22,20.3,21.6,20.2,21.2,20.2z"/>
		</g>
		<g>
			<path fill="#FFFFFF" d="M25.4,26.7v-7.1h4.4v0.7h-3.7v2.5h3.1v0.7h-3.1V26h3.7v0.7H25.4z"/>
		</g>
		<g>
			<path fill="#FFFFFF" d="M37.1,23.7h-1.9v2.9h-0.8v-7.1h2.7c0.7,0,1.2,0.2,1.6,0.6c0.4,0.4,0.6,0.9,0.6,1.5c0,0.6-0.2,1.1-0.6,1.5
				S37.8,23.7,37.1,23.7z M37.1,20.2h-1.8V23h1.8c0.5,0,0.8-0.1,1.1-0.4c0.3-0.2,0.4-0.6,0.4-1.1c0-0.5-0.1-0.8-0.4-1
				S37.5,20.2,37.1,20.2z"/>
		</g>
		<g>
			<path fill="#FFFFFF" d="M45.2,26.7l-1.6-3.2h-1.7v3.2h-0.8v-7.1h2.7c0.6,0,1.1,0.2,1.5,0.5c0.4,0.4,0.6,0.8,0.6,1.4
				c0,0.5-0.1,0.9-0.4,1.3c-0.3,0.3-0.7,0.5-1.1,0.6l1.7,3.2L45.2,26.7z M43.7,20.2h-1.9v2.6h1.9c0.4,0,0.8-0.1,1-0.3
				c0.3-0.2,0.4-0.5,0.4-1c0-0.4-0.1-0.7-0.4-1C44.5,20.3,44.2,20.2,43.7,20.2z"/>
		</g>
		<g>
			<path fill="#FFFFFF" d="M52,26c-0.5,0.5-1.1,0.7-1.8,0.7s-1.3-0.2-1.7-0.6c-0.4-0.4-0.6-0.8-0.7-1.2c-0.1-0.4-0.1-1-0.1-1.8
				c0-0.7,0-1.3,0.1-1.7c0-0.4,0.3-0.9,0.7-1.3c0.4-0.4,1-0.6,1.7-0.6s1.3,0.2,1.7,0.6c0.4,0.4,0.6,0.8,0.7,1.2
				c0.1,0.4,0.1,1,0.1,1.9c0,0.7,0,1.3-0.1,1.7C52.5,25.2,52.3,25.6,52,26z M51.4,20.7c-0.3-0.3-0.7-0.5-1.2-0.5
				c-0.5,0-0.9,0.1-1.1,0.4c-0.3,0.3-0.4,0.6-0.5,0.9c-0.1,0.3-0.1,0.8-0.1,1.6c0,0.8,0,1.3,0.1,1.6c0.1,0.3,0.2,0.6,0.5,0.9
				c0.3,0.3,0.7,0.4,1.1,0.4c0.5,0,0.9-0.1,1.1-0.4s0.4-0.6,0.5-0.9s0.1-0.8,0.1-1.6c0-0.8,0-1.3-0.1-1.6
				C51.7,21.2,51.6,20.9,51.4,20.7z"/>
		</g>
		<g>
			<path fill="#FFFFFF" d="M59,26c-0.4,0.4-1,0.7-1.8,0.7h-2.4v-7.1h2.4c0.8,0,1.3,0.2,1.7,0.6s0.6,0.8,0.7,1.2
				c0.1,0.4,0.1,1,0.1,1.7v0.4c0,0.6,0,1.1-0.1,1.5C59.5,25.4,59.3,25.7,59,26z M58.4,20.7c-0.2-0.2-0.4-0.3-0.6-0.4
				c-0.2-0.1-0.5-0.1-0.8-0.1h-1.5V26H57c0.3,0,0.6,0,0.8-0.1c0.2-0.1,0.4-0.2,0.6-0.4c0.2-0.2,0.3-0.5,0.4-0.9
				c0.1-0.4,0.1-0.9,0.1-1.5v-0.3c0-0.6,0-1.1-0.1-1.3C58.7,21.1,58.6,20.9,58.4,20.7z"/>
		</g>
		<g>
			<path fill="#FFFFFF" d="M64.1,26.7c-0.7,0-1.3-0.2-1.8-0.7s-0.7-1-0.7-1.7v-4.8h0.8v4.7c0,0.5,0.2,1,0.5,1.3
				c0.3,0.3,0.7,0.5,1.3,0.5c0.5,0,0.9-0.2,1.3-0.5c0.3-0.3,0.5-0.8,0.5-1.3v-4.7h0.8v4.8c0,0.7-0.2,1.3-0.7,1.7
				C65.5,26.5,64.9,26.7,64.1,26.7z"/>
		</g>
		<g>
			<path fill="#FFFFFF" d="M71.1,26.7c-0.7,0-1.3-0.2-1.7-0.6c-0.4-0.4-0.6-0.8-0.7-1.2c-0.1-0.4-0.1-1-0.1-1.8c0-0.7,0-1.3,0.1-1.7
				c0-0.4,0.3-0.9,0.7-1.3c0.4-0.4,1-0.6,1.7-0.6c0.6,0,1.2,0.2,1.6,0.6c0.4,0.4,0.7,0.9,0.8,1.6h-0.8c-0.1-0.4-0.3-0.8-0.6-1.1
				c-0.3-0.3-0.7-0.4-1.1-0.4c-0.5,0-0.9,0.1-1.2,0.4s-0.4,0.6-0.5,0.9c-0.1,0.3-0.1,0.9-0.1,1.6c0,0.8,0,1.3,0.1,1.6
				s0.2,0.6,0.5,0.9c0.3,0.3,0.7,0.4,1.2,0.4c0.4,0,0.8-0.1,1.1-0.4c0.3-0.3,0.5-0.6,0.6-1.1h0.8c-0.1,0.7-0.4,1.2-0.8,1.6
				S71.8,26.7,71.1,26.7z"/>
		</g>
		<g>
			<path fill="#FFFFFF" d="M77.7,20.2v6.5h-0.8v-6.5h-2.1v-0.7h4.9v0.7H77.7z"/>
		</g>
		<g>
			<path fill="#FFFFFF" d="M81.3,26.7v-7.1h0.8v7.1H81.3z"/>
		</g>
		<g>
			<path fill="#FFFFFF" d="M88.5,26c-0.5,0.5-1.1,0.7-1.8,0.7s-1.3-0.2-1.7-0.6c-0.4-0.4-0.6-0.8-0.7-1.2c-0.1-0.4-0.1-1-0.1-1.8
				c0-0.7,0-1.3,0.1-1.7c0-0.4,0.3-0.9,0.7-1.3c0.4-0.4,1-0.6,1.7-0.6s1.3,0.2,1.7,0.6c0.4,0.4,0.6,0.8,0.7,1.2
				c0.1,0.4,0.1,1,0.1,1.9c0,0.7,0,1.3-0.1,1.7C89.1,25.2,88.9,25.6,88.5,26z M87.9,20.7c-0.3-0.3-0.7-0.5-1.2-0.5
				c-0.5,0-0.9,0.1-1.1,0.4c-0.3,0.3-0.4,0.6-0.5,0.9C85,21.8,85,22.3,85,23.1c0,0.8,0,1.3,0.1,1.6c0.1,0.3,0.2,0.6,0.5,0.9
				c0.3,0.3,0.7,0.4,1.1,0.4c0.5,0,0.9-0.1,1.1-0.4s0.4-0.6,0.5-0.9s0.1-0.8,0.1-1.6c0-0.8,0-1.3-0.1-1.6
				C88.3,21.2,88.1,20.9,87.9,20.7z"/>
		</g>
		<g>
			<path fill="#FFFFFF" d="M95.8,26.7L92,21v5.7h-0.8v-7.1l0.7,0l3.8,5.7v-5.7h0.8v7.1H95.8z"/>
		</g>
		<g>
			<path fill="#FFFFFF" d="M100.7,26.7c-0.5,0-1-0.1-1.4-0.2c-0.4-0.1-0.7-0.4-1.1-0.7l0.5-0.5c0.3,0.3,0.6,0.5,0.9,0.6
				c0.3,0.1,0.7,0.2,1.1,0.2c0.5,0,0.9-0.1,1.2-0.3c0.3-0.2,0.5-0.6,0.5-1c0-0.4-0.1-0.7-0.3-0.8c-0.2-0.1-0.3-0.2-0.4-0.3
				c-0.1,0-0.3-0.1-0.6-0.1l-0.8-0.1c-0.6-0.1-1-0.3-1.4-0.6s-0.5-0.7-0.5-1.3c0-0.6,0.2-1.1,0.6-1.5c0.4-0.4,1-0.5,1.7-0.5
				c0.5,0,0.8,0.1,1.2,0.2c0.3,0.1,0.6,0.3,1,0.6l-0.5,0.5c-0.2-0.2-0.5-0.4-0.7-0.5s-0.6-0.2-0.9-0.2c-0.5,0-0.8,0.1-1.1,0.4
				s-0.4,0.6-0.4,1c0,0.4,0.1,0.6,0.2,0.7c0.2,0.1,0.3,0.2,0.5,0.3c0.2,0.1,0.4,0.1,0.5,0.2l0.8,0.1c0.3,0,0.6,0.1,0.8,0.2
				c0.2,0.1,0.4,0.2,0.7,0.5c0.3,0.2,0.4,0.7,0.4,1.3c0,0.6-0.2,1.1-0.7,1.5C102.1,26.5,101.5,26.7,100.7,26.7z"/>
		</g>
		<g>
			<path fill="#FFFFFF" d="M107.5,26.7V26l2.8-3.6c0.3-0.3,0.4-0.7,0.4-1c0-0.4-0.1-0.7-0.3-0.9c-0.2-0.2-0.5-0.3-0.9-0.3
				c-0.4,0-0.7,0.1-0.9,0.3s-0.4,0.5-0.4,1h-0.7c0-0.6,0.2-1,0.5-1.4c0.4-0.4,0.8-0.5,1.4-0.5c0.6,0,1.1,0.2,1.4,0.5
				s0.5,0.8,0.5,1.4c0,0.3,0,0.5-0.1,0.7c-0.1,0.2-0.2,0.4-0.4,0.7l-2.5,3.2h3.1v0.6H107.5z"/>
		</g>
		<g>
			<path fill="#FFFFFF" d="M115,26.7c-0.6,0-1-0.2-1.4-0.5c-0.4-0.4-0.5-0.8-0.5-1.4v-3.3c0-0.6,0.2-1.1,0.6-1.4
				c0.4-0.4,0.8-0.5,1.4-0.5c0.6,0,1,0.2,1.4,0.5c0.4,0.4,0.6,0.8,0.6,1.4v3.3c0,0.6-0.2,1.1-0.6,1.4C116,26.5,115.5,26.7,115,26.7z
				 M116.2,21.5c0-0.4-0.1-0.7-0.3-1c-0.2-0.3-0.5-0.4-0.9-0.4s-0.7,0.1-0.9,0.4c-0.2,0.3-0.3,0.6-0.3,1v3.2c0,0.4,0.1,0.7,0.3,1
				c0.2,0.3,0.5,0.4,0.9,0.4s0.7-0.1,0.9-0.4c0.2-0.3,0.3-0.6,0.3-1V21.5z"/>
		</g>
		<g>
			<path fill="#FFFFFF" d="M120.4,26.7v-6.3l-1.3,1.2l0-0.8l1.3-1.1l0.7,0v7.1H120.4z"/>
		</g>
		<g>
			<path fill="#FFFFFF" d="M127.3,25.5v1.1h-0.7v-1.1h-2.8v-0.7l2.6-5.3l0.8,0l-2.6,5.4h2.1v-2h0.7v2h0.9v0.6H127.3z"/>
		</g>
	</g>
	<g>
		<g>
			<path fill="#FFFFFF" d="M31,44.7l-0.7,0L28.8,39l-1.6,5.7l-0.7,0l-1.8-7.1l0.8,0l1.4,5.7l1.6-5.7h0.7l1.6,5.7l1.4-5.7l0.8,0
				L31,44.7z"/>
		</g>
		<g>
			<path fill="#FFFFFF" d="M34.4,44.7v-7.1h4.4v0.7h-3.7v2.5h3.1v0.7h-3.1V44h3.7v0.7H34.4z"/>
		</g>
		<g>
			<path fill="#FFFFFF" d="M43.4,44.7h-2.8v-7.1h2.7c0.6,0,1.1,0.2,1.5,0.5c0.4,0.3,0.6,0.8,0.6,1.4c0,0.4-0.1,0.7-0.3,1
				s-0.4,0.5-0.8,0.6c0.3,0.1,0.6,0.3,0.8,0.6c0.2,0.3,0.3,0.7,0.3,1.1c0,0.6-0.2,1.1-0.6,1.5C44.6,44.5,44.1,44.7,43.4,44.7z
				 M43.3,38.2h-1.9v2.5h1.9c0.4,0,0.8-0.1,1-0.3c0.3-0.2,0.4-0.5,0.4-0.9c0-0.4-0.1-0.7-0.4-0.9C44,38.3,43.7,38.2,43.3,38.2z
				 M43.4,41.4h-1.9V44h1.9c0.4,0,0.8-0.1,1-0.4s0.4-0.6,0.4-1c0-0.4-0.1-0.7-0.4-1S43.8,41.4,43.4,41.4z"/>
		</g>
		<g>
			<path fill="#FFFFFF" d="M53.2,44.7h-2.8v-7.1h2.7c0.6,0,1.1,0.2,1.5,0.5c0.4,0.3,0.6,0.8,0.6,1.4c0,0.4-0.1,0.7-0.3,1
				s-0.4,0.5-0.8,0.6c0.3,0.1,0.6,0.3,0.8,0.6c0.2,0.3,0.3,0.7,0.3,1.1c0,0.6-0.2,1.1-0.6,1.5C54.4,44.5,53.9,44.7,53.2,44.7z
				 M53,38.2h-1.9v2.5H53c0.4,0,0.8-0.1,1-0.3c0.3-0.2,0.4-0.5,0.4-0.9c0-0.4-0.1-0.7-0.4-0.9C53.8,38.3,53.5,38.2,53,38.2z
				 M53.1,41.4h-1.9V44h1.9c0.4,0,0.8-0.1,1-0.4s0.4-0.6,0.4-1c0-0.4-0.1-0.7-0.4-1S53.6,41.4,53.1,41.4z"/>
		</g>
		<g>
			<path fill="#FFFFFF" d="M59.3,41.7v3h-0.8v-3l-2.1-4.2l0.8,0L59,41l1.7-3.4l0.8,0L59.3,41.7z"/>
		</g>
		<g>
			<path fill="#FFFFFF" d="M67.7,38.2v6.5H67v-6.5h-2.1v-0.7h4.9v0.7H67.7z"/>
		</g>
		<g>
			<path fill="#FFFFFF" d="M75.5,44.7l-1.6-3.2h-1.7v3.2h-0.8v-7.1h2.7c0.6,0,1.1,0.2,1.5,0.5c0.4,0.4,0.6,0.8,0.6,1.4
				c0,0.5-0.1,0.9-0.4,1.3c-0.3,0.3-0.7,0.5-1.1,0.6l1.7,3.2L75.5,44.7z M74.1,38.2h-1.9v2.6h1.9c0.4,0,0.8-0.1,1-0.3
				c0.3-0.2,0.4-0.5,0.4-1c0-0.4-0.1-0.7-0.4-1C74.8,38.3,74.5,38.2,74.1,38.2z"/>
		</g>
		<g>
			<path fill="#FFFFFF" d="M82.4,44.7L81.9,43h-3.1l-0.6,1.6h-0.8l2.6-7.1h0.6l2.6,7.1L82.4,44.7z M80.3,38.6L79,42.4h2.7L80.3,38.6
				z"/>
		</g>
		<g>
			<path fill="#FFFFFF" d="M85.4,38.2v2.6h3.1v0.7h-3.1v3.1h-0.8v-7.1h4.4v0.7H85.4z"/>
		</g>
		<g>
			<path fill="#FFFFFF" d="M91.5,38.2v2.6h3.1v0.7h-3.1v3.1h-0.8v-7.1h4.4v0.7H91.5z"/>
		</g>
		<g>
			<path fill="#FFFFFF" d="M98.4,44.7v-6.3l-1.3,1.2l0-0.8l1.3-1.1l0.7,0v7.1H98.4z"/>
		</g>
		<g>
			<path fill="#FFFFFF" d="M106.8,44.7l-2.2-3.8l-1.5,1.8v2h-0.8v-7.1h0.8v4.1l3.3-4.1l0.9,0l-2.2,2.7l2.6,4.4L106.8,44.7z"/>
		</g>
	</g>
</g>
</svg>
